<?xml version="1.0" encoding="utf-8"?>
<!-- Generator: Adobe Illustrator 24.1.3, SVG Export Plug-In . SVG Version: 6.00 Build 0)  -->
<svg version="1.1" id="Capa_1" xmlns="http://www.w3.org/2000/svg" xmlns:xlink="http://www.w3.org/1999/xlink" x="0px" y="0px"
	 viewBox="0 0 427 275" style="enable-background:new 0 0 427 275;" xml:space="preserve">
<style type="text/css">
	.st0{fill:none;stroke:#373435;stroke-width:0.5669;stroke-miterlimit:22.9256;}
	.st1{fill:none;stroke:#373435;stroke-width:1.4173;stroke-miterlimit:22.9256;}
	.st2{fill:none;stroke:#373435;stroke-width:0.7087;stroke-miterlimit:22.9256;}
	.st3{fill:#373435;}
</style>
<ellipse transform="matrix(0.3052 -0.9523 0.9523 0.3052 -17.2062 320.5303)" class="st0" cx="211" cy="172.1" rx="79.8" ry="79.8"/>
<circle class="st1" cx="211" cy="172.1" r="88.8"/>
<path class="st2" d="M202.5,27.1v4.4h-2.6c-5.9,0-9.2,10.3-2.1,13.9c4.3,2.1,6.6-0.3,8.2-0.8c-0.3,3.9-5.6,13.1-12.2,13.1
	c-7.2,0-14.3-3.7-17-7.9c0.8-1.3,2.6-2.6,2.6-4.8c0-2.6-3-5.7-5.7-5.7c-4.8,0-10,8.9,0.4,11.4c-0.4,1.7-0.5,3.4-1,5.2
	c-0.3,1.2-1.1,3.8-1.7,4.9c-0.3,0.7-1.9,3.1-2.5,3.6c-6.1,6.1-15.4-2.1-19.4-8c9,0,6.5-10.9,0.9-10.9c-4.3,0-4,2.4-6.1,3.9
	c-0.8-2.9-8.1-5.2-12.2-5.2c0.4,1.7,5,5.5,8.2,9.7c6,8.1,11.8,19,16.4,28.2c1.1,2.2,1.9,4.3,2.9,6.3c34.3-18,68.7-17.7,103.2,0
	c0.5-2.2,4.3-9.4,5.5-11.9c4-7.9,11.1-21.1,16.9-27.3c1.4-1.5,3.7-2.8,4.3-4.9c-4.1,0-11.5,2.3-12.2,5.2c-1.7-1.2-1.4-2.7-4.3-3.6
	c-7.1-2.2-10.6,10.6-0.9,10.6c-5.6,8.4-16.7,15.5-21.9,4.4c-2-4.2-1.7-6.3-2.6-10.1c8.7-0.7,7-11.4,0.4-11.4c-2.6,0-5.7,3-5.7,5.7
	c0,2.2,1.8,3.6,2.6,4.8c-3.7,5.5-18.1,12.8-25.2,3.3c-1.3-1.8-3.9-6-4.1-8.6c2.6,1.4,4.8,2.2,7.9,0.9c7.4-3.1,4.4-14-1.8-14h-2.6
	c0-6.4,0.3-9.6-2.5-15.5c-1.3-2.7-3.6-6.2-5.8-7.7C205.9,11.6,202.5,20.3,202.5,27.1z"/>
<path class="st3" d="M86.5,223.9c5.5,3.4,13.7,7.2,21.8,5.9c11.6-2,12.8-10,10.9-15.2c-1.7-4.6-7.5-7-15.6-4.9
	C94.9,211.9,90.3,218.4,86.5,223.9z M95,229.9l-5.1,7c-6.1,8.4-10.7,14.1-13.9,17c-3.2,3-6.7,4.8-10.5,5.5c-5.4,1-10.4,0-15.2-2.9
	c-4.7-2.9-7.5-6.6-8.4-11.3c-0.6-3.3-0.1-6.3,1.5-9c4.4-7.4,12.5-5.5,18.3-0.8c-8-3.9-14.8-3.5-16.9,1.8c-3.9,10,3.3,16.5,8.4,18.9
	c14.1,6.9,26.9-8.5,39.2-26.6c-9.8-5.3-16.6-9.6-28.4-10.9c-7.3-0.8-13.2-2-22.8-0.7c-9.9,1.3-37.5,12.2-34.5,34.4
	c0.6,4.5,6.3,8.5,13.8,9.4c-9.2,0-14.4-3.1-15.5-9.3c-1.4-7.9,1.5-15.5,8.7-22.8c7.2-7.3,16.8-11.6,28-13.6
	c6.3-1.1,20.9,0.7,32.8,2.8l-10.9-7.6c-5.4-3.8-10.2-6.3-15.7-8.8c-5.4-2.5-10-4.9-13.6-5.4c-5.6-0.8-10.6,0-13.8,2.4
	c-4.9,3.7-5,12.6,6.3,13.7c-7.4-0.4-10.2-3.4-10.2-7.6c-0.1-6.1,5.9-9.3,11-10.2c8.1-1.4,21.3,4.1,39.7,16.6l5.2,3.6
	c3.9,2.6,7.9,4.9,12.2,7c5.8-8.6,12.4-13.6,19.6-14.9c4.3-0.8,8.1-0.2,11.5,1.5c3.3,1.8,5.3,4.4,5.9,7.9c0.6,3.4-0.3,6.4-2.7,9.1
	c-2.4,2.7-5.7,4.5-9.9,5.2C105,232,100.3,231.6,95,229.9z"/>
<path class="st0" d="M86.5,223.9c5.5,3.4,13.7,7.2,21.8,5.9c11.6-2,12.8-10,10.9-15.2c-1.7-4.6-7.5-7-15.6-4.9
	C94.9,211.9,90.3,218.4,86.5,223.9z M95,229.9l-5.1,7c-6.1,8.4-10.7,14.1-13.9,17c-3.2,3-6.7,4.8-10.5,5.5c-5.4,1-10.4,0-15.2-2.9
	c-4.7-2.9-7.5-6.6-8.4-11.3c-0.6-3.3-0.1-6.3,1.5-9c4.4-7.4,12.5-5.5,18.3-0.8c-8-3.9-14.8-3.5-16.9,1.8c-3.9,10,3.3,16.5,8.4,18.9
	c14.1,6.9,26.9-8.5,39.2-26.6c-9.8-5.3-16.6-9.6-28.4-10.9c-7.3-0.8-13.2-2-22.8-0.7c-9.9,1.3-37.5,12.2-34.5,34.4
	c0.6,4.5,6.3,8.5,13.8,9.4c-9.2,0-14.4-3.1-15.5-9.3c-1.4-7.9,1.5-15.5,8.7-22.8c7.2-7.3,16.8-11.6,28-13.6
	c6.3-1.1,20.9,0.7,32.8,2.8l-10.9-7.6c-5.4-3.8-10.2-6.3-15.7-8.8c-5.4-2.5-10-4.9-13.6-5.4c-5.6-0.8-10.6,0-13.8,2.4
	c-4.9,3.7-5,12.6,6.3,13.7c-7.4-0.4-10.2-3.4-10.2-7.6c-0.1-6.1,5.9-9.3,11-10.2c8.1-1.4,21.3,4.1,39.7,16.6l5.2,3.6
	c3.9,2.6,7.9,4.9,12.2,7c5.8-8.6,12.4-13.6,19.6-14.9c4.3-0.8,8.1-0.2,11.5,1.5c3.3,1.8,5.3,4.4,5.9,7.9c0.6,3.4-0.3,6.4-2.7,9.1
	c-2.4,2.7-5.7,4.5-9.9,5.2C105,232,100.3,231.6,95,229.9z"/>
<path class="st3" d="M93.9,186.6c1.6,3.7,4.3,8.4,8.9,10.6c6.5,3.1,9.9-0.5,10.8-3.8c0.8-2.9-1.3-6.1-6.1-7.9
	C102.4,183.5,97.8,185.1,93.9,186.6z M96.1,192.6l-5,1.7c-6,2.1-10.3,3.3-13,3.6c-2.6,0.4-5,0-7.1-0.9c-3-1.4-5.2-3.6-6.6-6.8
	c-1.4-3.1-1.4-6-0.2-8.6c0.9-1.9,2.2-3.2,3.9-4c4.8-2.1,8.2,1.6,9.4,6c-2.6-4.8-6.2-7-9.1-5C63,182.2,64.4,188,66,191
	c4.6,8.4,16.4,5.2,28.9,0.5c-3.1-6.1-4.9-10.6-10.4-15.4c-3.4-3-5.9-5.6-11.1-8.3c-5.4-2.8-23.1-7-29.3,5.1
	c-1.3,2.5,0.1,6.5,3.6,9.5c-4.6-3.2-6.1-6.6-4.5-10.1c2.1-4.5,6.2-7.3,12.4-8.4c6.2-1.1,12.5,0.1,18.8,3c3.5,1.6,10.2,7.7,15.4,12.9
	l-2.8-7.6c-1.4-3.8-2.9-6.7-4.7-9.9c-1.8-3.2-3.3-6-4.9-7.5c-2.5-2.3-5.3-3.7-7.7-3.6c-3.7,0.1-6.9,4.5-1.7,9.1
	c-3.6-2.8-3.9-5.3-2.5-7.4c2.1-3.1,6.2-2.6,9.1-1.3c4.6,2.1,9.2,9.5,14,22.2l1.4,3.6c1,2.7,2.2,5.3,3.7,7.8c5.9-2.3,11-2.5,15-0.6
	c2.4,1.1,4.1,2.7,5.2,4.8c1,2.1,1.1,4.1,0.2,6c-0.9,1.9-2.4,3.1-4.5,3.6c-2.1,0.5-4.4,0.2-6.8-0.9
	C100.4,197.1,98.2,195.2,96.1,192.6z"/>
<path class="st0" d="M93.9,186.6c1.6,3.7,4.3,8.4,8.9,10.6c6.5,3.1,9.9-0.5,10.8-3.8c0.8-2.9-1.3-6.1-6.1-7.9
	C102.4,183.5,97.8,185.1,93.9,186.6z M96.1,192.6l-5,1.7c-6,2.1-10.3,3.3-13,3.6c-2.6,0.4-5,0-7.1-0.9c-3-1.4-5.2-3.6-6.6-6.8
	c-1.4-3.1-1.4-6-0.2-8.6c0.9-1.9,2.2-3.2,3.9-4c4.8-2.1,8.2,1.6,9.4,6c-2.6-4.8-6.2-7-9.1-5C63,182.2,64.4,188,66,191
	c4.6,8.4,16.4,5.2,28.9,0.5c-3.1-6.1-4.9-10.6-10.4-15.4c-3.4-3-5.9-5.6-11.1-8.3c-5.4-2.8-23.1-7-29.3,5.1
	c-1.3,2.5,0.1,6.5,3.6,9.5c-4.6-3.2-6.1-6.6-4.5-10.1c2.1-4.5,6.2-7.3,12.4-8.4c6.2-1.1,12.5,0.1,18.8,3c3.5,1.6,10.2,7.7,15.4,12.9
	l-2.8-7.6c-1.4-3.8-2.9-6.7-4.7-9.9c-1.8-3.2-3.3-6-4.9-7.5c-2.5-2.3-5.3-3.7-7.7-3.6c-3.7,0.1-6.9,4.5-1.7,9.1
	c-3.6-2.8-3.9-5.3-2.5-7.4c2.1-3.1,6.2-2.6,9.1-1.3c4.6,2.1,9.2,9.5,14,22.2l1.4,3.6c1,2.7,2.2,5.3,3.7,7.8c5.9-2.3,11-2.5,15-0.6
	c2.4,1.1,4.1,2.7,5.2,4.8c1,2.1,1.1,4.1,0.2,6c-0.9,1.9-2.4,3.1-4.5,3.6c-2.1,0.5-4.4,0.2-6.8-0.9
	C100.4,197.1,98.2,195.2,96.1,192.6z"/>
<path class="st3" d="M141.6,259.3c1,2.4,2.9,5.6,5.9,7c4.3,2,6.6-0.3,7.2-2.5c0.5-1.9-0.9-4.1-4-5.2
	C147.2,257.3,144.2,258.4,141.6,259.3z M143.1,263.3l-3.3,1.1c-4,1.4-6.8,2.2-8.6,2.4c-1.7,0.2-3.3,0-4.7-0.6
	c-2-0.9-3.4-2.4-4.4-4.5c-0.9-2.1-1-4-0.1-5.7c0.6-1.2,1.4-2.1,2.6-2.6c3.2-1.4,5.4,1.1,6.3,4c-1.7-3.1-4.1-4.6-6-3.3
	c-3.6,2.4-2.7,6.2-1.6,8.2c3.1,5.5,10.9,3.4,19.1,0.3c-2-4-3.3-7-6.9-10.2c-2.2-2-3.9-3.7-7.4-5.5c-3.6-1.9-15.3-4.7-19.4,3.4
	c-0.8,1.6,0.1,4.3,2.4,6.3c-3.1-2.1-4-4.3-3-6.7c1.4-3,4.1-4.8,8.2-5.5c4.1-0.7,8.3,0,12.4,2c2.3,1.1,6.8,5.1,10.2,8.5l-1.8-5
	c-0.9-2.5-1.9-4.5-3.1-6.6c-1.2-2.1-2.2-3.9-3.3-4.9c-1.7-1.6-3.5-2.5-5.1-2.4c-2.5,0.1-4.6,3-1.1,6c-2.4-1.8-2.6-3.5-1.6-4.9
	c1.4-2,4.1-1.7,6-0.8c3,1.4,6.1,6.3,9.3,14.7l0.9,2.4c0.7,1.8,1.5,3.5,2.4,5.1c3.9-1.5,7.3-1.6,9.9-0.4c1.6,0.7,2.7,1.8,3.4,3.2
	c0.7,1.4,0.7,2.7,0.1,4c-0.6,1.3-1.6,2.1-3,2.4c-1.4,0.3-2.9,0.2-4.5-0.6C145.9,266.3,144.4,265.1,143.1,263.3z"/>
<path class="st0" d="M141.6,259.3c1,2.4,2.9,5.6,5.9,7c4.3,2,6.6-0.3,7.2-2.5c0.5-1.9-0.9-4.1-4-5.2
	C147.2,257.3,144.2,258.4,141.6,259.3z M143.1,263.3l-3.3,1.1c-4,1.4-6.8,2.2-8.6,2.4c-1.7,0.2-3.3,0-4.7-0.6
	c-2-0.9-3.4-2.4-4.4-4.5c-0.9-2.1-1-4-0.1-5.7c0.6-1.2,1.4-2.1,2.6-2.6c3.2-1.4,5.4,1.1,6.3,4c-1.7-3.1-4.1-4.6-6-3.3
	c-3.6,2.4-2.7,6.2-1.6,8.2c3.1,5.5,10.9,3.4,19.1,0.3c-2-4-3.3-7-6.9-10.2c-2.2-2-3.9-3.7-7.4-5.5c-3.6-1.9-15.3-4.7-19.4,3.4
	c-0.8,1.6,0.1,4.3,2.4,6.3c-3.1-2.1-4-4.3-3-6.7c1.4-3,4.1-4.8,8.2-5.5c4.1-0.7,8.3,0,12.4,2c2.3,1.1,6.8,5.1,10.2,8.5l-1.8-5
	c-0.9-2.5-1.9-4.5-3.1-6.6c-1.2-2.1-2.2-3.9-3.3-4.9c-1.7-1.6-3.5-2.5-5.1-2.4c-2.5,0.1-4.6,3-1.1,6c-2.4-1.8-2.6-3.5-1.6-4.9
	c1.4-2,4.1-1.7,6-0.8c3,1.4,6.1,6.3,9.3,14.7l0.9,2.4c0.7,1.8,1.5,3.5,2.4,5.1c3.9-1.5,7.3-1.6,9.9-0.4c1.6,0.7,2.7,1.8,3.4,3.2
	c0.7,1.4,0.7,2.7,0.1,4c-0.6,1.3-1.6,2.1-3,2.4c-1.4,0.3-2.9,0.2-4.5-0.6C145.9,266.3,144.4,265.1,143.1,263.3z"/>
<path class="st3" d="M328.2,186.6c-1.6,3.7-4.3,8.4-8.9,10.6c-6.5,3.1-9.9-0.5-10.8-3.8c-0.8-2.9,1.3-6.1,6.1-7.9
	C319.7,183.5,324.3,185.1,328.2,186.6z M326,192.6l5,1.7c6,2.1,10.3,3.3,13,3.6c2.6,0.4,5,0,7.1-0.9c3-1.4,5.2-3.6,6.6-6.8
	c1.4-3.1,1.4-6,0.2-8.6c-0.9-1.9-2.2-3.2-3.9-4c-4.8-2.1-8.2,1.6-9.4,6c2.6-4.8,6.2-7,9.1-5c5.5,3.6,4.1,9.4,2.5,12.4
	c-4.6,8.4-16.4,5.2-28.9,0.5c3.1-6.1,4.9-10.6,10.4-15.4c3.4-3,5.9-5.6,11.1-8.3c5.4-2.8,23.1-7,29.3,5.1c1.3,2.5-0.1,6.5-3.6,9.5
	c4.6-3.2,6.1-6.6,4.5-10.1c-2.1-4.5-6.2-7.3-12.4-8.4c-6.2-1.1-12.5,0.1-18.8,3c-3.5,1.6-10.2,7.7-15.4,12.9l2.8-7.6
	c1.4-3.8,2.9-6.7,4.7-9.9c1.8-3.2,3.3-6,4.9-7.5c2.5-2.3,5.3-3.7,7.7-3.6c3.7,0.1,6.9,4.5,1.7,9.1c3.6-2.8,3.9-5.3,2.5-7.4
	c-2.1-3.1-6.2-2.6-9.1-1.3c-4.6,2.1-9.2,9.5-14,22.2l-1.4,3.6c-1,2.7-2.2,5.3-3.7,7.8c-5.9-2.3-11-2.5-15-0.6
	c-2.4,1.1-4.1,2.7-5.2,4.8c-1,2.1-1.1,4.1-0.2,6c0.9,1.9,2.4,3.1,4.5,3.6c2.2,0.5,4.4,0.2,6.8-0.9C321.7,197.1,324,195.2,326,192.6z
	"/>
<path class="st0" d="M328.2,186.6c-1.6,3.7-4.3,8.4-8.9,10.6c-6.5,3.1-9.9-0.5-10.8-3.8c-0.8-2.9,1.3-6.1,6.1-7.9
	C319.7,183.5,324.3,185.1,328.2,186.6z M326,192.6l5,1.7c6,2.1,10.3,3.3,13,3.6c2.6,0.4,5,0,7.1-0.9c3-1.4,5.2-3.6,6.6-6.8
	c1.4-3.1,1.4-6,0.2-8.6c-0.9-1.9-2.2-3.2-3.9-4c-4.8-2.1-8.2,1.6-9.4,6c2.6-4.8,6.2-7,9.1-5c5.5,3.6,4.1,9.4,2.5,12.4
	c-4.6,8.4-16.4,5.2-28.9,0.5c3.1-6.1,4.9-10.6,10.4-15.4c3.4-3,5.9-5.6,11.1-8.3c5.4-2.8,23.1-7,29.3,5.1c1.3,2.5-0.1,6.5-3.6,9.5
	c4.6-3.2,6.1-6.6,4.5-10.1c-2.1-4.5-6.2-7.3-12.4-8.4c-6.2-1.1-12.5,0.1-18.8,3c-3.5,1.6-10.2,7.7-15.4,12.9l2.8-7.6
	c1.4-3.8,2.9-6.7,4.7-9.9c1.8-3.2,3.3-6,4.9-7.5c2.5-2.3,5.3-3.7,7.7-3.6c3.7,0.1,6.9,4.5,1.7,9.1c3.6-2.8,3.9-5.3,2.5-7.4
	c-2.1-3.1-6.2-2.6-9.1-1.3c-4.6,2.1-9.2,9.5-14,22.2l-1.4,3.6c-1,2.7-2.2,5.3-3.7,7.8c-5.9-2.3-11-2.5-15-0.6
	c-2.4,1.1-4.1,2.7-5.2,4.8c-1,2.1-1.1,4.1-0.2,6c0.9,1.9,2.4,3.1,4.5,3.6c2.2,0.5,4.4,0.2,6.8-0.9C321.7,197.1,324,195.2,326,192.6z
	"/>
<path class="st3" d="M279.6,259.3c-1,2.4-2.9,5.6-5.9,7c-4.3,2-6.6-0.3-7.1-2.5c-0.5-1.9,0.9-4.1,4-5.2
	C274,257.3,277.1,258.4,279.6,259.3z M278.2,263.3l3.3,1.1c4,1.4,6.8,2.2,8.6,2.4c1.7,0.2,3.3,0,4.7-0.6c2-0.9,3.4-2.4,4.4-4.5
	c0.9-2.1,1-4,0.1-5.7c-0.6-1.2-1.4-2.1-2.6-2.6c-3.2-1.4-5.4,1.1-6.3,4c1.7-3.1,4.1-4.6,6-3.3c3.6,2.4,2.7,6.2,1.6,8.2
	c-3.1,5.5-10.9,3.4-19.1,0.3c2-4,3.3-7,6.9-10.2c2.2-2,3.9-3.7,7.4-5.5c3.6-1.9,15.3-4.7,19.4,3.4c0.8,1.6-0.1,4.3-2.4,6.3
	c3.1-2.1,4-4.3,3-6.7c-1.4-3-4.1-4.8-8.2-5.5c-4.1-0.7-8.3,0-12.4,2c-2.3,1.1-6.8,5.1-10.2,8.5l1.8-5c0.9-2.5,1.9-4.5,3.1-6.6
	c1.2-2.1,2.2-3.9,3.3-4.9c1.7-1.6,3.5-2.5,5.1-2.4c2.5,0.1,4.6,3,1.1,6c2.4-1.8,2.6-3.5,1.6-4.9c-1.4-2-4.1-1.7-6-0.8
	c-3,1.4-6.1,6.3-9.3,14.7l-0.9,2.4c-0.7,1.8-1.5,3.5-2.4,5.1c-3.9-1.5-7.3-1.6-9.9-0.4c-1.6,0.7-2.7,1.8-3.4,3.2
	c-0.7,1.4-0.7,2.7-0.1,4c0.6,1.3,1.6,2.1,3,2.4c1.4,0.3,2.9,0.2,4.5-0.6C275.3,266.3,276.8,265.1,278.2,263.3z"/>
<path class="st0" d="M279.6,259.3c-1,2.4-2.9,5.6-5.9,7c-4.3,2-6.6-0.3-7.1-2.5c-0.5-1.9,0.9-4.1,4-5.2
	C274,257.3,277.1,258.4,279.6,259.3z M278.2,263.3l3.3,1.1c4,1.4,6.8,2.2,8.6,2.4c1.7,0.2,3.3,0,4.7-0.6c2-0.9,3.4-2.4,4.4-4.5
	c0.9-2.1,1-4,0.1-5.7c-0.6-1.2-1.4-2.1-2.6-2.6c-3.2-1.4-5.4,1.1-6.3,4c1.7-3.1,4.1-4.6,6-3.3c3.6,2.4,2.7,6.2,1.6,8.2
	c-3.1,5.5-10.9,3.4-19.1,0.3c2-4,3.3-7,6.9-10.2c2.2-2,3.9-3.7,7.4-5.5c3.6-1.9,15.3-4.7,19.4,3.4c0.8,1.6-0.1,4.3-2.4,6.3
	c3.1-2.1,4-4.3,3-6.7c-1.4-3-4.1-4.8-8.2-5.5c-4.1-0.7-8.3,0-12.4,2c-2.3,1.1-6.8,5.1-10.2,8.5l1.8-5c0.9-2.5,1.9-4.5,3.1-6.6
	c1.2-2.1,2.2-3.9,3.3-4.9c1.7-1.6,3.5-2.5,5.1-2.4c2.5,0.1,4.6,3,1.1,6c2.4-1.8,2.6-3.5,1.6-4.9c-1.4-2-4.1-1.7-6-0.8
	c-3,1.4-6.1,6.3-9.3,14.7l-0.9,2.4c-0.7,1.8-1.5,3.5-2.4,5.1c-3.9-1.5-7.3-1.6-9.9-0.4c-1.6,0.7-2.7,1.8-3.4,3.2
	c-0.7,1.4-0.7,2.7-0.1,4c0.6,1.3,1.6,2.1,3,2.4c1.4,0.3,2.9,0.2,4.5-0.6C275.3,266.3,276.8,265.1,278.2,263.3z"/>
<path class="st3" d="M336,223.8c-5.5,3.4-13.7,7.2-21.8,5.9c-11.6-2-12.8-10-10.9-15.2c1.7-4.6,7.5-7,15.6-4.9
	C327.5,211.8,332.1,218.3,336,223.8z M327.4,229.8l5.1,7c6.1,8.4,10.7,14.1,13.9,17c3.2,3,6.7,4.8,10.5,5.5c5.4,1,10.4,0,15.2-2.9
	c4.7-2.9,7.5-6.6,8.4-11.3c0.6-3.3,0.1-6.3-1.5-9c-4.4-7.4-12.5-5.5-18.3-0.8c8-3.9,14.8-3.5,16.9,1.8c3.9,10-3.3,16.5-8.4,18.9
	c-14.1,6.9-26.9-8.5-39.2-26.6c9.8-5.3,16.6-9.6,28.4-10.9c7.3-0.8,13.2-2,22.8-0.7c9.9,1.3,37.5,12.2,34.5,34.4
	c-0.6,4.5-6.3,8.5-13.8,9.4c9.2,0,14.4-3.1,15.5-9.3c1.4-7.9-1.5-15.5-8.7-22.8c-7.2-7.3-16.8-11.6-28-13.6
	c-6.3-1.1-20.9,0.7-32.8,2.8l10.9-7.6c5.4-3.8,10.2-6.3,15.7-8.8c5.4-2.5,10-4.9,13.6-5.4c5.6-0.8,10.6,0,13.8,2.4
	c4.9,3.7,5,12.6-6.3,13.7c7.4-0.4,10.2-3.4,10.2-7.6c0.1-6.1-5.9-9.3-11-10.2c-8.1-1.4-21.3,4.1-39.7,16.6l-5.2,3.6
	c-3.9,2.6-7.9,4.9-12.2,7c-5.8-8.6-12.4-13.6-19.6-14.9c-4.3-0.8-8.1-0.2-11.5,1.5c-3.3,1.8-5.3,4.4-5.9,7.9
	c-0.6,3.4,0.3,6.4,2.7,9.1c2.4,2.7,5.7,4.5,9.9,5.2C317.4,231.9,322.2,231.4,327.4,229.8z"/>
<path class="st0" d="M336,223.8c-5.5,3.4-13.7,7.2-21.8,5.9c-11.6-2-12.8-10-10.9-15.2c1.7-4.6,7.5-7,15.6-4.9
	C327.5,211.8,332.1,218.3,336,223.8z M327.4,229.8l5.1,7c6.1,8.4,10.7,14.1,13.9,17c3.2,3,6.7,4.8,10.5,5.5c5.4,1,10.4,0,15.2-2.9
	c4.7-2.9,7.5-6.6,8.4-11.3c0.6-3.3,0.1-6.3-1.5-9c-4.4-7.4-12.5-5.5-18.3-0.8c8-3.9,14.8-3.5,16.9,1.8c3.9,10-3.3,16.5-8.4,18.9
	c-14.1,6.9-26.9-8.5-39.2-26.6c9.8-5.3,16.6-9.6,28.4-10.9c7.3-0.8,13.2-2,22.8-0.7c9.9,1.3,37.5,12.2,34.5,34.4
	c-0.6,4.5-6.3,8.5-13.8,9.4c9.2,0,14.4-3.1,15.5-9.3c1.4-7.9-1.5-15.5-8.7-22.8c-7.2-7.3-16.8-11.6-28-13.6
	c-6.3-1.1-20.9,0.7-32.8,2.8l10.9-7.6c5.4-3.8,10.2-6.3,15.7-8.8c5.4-2.5,10-4.9,13.6-5.4c5.6-0.8,10.6,0,13.8,2.4
	c4.9,3.7,5,12.6-6.3,13.7c7.4-0.4,10.2-3.4,10.2-7.6c0.1-6.1-5.9-9.3-11-10.2c-8.1-1.4-21.3,4.1-39.7,16.6l-5.2,3.6
	c-3.9,2.6-7.9,4.9-12.2,7c-5.8-8.6-12.4-13.6-19.6-14.9c-4.3-0.8-8.1-0.2-11.5,1.5c-3.3,1.8-5.3,4.4-5.9,7.9
	c-0.6,3.4,0.3,6.4,2.7,9.1c2.4,2.7,5.7,4.5,9.9,5.2C317.4,231.9,322.2,231.4,327.4,229.8z"/>
<g>
	<path class="st3" d="M257.6,120c0,0.5-0.3,0.8-0.9,0.8c-0.3,0-1.3-0.2-3-0.5c-3.2-0.7-5.8-1-7.9-1c-4.8,1.5-9,4.3-12.7,8.5
		c-3.7,4.2-7.9,11-12.6,20.4c-7.2,14.4-16.4,22.9-27.7,25.6c2.4,0.4,4.4,0.5,6.1,0.5c5.5,0,10.1-1.8,13.8-5.3c3.6-3.4,6.6-7,9-10.8
		c0.3-0.4,0.5-0.6,0.6-0.6c0.2,0,0.3,0.1,0.3,0.2c0,0.4-1.7,2.8-5.1,6.9c-3.2,3.9-6.1,6.6-8.7,8.1c-2.6,1.5-5.8,2.2-9.6,2.2
		c-2.2,0-4.8-0.3-7.9-0.9c-1.9,0.6-4.1,0.9-6.6,0.9c-1.7,0-2.6-0.3-2.6-0.9c0-0.7,1.2-1.1,3.5-1.1c1.6,0,3.5,0.1,5.7,0.4
		c4.6-1.1,8.1-2.9,10.5-5.4c2.4-2.5,6.9-9.4,13.7-20.5h-17.2c-7.3,7.7-12.9,13.1-16.9,16.4C172,171.3,163.3,175,155,175
		c-4.7,0-8.7-1.1-12-3.3c-3.3-2.2-4.9-4.9-4.9-8c0-1.6,0.5-3,1.5-4.2c1-1.2,2.2-1.7,3.6-1.7c1.9,0,2.9,0.9,2.9,2.8
		c0,1-0.3,1.8-1,2.5c-0.7,0.7-1.4,1-2.3,1c-1.4,0-2.1-0.7-2.1-2l0.1-0.9c0.1-0.1,0.1-0.3,0.1-0.5c0-0.3-0.1-0.4-0.4-0.4
		c-0.3,0-0.6,0.4-0.9,1.1c-0.3,0.7-0.4,1.5-0.4,2.3c0,2.9,1.5,5.4,4.6,7.4c3.1,2,6.8,3,11.3,3c6.4,0,13.4-3.1,21.1-9.4
		c1.8-1.4,3.7-3.2,5.8-5.5c4.2-4.5,7.6-7.9,10.2-10.4l1.3-1.4h-8.7l0.5-0.8c2.9,0,5.8,0,8.8,0.1c8.7-9.7,17.2-16.8,25.4-21.3
		c8.2-4.5,16.9-6.7,26-6.8c2.1-0.4,4.1-0.6,5.9-0.6C255.6,118,257.6,118.6,257.6,120z M209.9,128.1c0,0.3-0.6,1.1-1.7,2.4
		c-3,3.5-5.9,5.2-8.6,5.2c-1.7,0-3.1-0.6-4.2-1.8c-1.1-1.2-1.6-2.8-1.6-4.8c0-1.7,1-4.4,2.9-8.1c0.9-1.7,1.4-3.2,1.4-4.3
		c0-1.5-0.8-2.8-2.5-3.8c-1.7-1.1-3.7-1.6-6-1.6c-6.8,0-13.1,2.6-18.9,7.9c-5.8,5.2-8.7,10.9-8.7,17c0,3.1,1,5.6,2.9,7.6
		c1.9,2,4.5,2.9,7.6,2.9c3.4,0,6.7-1.2,10.2-3.7s5.8-5.4,7.2-8.9c0.1-0.3,0.2-0.4,0.4-0.4c0.3,0,0.4,0.1,0.4,0.4
		c0,0.6-0.5,1.7-1.6,3.3c-1,1.6-2.1,2.9-3.2,4c-4,4-8.5,5.9-13.5,5.9c-3.4,0-6.1-1-8.2-3.1c-2.1-2.1-3.1-4.8-3.1-8.3
		c0-6.3,3-12.1,9.1-17.4c6.1-5.4,12.6-8,19.7-8c3.1,0,5.6,0.8,7.3,2.3c1.8,1.5,2.7,3.7,2.7,6.4c0,2-0.7,4.4-2.1,7.2
		c-1.3,2.5-1.9,4.2-1.9,5.1c0,2.2,1.3,3.3,3.9,3.3c3,0,6.1-2.2,9.2-6.6c0.3-0.4,0.5-0.5,0.7-0.5
		C209.8,127.7,209.9,127.8,209.9,128.1z M243.5,119.4c-7.8,0.4-15,2.6-21.6,6.7c-6.6,4.1-14.3,10.9-22.9,20.5h16.9
		c3.8-6.6,8.4-12.6,13.8-17.8C235,123.6,239.6,120.4,243.5,119.4z"/>
</g>
<g>
	<path class="st3" d="M276.1,170.7c0,1.4-1.4,3.5-4.3,6.2c-2.9,2.7-6.4,5.3-10.5,7.7c-0.5,1.7-1.3,4.8-2.4,9.2
		c-1.7,7-3.2,11.9-4.6,14.9c-1.4,2.9-3.7,5.9-6.9,8.9c-9.3,8.8-19.7,13.2-31.2,13.2c-3.3,0-6.2-0.6-8.7-1.7
		c-1.4,2.7-2.1,5.1-2.1,7.1c0,2.6,0.9,4.9,2.6,7.1c0.2,0.2,0.3,0.4,0.3,0.6c0,0.2-0.1,0.4-0.4,0.4c-0.7,0-1.4-0.9-2.2-2.8
		c-0.8-1.8-1.2-3.6-1.2-5.2c0-2.3,0.8-4.9,2.3-7.7c-6.2-3.2-9.3-8.7-9.3-16.5c0-5,1.5-10,4.5-15c3-5,7.2-9.4,12.5-13.4
		c6.9-5.1,13.7-7.6,20.4-7.6c3.7,0,6.6,1,8.7,3.1s3.2,4.8,3.2,8.3c0,1.9-0.3,3.8-0.8,5.8c4.4-2.9,8.2-5.4,11.6-7.4
		c2.1-4.7,4.8-8.7,8.1-12c3.2-3.4,6.1-5,8.5-5C275.4,168.9,276.1,169.5,276.1,170.7z M245.8,187.4c0-3.1-1-5.6-3-7.5
		c-2-1.9-4.6-2.9-7.8-2.9c-8,0-15.7,4.2-23.2,12.5c-7.5,8.3-11.2,16.9-11.2,25.9c0,5.9,2.2,10,6.5,12.5c2-3.3,4.9-7,8.7-10.9
		c-2-1.7-2.9-3.7-2.9-6.1c0-1.8,0.6-3.3,1.7-4.6c1.1-1.3,2.5-1.9,4.1-1.9c2,0,3,0.9,3,2.8c0,1-0.4,1.8-1.1,2.5c-0.7,0.7-1.6,1-2.6,1
		c-1.5,0-2.2-0.7-2.2-2.1c0-0.4,0.1-0.9,0.4-1.4c0.1-0.4,0.2-0.6,0.2-0.7c0-0.2-0.1-0.3-0.3-0.3c-0.5,0-1,0.5-1.6,1.6
		s-0.8,2.1-0.8,3.2c0,2,0.9,3.7,2.7,5.3c6-6.3,15.4-13.7,28.3-22.1C245.5,191.6,245.8,189.3,245.8,187.4z M256.9,187.2
		c-3.5,2.2-7.3,4.7-11.4,7.5c-2,6.3-5.4,11.8-10.3,16.6s-9.6,7.1-14.2,7.1c-1.4,0-2.9-0.4-4.5-1.1c-3.4,3.5-6.2,7.1-8.6,11
		c2.4,1.1,5.2,1.6,8.3,1.6c5.6,0,11-1.6,16.2-4.8c5.2-3.2,9.7-7.6,13.5-13.2c1.8-2.6,3.1-5,4.1-7.3c1-2.2,2.6-6.5,4.9-12.7
		C255.5,190.5,256.1,188.9,256.9,187.2z M244.3,195.4l-2.9,2c-11.2,7.7-19.3,14.2-24.3,19.3c1.2,0.7,2.6,1,4,1
		c4.2,0,8.5-2.2,13.1-6.6C238.7,206.8,242.1,201.5,244.3,195.4z M275.2,170.8c0-0.7-0.4-1.1-1.2-1.1c-2,0-4.2,1.4-6.7,4.1
		c-2.5,2.8-4.3,6-5.7,9.7c3.9-2.4,7.2-4.8,9.7-7.2C273.9,173.8,275.2,172,275.2,170.8z"/>
</g>
</svg>
