<?xml version="1.0" encoding="utf-8"?>
<!-- Generator: Adobe Illustrator 24.1.3, SVG Export Plug-In . SVG Version: 6.00 Build 0)  -->
<svg version="1.1" id="Capa_1" xmlns="http://www.w3.org/2000/svg" xmlns:xlink="http://www.w3.org/1999/xlink" x="0px" y="0px"
	 viewBox="0 0 500 567" style="enable-background:new 0 0 500 567;" xml:space="preserve">
<style type="text/css">
	.st0{fill-rule:evenodd;clip-rule:evenodd;}
	.st1{fill:none;stroke:#000000;stroke-width:2;stroke-miterlimit:10;}
	.st2{font-family:'Baskerville-SemiBold';}
	.st3{font-size:49px;}
	.st4{font-family:'Baskerville';}
	.st5{font-size:224.1216px;}
	.st6{letter-spacing:-33;}
	.st7{enable-background:new    ;}
	.st8{font-size:32px;}
	.st9{font-size:67px;}
</style>
<path class="st0" d="M115.6,78.9c-1.5,0-3.2,0.3-4.2,0.6c-0.5,0.2-1.1,0.4-1.6,0.6c-2.9,1.6-3.7,3.3-3.7,5.8
	c-0.8-0.3-6.6-4.1-7.5-4.8l-3.8-3c-2.8-2.3-4.7-5.6-1.4-8.2c1.1-0.8,2.9-1.4,4.8-1.4c2.6,0,4.5,0.7,5.1,2.2c0.2,0.6-0.1,0.9-0.3,1.3
	l0,0l0,0c-0.3-0.3-0.6-0.5-1.2-0.6c-2-0.5-4.3,0.4-4.3,1.6c0,0.7,0.3,1.4,1.1,1.9c1.6,0.8,3.6,0.9,5.4,0.1c2.3-1,3.1-2.8,2.3-4.6
	c-0.8-1.7-2.2-2.6-4.7-3.4c-1-0.3-2-0.5-3.1-0.5h-1c-1.3,0-2.5,0.2-3.6,0.6c-0.3,0.1-0.5,0.1-0.8,0.2c-1.5,0.6-3.2,1.8-3.9,2.8
	c-1.5,2.4-0.9,5.4,1.1,7.5c1.6,1.7,3.5,3.2,5.6,4.7c0.2,0.1,0.2,0.2,0.5,0.4l1,0.6l0,0l0.3,0.2c0.9,0.6,1.9,1.1,2.8,1.7l0.9,0.6
	c0.4,0.2,0.7,0.4,1.1,0.6c-2-0.1-1.5-0.3-4.6-0.3c-4.8,0-9.9,2.4-9.9,5.5c0,1.7,0.5,3,2.2,4c1.2,0.8,3.6,1.4,5.5,1.4
	c2.4,0,5.2-0.8,6.2-2c1-1.3,1.2-2.7-0.4-3.8c-1.6-1.1-6.2-1.3-6.2,1.1c0,0.4,0.3,0.9,0.6,1.2c0.5,0.4,1.1,0.6,2.1,0.6
	c0.7,0,0.8-0.2,1.2-0.3c-0.2,1.3-1.8,1.6-3.6,1.6c-1.3,0-2.6-0.5-3.4-1.1c-0.4-0.2-0.8-0.7-1.1-1c-0.7-1-0.6-2,0.3-2.9
	c1-1,2.2-1.5,4-1.9c5.8-1.2,11.1,0.6,13,4.2c0.5,0.9,0.9,1.8,0.9,2.9c0,4.2-3.3,6.7-8.3,8c-0.6,0.2-1.1,0.3-1.8,0.4
	c-3.2,0.7-6.2,0.3-8.3-1.4c-0.7-0.6-0.7-1.8,0.2-2.3c0.8-0.4,1.2-0.5,2.4-0.5c0.5,0,1,0.1,1.2,0.3c-1.7,0.3-1.7,2.4,0.5,2.4
	c3.9,0,3.2-4.2-2.4-4.2c-2,0-3.9,1-4.5,2.1c-0.8,1.3,0.3,3.3,1.9,4.1c0.6,0.3,1.8,0.9,2.5,1v0.1c-1.3,0.2-2.9,1.1-3.6,1.8
	c-0.6,0.6-0.8,1.1-1,1.9c-0.3,1.5,0.9,2.5,2.8,3.1c0.5,0.2,1.4,0.4,2.1,0.4c2.9,0,6.1-2,4.1-3.7c-1.5-1.2-4.8-0.1-3.3,1.4
	c0.2,0.2,0.6,0.4,0.8,0.6c-3.3,1.1-6.3-1.5-2.4-3.5c2.8-1.4,6.4-0.8,9.3,0.1c2,0.6,3.4,1.2,4.8,2.2c0.3,0.2,0.5,0.4,0.7,0.6
	c2.4,2.3,2.7,5.3,1.3,7.9c-0.5,1-1.1,1.6-2,2.3c-0.8,0.6-1.9,1.3-3.1,1.7c-0.9,0.3-3.4,0.7-4.8,0.7c-1.9,0-4.2-0.6-5.4-1
	c-1.5-0.5-2.6-1.7-2.6-2.9c0-1.3,1.5-2.5,3.1-3c1.4-0.4,3.1-0.5,4.4,0c0.6,0.3,1.1,0.7,1.1,1.3c-0.7-0.2-1-0.3-1.8-0.3
	c-2.3,0-3.1,2.6-0.8,3.3c1.6,0.5,4,0.1,5-0.8c1.6-1.4,0.9-3.5-1.2-4.5c-1.4-0.7-3.2-1.1-5.3-1.1c-0.7,0-2.3,0.3-2.9,0.5
	c-0.9,0.2-1.6,0.6-2.2,1s-1.1,0.9-1.5,1.4c-0.4,0.6-0.6,1.3-0.7,2v0.5c0.1,1.2,0.8,2.4,2,3.3c1.8,1.3,4.9,2.3,8.3,2.3
	c0.8,0,1.3,0,2.1-0.1c0.6,0,1.4-0.2,2-0.2c-0.8,0.7-4.2,2.6-5.4,3.4c-3.6,2.6-8.6,6.2-8.6,9.7c0,1.1,0.2,2.3,0.9,3.2
	c0.3,0.4,0.5,0.7,0.8,1c0.2,0.2,0.3,0.3,0.5,0.4c1.4,1,2.8,1.9,5,2.1l1.5,0.2c0.1,0,0.4,0.1,0.4,0.1c0.5,0,1.7,0,2-0.1
	c2.7-0.6,4.9-1.1,6.2-3c1.1-1.4,1.2-3.2-0.2-4.5c-2.6-2.6-8.1-1.7-8.1,0.6c0,0.6,0.2,1.2,0.9,1.6c1,0.6,2.4,0.7,3.6,0.3
	c0.8-0.2,0.5-0.4,1-0.6c1.3,1.5-1,3.6-4.6,3.6c-2.1,0-3.5-0.5-4.9-1.4c-0.6-0.4-1.1-0.9-1.4-1.4c-1.2-2-0.1-4.3,1.7-5.9
	c1.2-1.1,2.4-2.2,3.7-3.1l8.6-5.6c0,2.8,1.3,5.1,4.9,6.3c4,1.4,9.1,0.9,11.8-1.4c2.5-2.1,2.1-5.3-1.5-6.7c-1.6-0.6-5-0.8-6.4,0.3
	c-1.6,1.2-1.6,3.4,1.5,3.5c1.4,0,2.9-0.7,2.9-1.6c0-0.3-0.2-0.4-0.3-0.6c0.4,0.1,0.7,0.1,1.2,0.3c2.2,0.8,2,3.4-0.2,4.5
	c-2.7,1.4-9,1.4-10.7-2.1c-1-2.1-0.6-3.1,0.4-5.1c0.5-0.9,0.9-1.9,1.3-2.9c1.5-3.5,1.8-8.2-2.4-11c-1.3-0.9-2.2-1.5-4-2.2
	c-0.6-0.2-1.2-0.5-1.9-0.6c-0.3-0.1-0.7-0.2-1-0.3c-0.3-0.1-0.8-0.1-1.1-0.3c1.1-0.1,3.1-0.8,4-1.1c1.8-0.7,3.3-1.6,4.6-2.7
	c0.9-0.7,1.5-1.5,2-2.4c3-5.5-2.6-11.2-2.6-14.1c0-1.2,0.7-2.5,1.7-3.4c2.3-2.1,9.3-2.1,11,0.6c0.5,0.8,0.6,1.4,0.1,2.2
	c-0.4,0.7-1.2,1.2-2.5,1.3c0.1-0.1,0.3-0.3,0.3-0.5c0-1.5-3.3-2.1-4.8-1.1s-0.4,2.9,1.5,3.5c0.6,0.2,1.5,0.2,2.3,0.2
	c5.9,0,7.7-4.7,4.5-7.2l-1.1-0.7C120.3,79.5,118.3,78.9,115.6,78.9"/>
<path class="st0" d="M129.5,102.6c-2.9,0-3.4,0.3-6,0.9c-0.8,0.2-1.5,0.4-2.3,0.6c-2.7,0.6-5,0.9-7.9,1.2l-5.8,0.5
	c0.1,0.2,0.3,0.2,1.3,0.2c0.6,0,0.9,0.1,1.4,0.1c2.6,0.2,6,0.7,8.5,1.1c1.8,0.3,3.7,0.6,5.3,1c4,0.8,8.1,1.5,11.1-0.8
	c0.6-0.5,0.7-1,0.7-1.6l0,0C135.9,103.8,132.4,102.6,129.5,102.6"/>
<path class="st0" d="M110.1,108c0.2,0.2,0.2,0.1,0.4,0.3c0.2,0.1,0.3,0.2,0.5,0.3c0.8,0.5,2.2,1.1,2.9,1.6c4.5,3.4,3,3.6,5.2,5.9
	c0.8,0.8,2.2,2.1,4.1,2.1c1.7,0,2.8-1,2.8-1.8c0-1.3-0.2-1.8-1.5-2.9c-2.9-2.4-7.3-3.8-11.7-4.8C112.2,108.4,110.7,108.1,110.1,108"
	/>
<path class="st0" d="M123.3,93.9c-1.3,0-1.9,0.2-2.7,0.7c-1.4,0.9-2,1.7-2.7,2.9c-0.2,0.3-0.3,0.5-0.5,0.8s-0.4,0.5-0.6,0.8
	c-0.5,0.8-1.3,1.4-2.1,2.1l-0.9,0.6c-0.3,0.2-0.6,0.4-0.9,0.6l-2.5,1.3c-0.3,0.1-0.3,0.1-0.4,0.3c0.8-0.1,1.9-0.4,2.6-0.6
	c2.8-0.7,4.6-1.2,7.1-2.2c2.1-0.9,6.2-3,6.2-5C126,95.1,125.3,93.9,123.3,93.9"/>
<path class="st0" d="M176,73.7c0-1.5-0.3-3.2-0.6-4.2c-0.2-0.5-0.4-1.1-0.6-1.6c-1.6-2.9-3.3-3.7-5.8-3.7c0.3-0.8,4.1-6.6,4.8-7.5
	l3-3.8c2.3-2.8,5.6-4.7,8.2-1.4c0.8,1.1,1.4,2.9,1.4,4.8c0,2.6-0.7,4.5-2.2,5.1c-0.6,0.2-0.9-0.1-1.3-0.3l0,0l0,0
	c0.3-0.3,0.5-0.6,0.6-1.2c0.5-2-0.4-4.3-1.6-4.3c-0.7,0-1.4,0.3-1.9,1.1c-0.8,1.6-0.9,3.6-0.1,5.4c1,2.3,2.8,3.1,4.6,2.3
	c1.7-0.8,2.6-2.2,3.4-4.7c0.3-1,0.5-2,0.5-3.1v-1c0-1.3-0.2-2.5-0.6-3.6c-0.1-0.3-0.1-0.5-0.2-0.8c-0.6-1.5-1.8-3.2-2.8-3.9
	c-2.4-1.5-5.4-0.9-7.5,1.1c-1.7,1.6-3.2,3.5-4.7,5.6c-0.1,0.2-0.2,0.2-0.4,0.5l-0.6,1l0,0l-0.2,0.3c-0.6,0.9-1.1,1.9-1.7,2.8
	l-0.6,0.9c-0.2,0.4-0.4,0.7-0.6,1.1c0.1-2,0.3-1.5,0.3-4.6c0-4.8-2.4-9.9-5.5-9.9c-1.7,0-3,0.5-4,2.2c-0.8,1.2-1.4,3.6-1.4,5.5
	c0,2.4,0.8,5.2,2,6.2c1.3,1,2.7,1.2,3.8-0.4c1.1-1.6,1.3-6.2-1.1-6.2c-0.4,0-0.9,0.3-1.2,0.6c-0.4,0.5-0.6,1.1-0.6,2.1
	c0,0.7,0.2,0.8,0.3,1.2c-1.3-0.2-1.6-1.8-1.6-3.6c0-1.3,0.5-2.6,1.1-3.4c0.2-0.4,0.7-0.8,1-1.1c1-0.7,2-0.6,2.9,0.3
	c1,1,1.5,2.2,1.9,4.1c1.2,5.8-0.6,11.1-4.2,13c-0.9,0.5-1.8,0.9-2.9,0.9c-4.2,0-6.7-3.3-8-8.3c-0.2-0.6-0.3-1.1-0.4-1.8
	c-0.7-3.2-0.3-6.2,1.4-8.3c0.6-0.7,1.8-0.7,2.3,0.2c0.4,0.8,0.5,1.2,0.5,2.4c0,0.5-0.1,1-0.3,1.2c-0.3-1.7-2.4-1.7-2.4,0.5
	c0,3.9,4.2,3.2,4.2-2.4c0-2-1-3.9-2.1-4.5c-1.3-0.8-3.3,0.3-4.1,1.9c-0.3,0.6-0.9,1.8-1,2.5H149c-0.2-1.3-1.1-2.9-1.8-3.6
	c-0.6-0.6-1.1-0.8-1.9-1c-1.5-0.3-2.5,0.9-3.1,2.8c-0.2,0.5-0.4,1.4-0.4,2.1c0,2.9,2,6.1,3.7,4.1c1.2-1.5,0.1-4.8-1.4-3.3
	c-0.2,0.2-0.4,0.6-0.6,0.8c-1.1-3.3,1.5-6.3,3.5-2.4c1.4,2.8,0.8,6.4-0.1,9.3c-0.6,2-1.2,3.4-2.2,4.8c-0.2,0.3-0.4,0.5-0.6,0.7
	c-2.3,2.4-5.3,2.7-7.9,1.3c-1-0.5-1.6-1.1-2.3-2c-0.6-0.8-1.3-1.9-1.7-3.1c-0.3-0.9-0.7-3.4-0.7-4.8c0-1.9,0.6-4.2,1-5.4
	c0.5-1.5,1.7-2.6,2.9-2.6c1.3,0,2.5,1.5,3,3.1c0.4,1.4,0.5,3.1,0,4.4c-0.3,0.6-0.7,1.1-1.3,1.1c0.2-0.7,0.3-1,0.3-1.8
	c0-2.3-2.6-3.1-3.3-0.8c-0.5,1.6-0.1,4,0.8,5c1.4,1.6,3.5,0.9,4.5-1.2c0.7-1.4,1.1-3.2,1.1-5.3c0-0.7-0.3-2.3-0.5-2.9
	c-0.2-0.9-0.6-1.6-1-2.2c-0.4-0.6-0.9-1.1-1.4-1.5c-0.6-0.4-1.3-0.6-2-0.7h-0.5c-1.2,0.1-2.4,0.8-3.3,2c-1.3,1.8-2.3,4.9-2.3,8.3
	c0,0.8,0,1.3,0.1,2.1c0,0.6,0.2,1.4,0.2,2c-0.7-0.8-2.6-4.2-3.4-5.4c-2.6-3.6-6.2-8.6-9.7-8.6c-1.1,0-2.3,0.2-3.2,0.9
	c-0.4,0.3-0.7,0.5-1,0.8c-0.2,0.2-0.3,0.3-0.4,0.5c-1,1.4-1.9,2.8-2.1,5l-0.2,1.5c0,0.1-0.1,0.4-0.1,0.4c0,0.5,0,1.7,0.1,2
	c0.6,2.7,1.1,4.9,3,6.2c1.4,1.1,3.2,1.2,4.5-0.2c2.6-2.6,1.7-8.1-0.6-8.1c-0.6,0-1.1,0.2-1.6,0.9c-0.6,1-0.7,2.4-0.3,3.6
	c0.2,0.8,0.4,0.5,0.6,1c-1.5,1.3-3.6-1-3.6-4.6c0-2.1,0.5-3.5,1.4-4.9c0.4-0.6,0.9-1.1,1.4-1.4c2-1.2,4.3-0.1,5.9,1.7
	c1.1,1.2,2.2,2.4,3.1,3.7l5.6,8.6c-2.8,0-5.1,1.3-6.3,4.9c-1.4,4-0.9,9.1,1.4,11.8c2.1,2.5,5.3,2.1,6.7-1.5c0.6-1.6,0.8-5-0.3-6.4
	c-1.2-1.6-3.4-1.6-3.5,1.5c0,1.4,0.7,2.9,1.6,2.9c0.3,0,0.4-0.2,0.6-0.3c-0.1,0.4-0.1,0.7-0.3,1.2c-0.8,2.2-3.4,2-4.5-0.2
	c-1.4-2.7-1.4-9,2.1-10.7c2.1-1,3.1-0.6,5.1,0.4c0.9,0.5,1.9,0.9,2.9,1.3c3.5,1.5,8.2,1.8,11-2.4c0.9-1.3,1.5-2.2,2.2-4
	c0.2-0.6,0.5-1.2,0.6-1.9c0.1-0.3,0.2-0.7,0.3-1s0.1-0.8,0.3-1.1c0.1,1.1,0.8,3.1,1.1,4c0.7,1.8,1.6,3.3,2.7,4.6
	c0.7,0.9,1.5,1.5,2.4,2c5.5,3,11.2-2.6,14.1-2.6c1.2,0,2.5,0.7,3.4,1.7c2.1,2.3,2.1,9.3-0.6,11c-0.8,0.5-1.4,0.6-2.2,0.1
	c-0.7-0.4-1.2-1.2-1.3-2.5c0.1,0.1,0.3,0.3,0.5,0.3c1.5,0,2.1-3.3,1.1-4.8s-2.9-0.4-3.5,1.5c-0.2,0.6-0.2,1.5-0.2,2.3
	c0,5.9,4.7,7.7,7.2,4.5l0.7-1.1C175.3,78.4,176,76.4,176,73.7"/>
<path class="st0" d="M152.2,87.6c0-2.9-0.3-3.4-0.9-6c-0.2-0.8-0.4-1.5-0.6-2.3c-0.5-2.7-0.9-5-1.2-7.9l-0.5-5.8
	c-0.2,0.1-0.2,0.3-0.2,1.3c-0.1,0.6-0.1,0.9-0.1,1.4c-0.2,2.6-0.7,6-1.1,8.5c-0.3,1.8-0.6,3.7-1,5.3c-0.8,4-1.5,8.1,0.8,11.1
	c0.5,0.6,1,0.7,1.6,0.7l0,0C151.1,94,152.2,90.5,152.2,87.6"/>
<path class="st0" d="M146.8,68.2c-0.2,0.2-0.1,0.2-0.3,0.4c-0.1,0.2-0.2,0.3-0.3,0.5c-0.5,0.8-1.1,2.2-1.6,2.9
	c-3.4,4.5-3.6,3-5.9,5.2c-0.8,0.8-2.1,2.2-2.1,4.1c0,1.7,1,2.8,1.8,2.8c1.3,0,1.8-0.2,2.9-1.5c2.4-2.9,3.8-7.3,4.8-11.7
	C146.4,70.3,146.8,68.8,146.8,68.2"/>
<path class="st0" d="M160.9,81.4c0-1.3-0.2-1.9-0.7-2.7c-0.9-1.4-1.7-2-2.9-2.7c-0.3-0.2-0.5-0.3-0.8-0.5s-0.5-0.4-0.8-0.6
	c-0.8-0.5-1.4-1.3-2.1-2.1l-0.6-0.9c-0.2-0.3-0.4-0.6-0.6-0.9l-1.3-2.5c-0.1-0.3-0.1-0.3-0.3-0.4c0.1,0.8,0.4,1.9,0.6,2.6
	c0.7,2.8,1.2,4.6,2.2,7.1c0.9,2.1,3,6.2,5,6.2C159.7,84.1,160.9,83.4,160.9,81.4"/>
<path class="st0" d="M351.1,519.6c0,1.5-0.3,3.2-0.6,4.2c-0.2,0.5-0.4,1.1-0.6,1.6c-1.6,2.9-3.3,3.7-5.8,3.7
	c0.3,0.8,4.1,6.6,4.8,7.5l3,3.8c2.3,2.8,5.6,4.7,8.2,1.4c0.8-1.1,1.4-2.9,1.4-4.8c0-2.6-0.7-4.5-2.2-5.1c-0.6-0.2-0.9,0.1-1.3,0.3
	l0,0l0,0c0.3,0.3,0.5,0.6,0.6,1.2c0.5,2-0.4,4.3-1.6,4.3c-0.7,0-1.4-0.3-1.9-1.1c-0.8-1.6-0.9-3.6-0.1-5.4c1-2.3,2.8-3.1,4.6-2.3
	c1.7,0.8,2.6,2.2,3.4,4.7c0.3,1,0.5,2,0.5,3.1v1c0,1.3-0.2,2.5-0.6,3.6c-0.1,0.3-0.1,0.5-0.2,0.8c-0.6,1.5-1.8,3.2-2.8,3.9
	c-2.4,1.5-5.4,0.9-7.5-1.1c-1.7-1.6-3.2-3.5-4.7-5.6c-0.1-0.2-0.2-0.2-0.4-0.5l-0.6-1l0,0l-0.2-0.3c-0.6-0.9-1.1-1.9-1.7-2.8
	l-0.6-0.9c-0.2-0.4-0.4-0.7-0.6-1.1c0.1,2,0.3,1.5,0.3,4.6c0,4.8-2.4,9.9-5.5,9.9c-1.7,0-3-0.5-4-2.2c-0.8-1.2-1.4-3.6-1.4-5.5
	c0-2.4,0.8-5.2,2-6.2c1.3-1,2.7-1.2,3.8,0.4c1.1,1.6,1.3,6.2-1.1,6.2c-0.4,0-0.9-0.3-1.2-0.6c-0.4-0.5-0.6-1.1-0.6-2.1
	c0-0.7,0.2-0.8,0.3-1.2c-1.3,0.2-1.6,1.8-1.6,3.6c0,1.3,0.5,2.6,1.1,3.4c0.2,0.4,0.7,0.8,1,1.1c1,0.7,2,0.6,2.9-0.3
	c1-1,1.5-2.2,1.9-4c1.2-5.8-0.6-11.1-4.2-13c-0.9-0.5-1.8-0.9-2.9-0.9c-4.2,0-6.7,3.3-8,8.3c-0.2,0.6-0.3,1.1-0.4,1.8
	c-0.7,3.2-0.3,6.2,1.4,8.3c0.6,0.7,1.8,0.7,2.3-0.2c0.4-0.8,0.5-1.2,0.5-2.4c0-0.5-0.1-1-0.3-1.2c-0.3,1.7-2.4,1.7-2.4-0.5
	c0-3.9,4.2-3.2,4.2,2.4c0,2-1,3.9-2.1,4.5c-1.3,0.8-3.3-0.3-4.1-1.9c-0.3-0.6-0.9-1.8-1-2.5h-0.1c-0.2,1.3-1.1,2.9-1.8,3.6
	c-0.6,0.6-1.1,0.8-1.9,1c-1.5,0.3-2.5-0.9-3.1-2.8c-0.2-0.5-0.4-1.4-0.4-2.1c0-2.9,2-6.1,3.7-4.1c1.2,1.5,0.1,4.8-1.4,3.3
	c-0.2-0.2-0.4-0.6-0.6-0.8c-1.1,3.3,1.5,6.3,3.5,2.4c1.4-2.8,0.8-6.4-0.1-9.3c-0.6-2-1.2-3.4-2.2-4.8c-0.2-0.3-0.4-0.5-0.6-0.7
	c-2.3-2.4-5.3-2.7-7.9-1.3c-1,0.5-1.6,1.1-2.3,2c-0.6,0.8-1.3,1.9-1.7,3.1c-0.3,0.9-0.7,3.4-0.7,4.8c0,1.9,0.6,4.2,1,5.4
	c0.5,1.5,1.7,2.6,2.9,2.6c1.3,0,2.5-1.5,3-3.1c0.4-1.4,0.5-3.1,0-4.4c-0.3-0.6-0.7-1.1-1.3-1.1c0.2,0.7,0.3,1,0.3,1.8
	c0,2.3-2.6,3.1-3.3,0.8c-0.5-1.6-0.1-4,0.8-5c1.4-1.6,3.5-0.9,4.5,1.2c0.7,1.4,1.1,3.2,1.1,5.3c0,0.7-0.3,2.3-0.5,2.9
	c-0.2,0.9-0.6,1.6-1,2.2c-0.4,0.6-0.9,1.1-1.4,1.5c-0.6,0.4-1.3,0.6-2,0.7h-0.5c-1.2-0.1-2.4-0.8-3.3-2c-1.3-1.8-2.3-4.9-2.3-8.3
	c0-0.8,0-1.3,0.1-2.1c0-0.6,0.2-1.4,0.2-2c-0.7,0.8-2.6,4.2-3.4,5.4c-2.6,3.6-6.2,8.6-9.7,8.6c-1.1,0-2.3-0.2-3.2-0.9
	c-0.4-0.3-0.7-0.5-1-0.8c-0.2-0.2-0.3-0.3-0.4-0.5c-1-1.4-1.9-2.8-2.1-5l-0.4-1.9c0-0.1-0.1-0.4-0.1-0.4c0-0.5,0-1.7,0.1-2
	c0.6-2.7,1.1-4.9,3-6.2c1.4-1.1,3.2-1.2,4.5,0.2c2.6,2.6,1.7,8.1-0.6,8.1c-0.6,0-1.2-0.2-1.6-0.9c-0.6-1-0.7-2.4-0.3-3.6
	c0.2-0.8,0.4-0.5,0.6-1c-1.5-1.3-3.6,1-3.6,4.6c0,2.1,0.5,3.5,1.4,4.9c0.4,0.6,0.9,1.1,1.4,1.4c2,1.2,4.3,0.1,5.9-1.7
	c1.1-1.2,2.2-2.4,3.1-3.7l5.6-8.6c-2.8,0-5.1-1.3-6.3-4.9c-1.4-4-0.9-9.1,1.4-11.8c2.1-2.5,5.3-2.1,6.7,1.5c0.6,1.6,0.8,5-0.3,6.4
	c-1.2,1.6-3.4,1.6-3.5-1.5c0-1.4,0.7-2.9,1.6-2.9c0.3,0,0.4,0.2,0.6,0.3c-0.1-0.4-0.1-0.7-0.3-1.2c-0.8-2.2-3.4-2-4.5,0.2
	c-1.4,2.7-1.4,9,2.1,10.7c2.1,1,3.1,0.6,5.1-0.4c0.9-0.5,1.9-0.9,2.9-1.3c3.5-1.5,8.2-1.8,11,2.4c0.9,1.3,1.5,2.2,2.2,4
	c0.2,0.6,0.5,1.2,0.6,1.9c0.1,0.3,0.2,0.7,0.3,1c0.1,0.3,0.1,0.8,0.3,1.1c0.1-1.1,0.8-3.1,1.1-4c0.7-1.8,1.6-3.3,2.7-4.6
	c0.7-0.9,1.5-1.5,2.4-2c5.5-3,11.2,2.6,14.1,2.6c1.2,0,2.5-0.7,3.4-1.7c2.1-2.3,2.1-9.3-0.6-11c-0.8-0.5-1.4-0.6-2.2-0.1
	c-0.7,0.4-1.2,1.2-1.3,2.5c0.1-0.1,0.3-0.3,0.5-0.3c1.5,0,2.1,3.3,1.1,4.8s-2.9,0.4-3.5-1.5c-0.2-0.6-0.2-1.5-0.2-2.3
	c0-5.9,4.7-7.7,7.2-4.5l0.7,1.1C350.4,514.9,351.1,516.9,351.1,519.6"/>
<path class="st0" d="M327.3,505.7c0,2.9-0.3,3.4-0.9,6c-0.2,0.8-0.4,1.5-0.6,2.3c-0.6,2.7-0.9,5-1.2,7.9l-0.5,5.8
	c-0.2-0.1-0.2-0.3-0.2-1.3c0-0.6-0.1-0.9-0.1-1.4c-0.2-2.6-0.7-6-1.1-8.5c-0.3-1.8-0.6-3.7-1-5.3c-0.8-4-1.5-8.1,0.8-11.1
	c0.5-0.6,1-0.7,1.6-0.7l0,0C326.2,499.4,327.3,502.9,327.3,505.7"/>
<path class="st0" d="M321.9,525.2c-0.2-0.2-0.1-0.2-0.3-0.4c-0.1-0.2-0.2-0.3-0.3-0.5c-0.5-0.8-1.1-2.2-1.6-2.9
	c-3.4-4.5-3.6-3-5.9-5.2c-0.8-0.8-2.1-2.2-2.1-4.1c0-1.7,1-2.8,1.8-2.8c1.3,0,1.8,0.2,2.9,1.5c2.4,2.9,3.8,7.3,4.8,11.7
	C321.5,523,321.9,524.5,321.9,525.2"/>
<path class="st0" d="M336,511.9c0,1.3-0.2,1.9-0.7,2.7c-0.9,1.4-1.7,2-2.9,2.7c-0.3,0.2-0.5,0.3-0.8,0.5s-0.5,0.4-0.8,0.6
	c-0.8,0.5-1.4,1.3-2.1,2.1l-0.6,0.9c-0.2,0.3-0.4,0.6-0.6,0.9l-1.3,2.5c-0.1,0.3-0.1,0.3-0.3,0.4c0.1-0.8,0.4-1.9,0.6-2.6
	c0.7-2.8,1.2-4.6,2.2-7.1c0.9-2.1,3-6.2,5-6.2C334.8,509.2,336,509.9,336,511.9"/>
<path class="st0" d="M356.3,459.2c1.5,0,3.2,0.3,4.2,0.6c0.5,0.2,1.1,0.4,1.6,0.6c2.9,1.6,3.7,3.3,3.7,5.8c0.8-0.3,6.6-4.1,7.5-4.8
	l3.8-3c2.8-2.3,4.7-5.6,1.4-8.2c-1.1-0.8-2.9-1.4-4.8-1.4c-2.6,0-4.5,0.7-5.1,2.2c-0.2,0.6,0.1,0.9,0.3,1.3l0,0l0,0
	c0.3-0.3,0.6-0.5,1.2-0.6c2-0.5,4.3,0.4,4.3,1.6c0,0.7-0.3,1.4-1.1,1.9c-1.6,0.8-3.6,0.9-5.4,0.1c-2.3-1-3.1-2.8-2.3-4.6
	c0.8-1.7,2.2-2.6,4.7-3.4c1-0.3,2-0.5,3.1-0.5h1c1.3,0,2.5,0.2,3.6,0.6c0.3,0.1,0.5,0.1,0.8,0.2c1.5,0.6,3.2,1.8,3.9,2.8
	c1.5,2.4,0.9,5.4-1.1,7.5c-1.6,1.7-3.5,3.2-5.6,4.7c-0.2,0.1-0.2,0.2-0.5,0.4l-1,0.6l0,0l-0.5,0.5c-0.9,0.6-1.9,1.1-2.8,1.7
	l-0.9,0.6c-0.4,0.2-0.7,0.4-1.1,0.6c2-0.1,1.5-0.3,4.6-0.3c4.8,0,9.9,2.4,9.9,5.5c0,1.7-0.5,3-2.2,4c-1.2,0.8-3.6,1.4-5.5,1.4
	c-2.4,0-5.2-0.8-6.2-2c-1-1.3-1.2-2.7,0.4-3.8c1.6-1.1,6.2-1.3,6.2,1.1c0,0.4-0.3,0.9-0.6,1.2c-0.5,0.4-1.1,0.6-2.1,0.6
	c-0.7,0-0.8-0.2-1.2-0.3c0.2,1.3,1.8,1.6,3.6,1.6c1.3,0,2.6-0.5,3.4-1.1c0.4-0.2,0.8-0.7,1.1-1c0.7-1,0.6-2-0.3-2.9
	c-1-1-2.2-1.5-4.1-1.9c-5.8-1.2-11.1,0.6-13,4.2c-0.5,0.9-0.9,1.8-0.9,2.9c0,4.2,3.3,6.7,8.3,8c0.6,0.2,1.1,0.3,1.8,0.4
	c3.2,0.7,6.2,0.3,8.3-1.4c0.7-0.6,0.7-1.8-0.2-2.3c-0.8-0.4-1.2-0.5-2.4-0.5c-0.5,0-1,0.1-1.2,0.3c1.7,0.3,1.7,2.4-0.5,2.4
	c-3.9,0-3.2-4.2,2.4-4.2c2,0,3.9,1,4.5,2.1c0.8,1.3-0.3,3.3-1.9,4.1c-0.6,0.3-1.8,0.9-2.5,1v0.1c1.3,0.2,2.9,1.1,3.6,1.8
	c0.6,0.6,0.8,1.1,1,1.9c0.3,1.5-0.9,2.5-2.8,3.1c-0.5,0.2-1.4,0.4-2.1,0.4c-2.9,0-6.1-2-4.1-3.7c1.5-1.2,4.8-0.1,3.3,1.4
	c-0.2,0.2-0.6,0.4-0.8,0.6c3.3,1.1,6.3-1.5,2.4-3.5c-2.8-1.4-6.4-0.8-9.3,0.1c-2,0.6-3.4,1.2-4.8,2.2c-0.3,0.2-0.5,0.4-0.7,0.6
	c-2.4,2.3-2.7,5.3-1.3,7.9c0.5,1,1.1,1.6,2,2.3c0.8,0.6,1.9,1.3,3.1,1.7c0.9,0.3,3.4,0.7,4.8,0.7c1.9,0,4.2-0.6,5.4-1
	c1.5-0.5,2.6-1.7,2.6-2.9c0-1.3-1.5-2.5-3.1-3c-1.4-0.4-3.1-0.5-4.4,0c-0.6,0.3-1.1,0.7-1.1,1.3c0.7-0.2,1-0.3,1.8-0.3
	c2.3,0,3.1,2.6,0.8,3.3c-1.6,0.5-4,0.1-5-0.8c-1.6-1.4-0.9-3.5,1.2-4.5c1.4-0.7,3.2-1.1,5.3-1.1c0.7,0,2.3,0.3,2.9,0.5
	c0.9,0.2,1.6,0.6,2.2,1s1.1,0.9,1.5,1.4c0.4,0.6,0.6,1.3,0.7,2v0.5c-0.1,1.2-0.8,2.4-2,3.3c-1.8,1.3-4.9,2.3-8.3,2.3
	c-0.8,0-1.3,0-2.1-0.1c-0.6,0-1.4-0.2-2-0.2c0.8,0.7,4.2,2.6,5.4,3.4c3.6,2.6,8.6,6.2,8.6,9.7c0,1.1-0.2,2.3-0.9,3.2
	c-0.3,0.4-0.5,0.7-0.8,1c-0.2,0.2-0.3,0.3-0.5,0.4c-1.4,1-2.8,1.9-5,2.1l-1.5,0.2c-0.1,0-0.4,0.1-0.4,0.1c-0.5,0-1.7,0-2-0.1
	c-2.7-0.6-4.9-1.1-6.2-3c-1.1-1.4-1.2-3.2,0.2-4.5c2.6-2.6,8.1-1.7,8.1,0.6c0,0.6-0.2,1.1-0.9,1.6c-1,0.6-2.4,0.7-3.6,0.3
	c-0.8-0.2-0.5-0.4-1-0.6c-1.3,1.5,1,3.6,4.6,3.6c2.1,0,3.5-0.5,4.9-1.4c0.6-0.4,1.1-0.9,1.4-1.4c1.2-2,0.1-4.3-1.7-5.9
	c-1.2-1.1-2.4-2.2-3.7-3.1L366,506c0,2.8-1.3,5.1-4.9,6.3c-4,1.4-9.1,0.9-11.8-1.4c-2.5-2.1-2.1-5.3,1.5-6.7c1.6-0.6,5-0.8,6.4,0.3
	c1.6,1.2,1.6,3.4-1.5,3.5c-1.4,0-2.9-0.7-2.9-1.6c0-0.3,0.2-0.4,0.3-0.6c-0.4,0.1-0.7,0.1-1.2,0.3c-2.2,0.8-2,3.4,0.2,4.5
	c2.7,1.4,9,1.4,10.7-2.1c1-2.1,0.6-3.1-0.4-5.1c-0.5-0.9-0.9-1.9-1.3-2.9c-1.5-3.5-1.8-8.2,2.4-11c1.3-0.9,2.2-1.5,4-2.2
	c0.6-0.2,1.2-0.5,1.9-0.6c0.3-0.1,0.7-0.2,1-0.3c0.3-0.1,0.8-0.1,1.1-0.3c-1.1-0.1-3.1-0.8-4-1.1c-1.8-0.7-3.3-1.6-4.6-2.7
	c-0.9-0.7-1.5-1.5-2-2.4c-3-5.5,2.6-11.2,2.6-14.1c0-1.2-0.7-2.5-1.7-3.4c-2.3-2.1-9.3-2.1-11,0.6c-0.5,0.8-0.6,1.4-0.1,2.2
	c0.4,0.7,1.2,1.2,2.5,1.3c-0.1-0.1-0.3-0.3-0.3-0.5c0-1.5,3.3-2.1,4.8-1.1s0.4,2.9-1.5,3.5c-0.6,0.2-1.5,0.2-2.3,0.2
	c-5.9,0-7.7-4.7-4.5-7.2l1.1-0.7C351.6,459.9,353.6,459.2,356.3,459.2"/>
<path class="st0" d="M342.3,483c2.9,0,3.4,0.3,6,0.9c0.8,0.2,1.5,0.4,2.3,0.6c2.7,0.5,5,0.9,7.9,1.2l5.8,0.5
	c-0.1,0.2-0.3,0.2-1.3,0.2c-0.6,0.1-0.9,0.1-1.4,0.1c-2.6,0.2-6,0.7-8.5,1.1c-1.8,0.3-3.7,0.6-5.3,1c-4,0.8-8.1,1.5-11.1-0.8
	c-0.6-0.5-0.7-1-0.7-1.6l0,0C336,484.2,339.5,483,342.3,483"/>
<path class="st0" d="M361.8,488.4c-0.2,0.2-0.2,0.1-0.4,0.3c-0.2,0.1-0.3,0.2-0.5,0.3c-0.8,0.5-2.2,1.1-2.9,1.6
	c-4.5,3.4-3,3.6-5.2,5.9c-0.8,0.8-2.2,2.1-4.1,2.1c-1.7,0-2.8-1-2.8-1.8c0-1.3,0.2-1.8,1.5-2.9c2.9-2.4,7.3-3.8,11.7-4.8
	C359.6,488.8,361.2,488.4,361.8,488.4"/>
<path class="st0" d="M348.6,474.3c1.3,0,1.9,0.2,2.7,0.7c1.4,0.9,2,1.7,2.7,2.9c0.2,0.3,0.3,0.5,0.5,0.8s0.4,0.5,0.6,0.8
	c0.5,0.8,1.3,1.4,2.1,2.1l0.9,0.6c0.3,0.2,0.6,0.4,0.9,0.6l2.5,1.3c0.3,0.1,0.3,0.1,0.4,0.3c-0.8-0.1-1.9-0.4-2.6-0.6
	c-2.8-0.7-4.6-1.2-7.1-2.2c-2.1-0.9-6.2-3-6.2-5C345.9,475.5,346.6,474.3,348.6,474.3"/>
<polyline class="st1" points="273,547.6 87.6,547.6 87.6,159.3 "/>
<polyline class="st1" points="197.6,49.4 382.9,49.4 382.9,436 "/>
<text transform="matrix(1 0 0 1 152.3262 146.9531)" class="st2 st3">Sábado</text>
<text transform="matrix(1 0 0 1 141.2262 317.9531)" class="st4 st5 st6">14</text>
<text transform="matrix(1 0 0 1 121.7309 369.9531)" class="st7"><tspan x="0" y="0" class="st2 st8">Diciembre  2024</tspan><tspan x="22.3" y="80.4" class="st2 st9">17:45h</tspan></text>
</svg>
