<?xml version="1.0" encoding="utf-8"?>
<!-- Generator: Adobe Illustrator 24.1.3, SVG Export Plug-In . SVG Version: 6.00 Build 0)  -->
<svg version="1.1" id="Capa_1" xmlns="http://www.w3.org/2000/svg" xmlns:xlink="http://www.w3.org/1999/xlink" x="0px" y="0px"
	 viewBox="0 0 612 792" style="enable-background:new 0 0 612 792;" xml:space="preserve">
<style type="text/css">
	.st0{fill-rule:evenodd;clip-rule:evenodd;}
	.st1{fill:none;stroke:#201E1E;stroke-width:1.7008;stroke-miterlimit:22.9256;}
	.st2{fill:#201E1E;}
	.st3{fill-rule:evenodd;clip-rule:evenodd;fill:#201E1E;}
	.st4{font-family:'BaskOldFace';}
	.st5{font-size:27.691px;}
	.st6{font-size:13.3542px;}
</style>
<path class="st0" d="M146.5,99.3c-0.7,0-1.5,0.2-1.9,0.3c-0.3,0.1-0.5,0.2-0.7,0.3c-1.3,0.7-1.7,1.5-1.7,2.7
	c-0.3-0.1-3.1-1.9-3.5-2.2l-1.8-1.4c-1.3-1.1-2.2-2.6-0.6-3.8c0.5-0.4,1.4-0.6,2.2-0.6c1.2,0,2.1,0.3,2.3,1c0.1,0.3,0,0.4-0.1,0.6
	c0,0,0,0,0,0c0,0,0,0,0,0c-0.2-0.1-0.3-0.2-0.5-0.3c-0.9-0.2-2,0.2-2,0.8c0,0.3,0.1,0.7,0.5,0.9c0.8,0.4,1.7,0.4,2.5,0.1
	c1.1-0.4,1.4-1.3,1-2.1c-0.4-0.8-1-1.2-2.2-1.6c-0.4-0.1-0.9-0.2-1.4-0.2h-0.4c-0.6,0-1.2,0.1-1.7,0.3c-0.1,0-0.2,0.1-0.3,0.1
	c-0.7,0.3-1.5,0.9-1.8,1.3c-0.7,1.1-0.4,2.5,0.5,3.5c0.7,0.8,1.6,1.5,2.6,2.2c0.1,0.1,0.1,0.1,0.2,0.2l0.5,0.3c0,0,0,0,0,0l0.1,0.1
	c0.4,0.3,0.9,0.5,1.3,0.8l0.4,0.3c0.2,0.1,0.3,0.2,0.5,0.3c-0.9,0-0.7-0.1-2.1-0.1c-2.2,0-4.6,1.1-4.6,2.6c0,0.8,0.2,1.4,1,1.9
	c0.6,0.4,1.7,0.6,2.5,0.6c1.1,0,2.4-0.4,2.9-0.9c0.5-0.6,0.5-1.2-0.2-1.8c-0.7-0.5-2.9-0.6-2.9,0.5c0,0.2,0.1,0.4,0.3,0.5
	c0.2,0.2,0.5,0.3,1,0.3c0.3,0,0.4-0.1,0.6-0.1c-0.1,0.6-0.8,0.8-1.7,0.8c-0.6,0-1.2-0.3-1.6-0.5c-0.2-0.1-0.4-0.3-0.5-0.4
	c-0.3-0.5-0.3-0.9,0.1-1.4c0.5-0.5,1-0.7,1.9-0.9c2.7-0.6,5.1,0.3,6,2c0.2,0.4,0.4,0.8,0.4,1.4c0,2-1.5,3.1-3.8,3.7
	c-0.3,0.1-0.5,0.1-0.8,0.2c-1.5,0.3-2.9,0.2-3.8-0.7c-0.3-0.3-0.3-0.8,0.1-1.1c0.4-0.2,0.6-0.2,1.1-0.2c0.3,0,0.5,0.1,0.6,0.2
	c-0.8,0.1-0.8,1.1,0.2,1.1c1.8,0,1.5-2-1.1-2c-0.9,0-1.8,0.5-2.1,1c-0.4,0.6,0.1,1.5,0.9,1.9c0.3,0.1,0.8,0.4,1.2,0.4v0.1
	c-0.6,0.1-1.4,0.5-1.7,0.8c-0.3,0.3-0.4,0.5-0.5,0.9c-0.1,0.7,0.4,1.2,1.3,1.4c0.3,0.1,0.6,0.2,1,0.2c1.4,0,2.8-0.9,1.9-1.7
	c-0.7-0.6-2.2-0.1-1.5,0.6c0.1,0.1,0.3,0.2,0.3,0.3c-1.5,0.5-2.9-0.7-1.1-1.6c1.3-0.6,3-0.4,4.3,0c0.9,0.3,1.6,0.6,2.2,1
	c0.1,0.1,0.2,0.2,0.3,0.3c1.1,1.1,1.2,2.5,0.6,3.7c-0.3,0.5-0.5,0.7-0.9,1.1c-0.4,0.3-0.9,0.6-1.4,0.8c-0.4,0.1-1.6,0.3-2.2,0.3
	c-0.9,0-1.9-0.3-2.5-0.5c-0.7-0.3-1.2-0.8-1.2-1.3c0-0.6,0.7-1.2,1.4-1.4c0.7-0.2,1.4-0.3,2.1,0c0.3,0.1,0.5,0.3,0.5,0.6
	c-0.3-0.1-0.5-0.1-0.8-0.1c-1.1,0-1.5,1.2-0.4,1.5c0.8,0.2,1.8,0.1,2.3-0.4c0.8-0.7,0.4-1.6-0.5-2.1c-0.7-0.3-1.5-0.5-2.4-0.5
	c-0.3,0-1.1,0.1-1.3,0.2c-0.4,0.1-0.7,0.3-1,0.4c-0.3,0.2-0.5,0.4-0.7,0.7c-0.2,0.3-0.3,0.6-0.3,0.9v0.2c0,0.6,0.3,1.1,0.9,1.5
	c0.8,0.6,2.3,1.1,3.8,1.1c0.4,0,0.6,0,1,0c0.3,0,0.7-0.1,0.9-0.1c-0.3,0.3-1.9,1.2-2.5,1.6c-1.7,1.2-4,2.9-4,4.5
	c0,0.5,0.1,1.1,0.4,1.5c0.1,0.2,0.2,0.3,0.4,0.4c0.1,0.1,0.1,0.1,0.2,0.2c0.7,0.4,1.3,0.9,2.3,1l0.7,0.1c0,0,0.2,0.1,0.2,0.1
	c0.2,0,0.8,0,0.9-0.1c1.2-0.3,2.3-0.5,2.9-1.4c0.5-0.7,0.5-1.5-0.1-2.1c-1.2-1.2-3.8-0.8-3.8,0.3c0,0.3,0.1,0.5,0.4,0.7
	c0.5,0.3,1.1,0.3,1.7,0.2c0.4-0.1,0.3-0.2,0.5-0.3c0.6,0.7-0.5,1.7-2.1,1.7c-1,0-1.6-0.2-2.3-0.6c-0.3-0.2-0.5-0.4-0.6-0.6
	c-0.6-0.9,0-2,0.8-2.7c0.5-0.5,1.1-1,1.7-1.5l4-2.6c0,1.3,0.6,2.4,2.3,2.9c1.9,0.6,4.2,0.4,5.5-0.7c1.2-1,1-2.5-0.7-3.1
	c-0.8-0.3-2.3-0.4-3,0.1c-0.7,0.5-0.7,1.6,0.7,1.6c0.6,0,1.3-0.3,1.3-0.7c0-0.1-0.1-0.2-0.1-0.3c0.2,0.1,0.3,0,0.6,0.1
	c1,0.4,0.9,1.6-0.1,2.1c-1.2,0.7-4.2,0.6-5-1c-0.5-1-0.3-1.4,0.2-2.4c0.2-0.4,0.4-0.9,0.6-1.3c0.7-1.6,0.8-3.8-1.1-5.1
	c-0.6-0.4-1-0.7-1.8-1c-0.3-0.1-0.6-0.2-0.9-0.3c-0.2,0-0.3-0.1-0.5-0.1c-0.2,0-0.4-0.1-0.5-0.1c0.5,0,1.4-0.4,1.9-0.5
	c0.8-0.3,1.5-0.8,2.1-1.2c0.4-0.3,0.7-0.7,0.9-1.1c1.4-2.6-1.2-5.2-1.2-6.5c0-0.6,0.3-1.2,0.8-1.6c1.1-1,4.3-1,5.1,0.3
	c0.2,0.4,0.3,0.6,0,1c-0.2,0.3-0.6,0.6-1.1,0.6c0.1-0.1,0.1-0.1,0.1-0.2c0-0.7-1.5-1-2.2-0.5c-0.7,0.5-0.2,1.4,0.7,1.6
	c0.3,0.1,0.7,0.1,1,0.1c2.8,0,3.6-2.2,2.1-3.4l-0.5-0.3C148.6,99.6,147.7,99.3,146.5,99.3"/>
<path class="st0" d="M152.9,110.4c-1.3,0-1.6,0.1-2.8,0.4c-0.4,0.1-0.7,0.2-1.1,0.3c-1.2,0.3-2.3,0.4-3.7,0.5l-2.7,0.2
	c0.1,0.1,0.1,0.1,0.6,0.1c0.3,0,0.4,0,0.7,0.1c1.2,0.1,2.8,0.3,4,0.5c0.8,0.1,1.7,0.3,2.5,0.4c1.9,0.4,3.8,0.7,5.2-0.4
	c0.3-0.2,0.3-0.5,0.3-0.7v0C155.9,110.9,154.3,110.4,152.9,110.4"/>
<path class="st0" d="M143.9,112.9c0.1,0.1,0.1,0.1,0.2,0.1c0.1,0.1,0.1,0.1,0.2,0.1c0.4,0.2,1,0.5,1.3,0.8c2.1,1.6,1.4,1.7,2.4,2.7
	c0.4,0.4,1,1,1.9,1c0.8,0,1.3-0.5,1.3-0.8c0-0.6-0.1-0.9-0.7-1.3c-1.3-1.1-3.4-1.7-5.4-2.2C144.9,113.1,144.2,112.9,143.9,112.9"/>
<path class="st0" d="M150,106.3c-0.6,0-0.9,0.1-1.2,0.3c-0.7,0.4-0.9,0.8-1.3,1.3c-0.1,0.1-0.1,0.2-0.2,0.4
	c-0.1,0.1-0.2,0.2-0.3,0.4c-0.2,0.4-0.6,0.7-1,1l-0.4,0.3c-0.1,0.1-0.3,0.2-0.4,0.3l-1.1,0.6c-0.1,0.1-0.1,0-0.2,0.2
	c0.4-0.1,0.9-0.2,1.2-0.3c1.3-0.3,2.1-0.5,3.3-1c1-0.4,2.9-1.4,2.9-2.3C151.3,106.9,151,106.3,150,106.3"/>
<path class="st0" d="M174.5,96.9c0-0.7-0.2-1.5-0.3-1.9c-0.1-0.3-0.2-0.5-0.3-0.7c-0.7-1.3-1.5-1.7-2.7-1.7c0.1-0.3,1.9-3.1,2.2-3.5
	l1.4-1.8c1.1-1.3,2.6-2.2,3.8-0.6c0.4,0.5,0.6,1.4,0.6,2.2c0,1.2-0.3,2.1-1,2.3c-0.3,0.1-0.4,0-0.6-0.1c0,0,0,0,0,0c0,0,0,0,0,0
	c0.1-0.2,0.2-0.3,0.3-0.5c0.2-0.9-0.2-2-0.8-2c-0.3,0-0.7,0.1-0.9,0.5c-0.4,0.8-0.4,1.7-0.1,2.5c0.4,1.1,1.3,1.4,2.1,1
	c0.8-0.4,1.2-1,1.6-2.2c0.1-0.4,0.2-0.9,0.2-1.4v-0.4c0-0.6-0.1-1.2-0.3-1.7c0-0.1-0.1-0.2-0.1-0.3c-0.3-0.7-0.9-1.5-1.3-1.8
	c-1.1-0.7-2.5-0.4-3.5,0.5c-0.8,0.7-1.5,1.6-2.2,2.6c-0.1,0.1-0.1,0.1-0.2,0.2l-0.3,0.5c0,0,0,0,0,0l-0.1,0.1
	c-0.3,0.4-0.5,0.9-0.8,1.3l-0.3,0.4c-0.1,0.2-0.2,0.3-0.3,0.5c0-0.9,0.1-0.7,0.1-2.1c0-2.2-1.1-4.6-2.6-4.6c-0.8,0-1.4,0.2-1.9,1
	c-0.4,0.6-0.6,1.7-0.6,2.5c0,1.1,0.4,2.4,0.9,2.9c0.6,0.5,1.2,0.5,1.8-0.2c0.5-0.7,0.6-2.9-0.5-2.9c-0.2,0-0.4,0.1-0.5,0.3
	c-0.2,0.2-0.3,0.5-0.3,1c0,0.3,0.1,0.4,0.1,0.6c-0.6-0.1-0.8-0.8-0.8-1.7c0-0.6,0.3-1.2,0.5-1.6c0.1-0.2,0.3-0.4,0.4-0.5
	c0.5-0.3,0.9-0.3,1.4,0.1c0.5,0.5,0.7,1,0.9,1.9c0.6,2.7-0.3,5.1-2,6c-0.4,0.2-0.8,0.4-1.4,0.4c-2,0-3.1-1.5-3.7-3.8
	c-0.1-0.3-0.1-0.5-0.2-0.8c-0.3-1.5-0.2-2.9,0.7-3.8c0.3-0.3,0.8-0.3,1.1,0.1c0.2,0.4,0.2,0.6,0.2,1.1c0,0.3-0.1,0.5-0.2,0.6
	c-0.1-0.8-1.1-0.8-1.1,0.2c0,1.8,2,1.5,2-1.1c0-0.9-0.5-1.8-1-2.1c-0.6-0.4-1.5,0.1-1.9,0.9c-0.1,0.3-0.4,0.8-0.4,1.2H162
	c-0.1-0.6-0.5-1.4-0.8-1.7c-0.3-0.3-0.5-0.4-0.9-0.5c-0.7-0.1-1.2,0.4-1.4,1.3c-0.1,0.3-0.2,0.6-0.2,1c0,1.4,0.9,2.8,1.7,1.9
	c0.6-0.7,0.1-2.2-0.6-1.5c-0.1,0.1-0.2,0.3-0.3,0.3c-0.5-1.5,0.7-2.9,1.6-1.1c0.6,1.3,0.4,3,0,4.3c-0.3,0.9-0.6,1.6-1,2.2
	c-0.1,0.1-0.2,0.2-0.3,0.3c-1.1,1.1-2.5,1.2-3.7,0.6c-0.5-0.3-0.7-0.5-1.1-0.9c-0.3-0.4-0.6-0.9-0.8-1.4c-0.1-0.4-0.3-1.6-0.3-2.2
	c0-0.9,0.3-1.9,0.5-2.5c0.3-0.7,0.8-1.2,1.3-1.2c0.6,0,1.2,0.7,1.4,1.4c0.2,0.7,0.3,1.4,0,2.1c-0.1,0.3-0.3,0.5-0.6,0.5
	c0.1-0.3,0.1-0.5,0.1-0.8c0-1.1-1.2-1.5-1.5-0.4c-0.2,0.8-0.1,1.8,0.4,2.3c0.7,0.8,1.6,0.4,2.1-0.5c0.3-0.7,0.5-1.5,0.5-2.4
	c0-0.3-0.1-1.1-0.2-1.3c-0.1-0.4-0.3-0.7-0.4-1c-0.2-0.3-0.4-0.5-0.7-0.7c-0.3-0.2-0.6-0.3-0.9-0.3h-0.2c-0.6,0-1.1,0.3-1.5,0.9
	c-0.6,0.8-1.1,2.3-1.1,3.8c0,0.4,0,0.6,0,1c0,0.3,0.1,0.7,0.1,0.9c-0.3-0.3-1.2-2-1.6-2.5c-1.2-1.7-2.9-4-4.5-4
	c-0.5,0-1.1,0.1-1.5,0.4c-0.2,0.1-0.3,0.2-0.4,0.4c-0.1,0.1-0.1,0.1-0.2,0.2c-0.4,0.7-0.9,1.3-1,2.3l-0.1,0.7c0,0-0.1,0.2-0.1,0.2
	c0,0.2,0,0.8,0.1,0.9c0.3,1.3,0.5,2.3,1.4,2.9c0.7,0.5,1.5,0.5,2.1-0.1c1.2-1.2,0.8-3.8-0.3-3.8c-0.3,0-0.5,0.1-0.7,0.4
	c-0.3,0.5-0.3,1.1-0.2,1.7c0.1,0.4,0.2,0.3,0.3,0.5c-0.7,0.6-1.7-0.5-1.7-2.1c0-1,0.2-1.6,0.6-2.3c0.2-0.3,0.4-0.5,0.6-0.6
	c0.9-0.6,2,0,2.7,0.8c0.5,0.5,1,1.1,1.5,1.7l2.6,4c-1.3,0-2.4,0.6-2.9,2.3c-0.6,1.9-0.4,4.2,0.7,5.5c1,1.2,2.5,1,3.1-0.7
	c0.3-0.8,0.4-2.3-0.1-3c-0.5-0.7-1.6-0.7-1.6,0.7c0,0.6,0.3,1.3,0.7,1.3c0.1,0,0.2-0.1,0.3-0.1c-0.1,0.2,0,0.3-0.1,0.6
	c-0.4,1-1.6,0.9-2.1-0.1c-0.7-1.2-0.6-4.2,1-5c1-0.5,1.4-0.3,2.4,0.2c0.4,0.2,0.9,0.4,1.3,0.6c1.6,0.7,3.8,0.8,5.1-1.1
	c0.4-0.6,0.7-1,1-1.8c0.1-0.3,0.2-0.6,0.3-0.9c0-0.2,0.1-0.3,0.1-0.5c0-0.2,0.1-0.4,0.1-0.5c0,0.5,0.4,1.4,0.5,1.9
	c0.3,0.8,0.8,1.5,1.2,2.1c0.3,0.4,0.7,0.7,1.1,0.9c2.6,1.4,5.2-1.2,6.5-1.2c0.6,0,1.2,0.3,1.6,0.8c1,1.1,1,4.3-0.3,5.1
	c-0.4,0.2-0.6,0.3-1,0c-0.3-0.2-0.6-0.6-0.6-1.1c0.1,0.1,0.1,0.1,0.2,0.1c0.7,0,1-1.5,0.5-2.2c-0.5-0.7-1.4-0.2-1.6,0.7
	c-0.1,0.3-0.1,0.7-0.1,1c0,2.8,2.2,3.6,3.4,2.1l0.3-0.5C174.2,99.1,174.5,98.2,174.5,96.9"/>
<path class="st0" d="M163.5,103.4c0-1.3-0.1-1.6-0.4-2.8c-0.1-0.4-0.2-0.7-0.3-1.1c-0.3-1.2-0.4-2.3-0.5-3.7l-0.2-2.7
	c-0.1,0.1-0.1,0.1-0.1,0.6c0,0.3,0,0.4-0.1,0.7c-0.1,1.2-0.3,2.8-0.5,4c-0.1,0.8-0.3,1.7-0.4,2.5c-0.4,1.9-0.7,3.8,0.4,5.2
	c0.2,0.3,0.5,0.3,0.7,0.3h0C162.9,106.3,163.5,104.7,163.5,103.4"/>
<path class="st0" d="M161,94.4c-0.1,0.1-0.1,0.1-0.1,0.2c-0.1,0.1-0.1,0.1-0.1,0.2c-0.2,0.4-0.5,1-0.8,1.3c-1.6,2.1-1.7,1.4-2.7,2.4
	c-0.4,0.4-1,1-1,1.9c0,0.8,0.5,1.3,0.8,1.3c0.6,0,0.9-0.1,1.3-0.7c1.1-1.3,1.7-3.4,2.2-5.4C160.8,95.4,161,94.7,161,94.4"/>
<path class="st0" d="M167.5,100.5c0-0.6-0.1-0.9-0.3-1.2c-0.4-0.7-0.8-0.9-1.3-1.3c-0.1-0.1-0.2-0.1-0.4-0.2
	c-0.1-0.1-0.2-0.2-0.4-0.3c-0.4-0.2-0.7-0.6-1-1l-0.3-0.4c-0.1-0.1-0.2-0.3-0.3-0.4l-0.6-1.1c-0.1-0.1,0-0.1-0.2-0.2
	c0.1,0.4,0.2,0.9,0.3,1.2c0.3,1.3,0.5,2.1,1,3.3c0.4,1,1.4,2.9,2.3,2.9C166.9,101.8,167.5,101.4,167.5,100.5"/>
<path class="st0" d="M146.4,661.6c-0.7,0-1.5-0.2-1.9-0.3c-0.3-0.1-0.5-0.2-0.7-0.3c-1.3-0.7-1.7-1.5-1.7-2.7
	c-0.3,0.1-3.1,1.9-3.5,2.2l-1.8,1.4c-1.3,1.1-2.2,2.6-0.6,3.8c0.5,0.4,1.4,0.6,2.2,0.6c1.2,0,2.1-0.3,2.3-1c0.1-0.3,0-0.4-0.1-0.6
	c0,0,0,0,0,0c0,0,0,0,0,0c-0.2,0.1-0.3,0.2-0.5,0.3c-0.9,0.2-2-0.2-2-0.8c0-0.3,0.1-0.7,0.5-0.9c0.8-0.4,1.7-0.4,2.5-0.1
	c1.1,0.4,1.4,1.3,1,2.1c-0.4,0.8-1,1.2-2.2,1.6c-0.4,0.1-0.9,0.2-1.4,0.2H138c-0.6,0-1.2-0.1-1.7-0.3c-0.1,0-0.2-0.1-0.3-0.1
	c-0.7-0.3-1.5-0.9-1.8-1.3c-0.7-1.1-0.4-2.5,0.5-3.5c0.7-0.8,1.6-1.5,2.6-2.2c0.1-0.1,0.1-0.1,0.2-0.2l0.5-0.3c0,0,0,0,0,0l0.1-0.1
	c0.4-0.3,0.9-0.5,1.3-0.8l0.4-0.3c0.2-0.1,0.3-0.2,0.5-0.3c-0.9,0-0.7,0.1-2.1,0.1c-2.2,0-4.6-1.1-4.6-2.6c0-0.8,0.2-1.4,1-1.9
	c0.6-0.4,1.7-0.6,2.5-0.6c1.1,0,2.4,0.4,2.9,0.9c0.5,0.6,0.5,1.2-0.2,1.8c-0.7,0.5-2.9,0.6-2.9-0.5c0-0.2,0.1-0.4,0.3-0.5
	c0.2-0.2,0.5-0.3,1-0.3c0.3,0,0.4,0.1,0.6,0.1c-0.1-0.6-0.8-0.8-1.7-0.8c-0.6,0-1.2,0.3-1.6,0.5c-0.2,0.1-0.4,0.3-0.5,0.4
	c-0.3,0.5-0.3,0.9,0.1,1.4c0.5,0.5,1,0.7,1.9,0.9c2.7,0.6,5.1-0.3,6-2c0.2-0.4,0.4-0.8,0.4-1.4c0-2-1.5-3.1-3.8-3.7
	c-0.3-0.1-0.5-0.1-0.8-0.2c-1.5-0.3-2.9-0.2-3.8,0.7c-0.3,0.3-0.3,0.8,0.1,1.1c0.4,0.2,0.6,0.2,1.1,0.2c0.3,0,0.5-0.1,0.6-0.2
	c-0.8-0.1-0.8-1.1,0.2-1.1c1.8,0,1.5,2-1.1,2c-0.9,0-1.8-0.5-2.1-1c-0.4-0.6,0.1-1.5,0.9-1.9c0.3-0.1,0.8-0.4,1.2-0.4V649
	c-0.6-0.1-1.4-0.5-1.7-0.8c-0.3-0.3-0.4-0.5-0.5-0.9c-0.1-0.7,0.4-1.2,1.3-1.4c0.3-0.1,0.6-0.2,1-0.2c1.4,0,2.8,0.9,1.9,1.7
	c-0.7,0.6-2.2,0.1-1.5-0.6c0.1-0.1,0.3-0.2,0.3-0.3c-1.5-0.5-2.9,0.7-1.1,1.6c1.3,0.6,3,0.4,4.3,0c0.9-0.3,1.6-0.6,2.2-1
	c0.1-0.1,0.2-0.2,0.3-0.3c1.1-1.1,1.2-2.5,0.6-3.7c-0.3-0.5-0.5-0.7-0.9-1.1c-0.4-0.3-0.9-0.6-1.4-0.8c-0.4-0.1-1.6-0.3-2.2-0.3
	c-0.9,0-1.9,0.3-2.5,0.5c-0.7,0.3-1.2,0.8-1.2,1.3c0,0.6,0.7,1.2,1.4,1.4c0.7,0.2,1.4,0.3,2.1,0c0.3-0.1,0.5-0.3,0.5-0.6
	c-0.3,0.1-0.5,0.1-0.8,0.1c-1.1,0-1.5-1.2-0.4-1.5c0.8-0.2,1.8-0.1,2.3,0.4c0.8,0.7,0.4,1.6-0.5,2.1c-0.7,0.3-1.5,0.5-2.4,0.5
	c-0.3,0-1.1-0.1-1.3-0.2c-0.4-0.1-0.7-0.3-1-0.4c-0.3-0.2-0.5-0.4-0.7-0.7c-0.2-0.3-0.3-0.6-0.3-0.9v-0.2c0-0.6,0.3-1.1,0.9-1.5
	c0.8-0.6,2.3-1.1,3.8-1.1c0.4,0,0.6,0,1,0c0.3,0,0.7,0.1,0.9,0.1c-0.3-0.3-1.9-1.2-2.5-1.6c-1.7-1.2-4-2.9-4-4.5
	c0-0.5,0.1-1.1,0.4-1.5c0.1-0.2,0.2-0.3,0.4-0.4c0.1-0.1,0.1-0.1,0.2-0.2c0.7-0.4,1.3-0.9,2.3-1l0.7-0.1c0,0,0.2-0.1,0.2-0.1
	c0.2,0,0.8,0,0.9,0.1c1.2,0.3,2.3,0.5,2.9,1.4c0.5,0.7,0.5,1.5-0.1,2.1c-1.2,1.2-3.8,0.8-3.8-0.3c0-0.3,0.1-0.5,0.4-0.7
	c0.5-0.3,1.1-0.3,1.7-0.2c0.4,0.1,0.3,0.2,0.5,0.3c0.6-0.7-0.5-1.7-2.1-1.7c-1,0-1.6,0.2-2.3,0.6c-0.3,0.2-0.5,0.4-0.6,0.6
	c-0.6,0.9,0,2,0.8,2.7c0.5,0.5,1.1,1,1.7,1.5l4,2.6c0-1.3,0.6-2.4,2.3-2.9c1.9-0.6,4.2-0.4,5.5,0.7c1.2,1,1,2.5-0.7,3.1
	c-0.8,0.3-2.3,0.4-3-0.1c-0.7-0.5-0.7-1.6,0.7-1.6c0.6,0,1.3,0.3,1.3,0.7c0,0.1-0.1,0.2-0.1,0.3c0.2-0.1,0.3,0,0.6-0.1
	c1-0.4,0.9-1.6-0.1-2.1c-1.2-0.7-4.2-0.6-5,1c-0.5,1-0.3,1.4,0.2,2.4c0.2,0.4,0.4,0.9,0.6,1.3c0.7,1.6,0.8,3.8-1.1,5.1
	c-0.6,0.4-1,0.7-1.8,1c-0.3,0.1-0.6,0.2-0.9,0.3c-0.2,0-0.3,0.1-0.5,0.1c-0.2,0-0.4,0.1-0.5,0.1c0.5,0,1.4,0.4,1.9,0.5
	c0.8,0.3,1.5,0.8,2.1,1.2c0.4,0.3,0.7,0.7,0.9,1.1c1.4,2.6-1.2,5.2-1.2,6.5c0,0.6,0.3,1.2,0.8,1.6c1.1,1,4.3,1,5.1-0.3
	c0.2-0.4,0.3-0.6,0-1c-0.2-0.3-0.6-0.6-1.1-0.6c0.1,0.1,0.1,0.1,0.1,0.2c0,0.7-1.5,1-2.2,0.5c-0.7-0.5-0.2-1.4,0.7-1.6
	c0.3-0.1,0.7-0.1,1-0.1c2.8,0,3.6,2.2,2.1,3.4l-0.5,0.3C148.6,661.3,147.6,661.6,146.4,661.6"/>
<path class="st0" d="M152.9,650.6c-1.3,0-1.6-0.1-2.8-0.4c-0.4-0.1-0.7-0.2-1.1-0.3c-1.2-0.3-2.3-0.4-3.7-0.5l-2.7-0.2
	c0.1-0.1,0.1-0.1,0.6-0.1c0.3,0,0.4,0,0.7-0.1c1.2-0.1,2.8-0.3,3.9-0.5c0.8-0.1,1.7-0.3,2.5-0.4c1.9-0.4,3.8-0.7,5.2,0.4
	c0.3,0.2,0.3,0.5,0.3,0.7v0C155.8,650,154.2,650.6,152.9,650.6"/>
<path class="st0" d="M143.8,648.1c0.1-0.1,0.1-0.1,0.2-0.1c0.1-0.1,0.1-0.1,0.2-0.1c0.4-0.2,1-0.5,1.3-0.8c2.1-1.6,1.4-1.7,2.4-2.7
	c0.4-0.4,1-1,1.9-1c0.8,0,1.3,0.5,1.3,0.8c0,0.6-0.1,0.9-0.7,1.3c-1.3,1.1-3.4,1.7-5.4,2.2C144.8,647.9,144.1,648,143.8,648.1"/>
<path class="st0" d="M150,654.6c-0.6,0-0.9-0.1-1.2-0.3c-0.7-0.4-0.9-0.8-1.3-1.3c-0.1-0.1-0.1-0.2-0.2-0.4
	c-0.1-0.1-0.2-0.2-0.3-0.4c-0.2-0.4-0.6-0.7-1-1l-0.4-0.3c-0.1-0.1-0.3-0.2-0.4-0.3l-1.1-0.6c-0.1-0.1-0.1,0-0.2-0.2
	c0.4,0.1,0.9,0.2,1.2,0.3c1.3,0.3,2.1,0.5,3.3,1c1,0.4,2.9,1.4,2.9,2.3C151.2,654,150.9,654.6,150,654.6"/>
<path class="st0" d="M174.4,664c0,0.7-0.2,1.5-0.3,1.9c-0.1,0.3-0.2,0.5-0.3,0.7c-0.7,1.3-1.5,1.7-2.7,1.7c0.1,0.3,1.9,3.1,2.2,3.5
	l1.4,1.8c1.1,1.3,2.6,2.2,3.8,0.6c0.4-0.5,0.6-1.4,0.6-2.2c0-1.2-0.3-2.1-1-2.3c-0.3-0.1-0.4,0-0.6,0.1c0,0,0,0,0,0c0,0,0,0,0,0
	c0.1,0.2,0.2,0.3,0.3,0.5c0.2,0.9-0.2,2-0.8,2c-0.3,0-0.7-0.1-0.9-0.5c-0.4-0.8-0.4-1.7-0.1-2.5c0.4-1.1,1.3-1.4,2.1-1
	c0.8,0.4,1.2,1,1.6,2.2c0.1,0.4,0.2,0.9,0.2,1.4v0.4c0,0.6-0.1,1.2-0.3,1.7c0,0.1-0.1,0.2-0.1,0.3c-0.3,0.7-0.9,1.5-1.3,1.8
	c-1.1,0.7-2.5,0.4-3.5-0.5c-0.8-0.7-1.5-1.6-2.2-2.6c-0.1-0.1-0.1-0.1-0.2-0.2l-0.3-0.5c0,0,0,0,0,0l-0.1-0.1
	c-0.3-0.4-0.5-0.9-0.8-1.3l-0.3-0.4c-0.1-0.2-0.2-0.3-0.3-0.5c0,0.9,0.1,0.7,0.1,2.1c0,2.2-1.1,4.6-2.6,4.6c-0.8,0-1.4-0.2-1.9-1
	c-0.4-0.6-0.6-1.7-0.6-2.5c0-1.1,0.4-2.4,0.9-2.9c0.6-0.5,1.2-0.5,1.8,0.2c0.5,0.7,0.6,2.9-0.5,2.9c-0.2,0-0.4-0.1-0.5-0.3
	c-0.2-0.2-0.3-0.5-0.3-1c0-0.3,0.1-0.4,0.1-0.6c-0.6,0.1-0.8,0.8-0.8,1.7c0,0.6,0.3,1.2,0.5,1.6c0.1,0.2,0.3,0.4,0.4,0.5
	c0.5,0.3,0.9,0.3,1.4-0.1c0.5-0.5,0.7-1,0.9-1.9c0.6-2.7-0.3-5.1-2-6c-0.4-0.2-0.8-0.4-1.4-0.4c-2,0-3.1,1.5-3.7,3.8
	c-0.1,0.3-0.1,0.5-0.2,0.8c-0.3,1.5-0.2,2.9,0.7,3.8c0.3,0.3,0.8,0.3,1.1-0.1c0.2-0.4,0.2-0.6,0.2-1.1c0-0.3-0.1-0.5-0.2-0.6
	c-0.1,0.8-1.1,0.8-1.1-0.2c0-1.8,2-1.5,2,1.1c0,0.9-0.5,1.8-1,2.1c-0.6,0.4-1.5-0.1-1.9-0.9c-0.1-0.3-0.4-0.8-0.4-1.2h-0.1
	c-0.1,0.6-0.5,1.4-0.8,1.7c-0.3,0.3-0.5,0.4-0.9,0.5c-0.7,0.1-1.2-0.4-1.4-1.3c-0.1-0.3-0.2-0.6-0.2-1c0-1.4,0.9-2.8,1.7-1.9
	c0.6,0.7,0.1,2.2-0.6,1.5c-0.1-0.1-0.2-0.3-0.3-0.3c-0.5,1.5,0.7,2.9,1.6,1.1c0.6-1.3,0.4-3,0-4.3c-0.3-0.9-0.6-1.6-1-2.2
	c-0.1-0.1-0.2-0.2-0.3-0.3c-1.1-1.1-2.5-1.2-3.7-0.6c-0.5,0.3-0.7,0.5-1.1,0.9c-0.3,0.4-0.6,0.9-0.8,1.4c-0.1,0.4-0.3,1.6-0.3,2.2
	c0,0.9,0.3,1.9,0.5,2.5c0.3,0.7,0.8,1.2,1.3,1.2c0.6,0,1.2-0.7,1.4-1.4c0.2-0.7,0.3-1.4,0-2.1c-0.1-0.3-0.3-0.5-0.6-0.5
	c0.1,0.3,0.1,0.5,0.1,0.8c0,1.1-1.2,1.5-1.5,0.4c-0.2-0.8-0.1-1.8,0.4-2.3c0.7-0.8,1.6-0.4,2.1,0.5c0.3,0.7,0.5,1.5,0.5,2.4
	c0,0.3-0.1,1.1-0.2,1.3c-0.1,0.4-0.3,0.7-0.4,1c-0.2,0.3-0.4,0.5-0.7,0.7c-0.3,0.2-0.6,0.3-0.9,0.3h-0.2c-0.6,0-1.1-0.3-1.5-0.9
	c-0.6-0.8-1.1-2.3-1.1-3.8c0-0.4,0-0.6,0-1c0-0.3,0.1-0.7,0.1-0.9c-0.3,0.3-1.2,1.9-1.6,2.5c-1.2,1.7-2.9,4-4.5,4
	c-0.5,0-1.1-0.1-1.5-0.4c-0.2-0.1-0.3-0.2-0.4-0.4c-0.1-0.1-0.1-0.1-0.2-0.2c-0.4-0.7-0.9-1.3-1-2.3l-0.1-0.7c0,0-0.1-0.2-0.1-0.2
	c0-0.2,0-0.8,0.1-0.9c0.3-1.3,0.5-2.3,1.4-2.9c0.7-0.5,1.5-0.5,2.1,0.1c1.2,1.2,0.8,3.8-0.3,3.8c-0.3,0-0.5-0.1-0.7-0.4
	c-0.3-0.5-0.3-1.1-0.2-1.7c0.1-0.4,0.2-0.3,0.3-0.5c-0.7-0.6-1.7,0.5-1.7,2.1c0,1,0.2,1.6,0.6,2.3c0.2,0.3,0.4,0.5,0.6,0.6
	c0.9,0.6,2,0,2.7-0.8c0.5-0.5,1-1.1,1.5-1.7l2.6-4c-1.3,0-2.4-0.6-2.9-2.3c-0.6-1.9-0.4-4.2,0.7-5.5c1-1.2,2.5-1,3.1,0.7
	c0.3,0.8,0.4,2.3-0.1,3c-0.5,0.7-1.6,0.7-1.6-0.7c0-0.6,0.3-1.3,0.7-1.3c0.1,0,0.2,0.1,0.3,0.1c-0.1-0.2,0-0.3-0.1-0.6
	c-0.4-1-1.6-0.9-2.1,0.1c-0.7,1.2-0.6,4.2,1,5c1,0.5,1.4,0.3,2.4-0.2c0.4-0.2,0.9-0.4,1.3-0.6c1.6-0.7,3.8-0.8,5.1,1.1
	c0.4,0.6,0.7,1,1,1.8c0.1,0.3,0.2,0.6,0.3,0.9c0,0.2,0.1,0.3,0.1,0.5c0,0.2,0.1,0.4,0.1,0.5c0-0.5,0.4-1.4,0.5-1.9
	c0.3-0.8,0.8-1.5,1.2-2.1c0.3-0.4,0.7-0.7,1.1-0.9c2.6-1.4,5.2,1.2,6.5,1.2c0.6,0,1.2-0.3,1.6-0.8c1-1.1,1-4.3-0.3-5.1
	c-0.4-0.2-0.6-0.3-1,0c-0.3,0.2-0.6,0.6-0.6,1.1c0.1-0.1,0.1-0.1,0.2-0.1c0.7,0,1,1.5,0.5,2.2c-0.5,0.7-1.4,0.2-1.6-0.7
	c-0.1-0.3-0.1-0.7-0.1-1c0-2.8,2.2-3.6,3.4-2.1l0.3,0.5C174.1,661.8,174.4,662.7,174.4,664"/>
<path class="st0" d="M163.4,657.5c0,1.3-0.1,1.6-0.4,2.8c-0.1,0.4-0.2,0.7-0.3,1.1c-0.3,1.2-0.4,2.3-0.5,3.7l-0.2,2.7
	c-0.1-0.1-0.1-0.1-0.1-0.6c0-0.3,0-0.4-0.1-0.7c-0.1-1.2-0.3-2.8-0.5-4c-0.1-0.8-0.3-1.7-0.4-2.5c-0.4-1.9-0.7-3.8,0.4-5.2
	c0.2-0.3,0.5-0.3,0.7-0.3h0C162.9,654.6,163.4,656.2,163.4,657.5"/>
<path class="st0" d="M160.9,666.6c-0.1-0.1-0.1-0.1-0.1-0.2c-0.1-0.1-0.1-0.1-0.1-0.2c-0.2-0.4-0.5-1-0.8-1.3
	c-1.6-2.1-1.7-1.4-2.7-2.4c-0.4-0.4-1-1-1-1.9c0-0.8,0.5-1.3,0.8-1.3c0.6,0,0.9,0.1,1.3,0.7c1.1,1.3,1.7,3.4,2.2,5.4
	C160.7,665.5,160.9,666.3,160.9,666.6"/>
<path class="st0" d="M167.4,660.4c0,0.6-0.1,0.9-0.3,1.2c-0.4,0.7-0.8,0.9-1.3,1.3c-0.1,0.1-0.2,0.1-0.4,0.2
	c-0.1,0.1-0.2,0.2-0.4,0.3c-0.4,0.2-0.7,0.6-1,1l-0.3,0.4c-0.1,0.1-0.2,0.3-0.3,0.4l-0.6,1.1c-0.1,0.1,0,0.1-0.2,0.2
	c0.1-0.4,0.2-0.9,0.3-1.2c0.3-1.3,0.5-2.1,1-3.3c0.4-1,1.4-2.9,2.3-2.9C166.9,659.2,167.4,659.5,167.4,660.4"/>
<path class="st0" d="M460.8,99.4c0.7,0,1.5,0.2,1.9,0.3c0.3,0.1,0.5,0.2,0.7,0.3c1.3,0.7,1.7,1.5,1.7,2.7c0.3-0.1,3.1-1.9,3.5-2.2
	l1.8-1.4c1.3-1.1,2.2-2.6,0.6-3.8c-0.5-0.4-1.4-0.6-2.2-0.6c-1.2,0-2.1,0.3-2.3,1c-0.1,0.3,0,0.4,0.1,0.6c0,0,0,0,0,0c0,0,0,0,0,0
	c0.2-0.1,0.3-0.2,0.5-0.3c0.9-0.2,2,0.2,2,0.8c0,0.3-0.1,0.7-0.5,0.9c-0.8,0.4-1.7,0.4-2.5,0.1c-1.1-0.4-1.4-1.3-1-2.1
	c0.4-0.8,1-1.2,2.2-1.6c0.4-0.1,0.9-0.2,1.4-0.2h0.4c0.6,0,1.2,0.1,1.7,0.3c0.1,0,0.2,0.1,0.3,0.1c0.7,0.3,1.5,0.9,1.8,1.3
	c0.7,1.1,0.4,2.5-0.5,3.5c-0.7,0.8-1.6,1.5-2.6,2.2c-0.1,0.1-0.1,0.1-0.2,0.2l-0.5,0.3c0,0,0,0,0,0l-0.1,0.1
	c-0.4,0.3-0.9,0.5-1.3,0.8l-0.4,0.3c-0.2,0.1-0.3,0.2-0.5,0.3c0.9,0,0.7-0.1,2.1-0.1c2.2,0,4.6,1.1,4.6,2.6c0,0.8-0.2,1.4-1,1.9
	c-0.6,0.4-1.7,0.6-2.5,0.6c-1.1,0-2.4-0.4-2.9-0.9c-0.5-0.6-0.5-1.2,0.2-1.8c0.7-0.5,2.9-0.6,2.9,0.5c0,0.2-0.1,0.4-0.3,0.5
	c-0.2,0.2-0.5,0.3-1,0.3c-0.3,0-0.4-0.1-0.6-0.1c0.1,0.6,0.8,0.8,1.7,0.8c0.6,0,1.2-0.3,1.6-0.5c0.2-0.1,0.4-0.3,0.5-0.4
	c0.3-0.5,0.3-0.9-0.1-1.4c-0.5-0.5-1-0.7-1.9-0.9c-2.7-0.6-5.1,0.3-6,2c-0.2,0.4-0.4,0.8-0.4,1.4c0,2,1.5,3.1,3.8,3.7
	c0.3,0.1,0.5,0.1,0.8,0.2c1.5,0.3,2.9,0.2,3.8-0.7c0.3-0.3,0.3-0.8-0.1-1.1c-0.4-0.2-0.6-0.2-1.1-0.2c-0.3,0-0.5,0.1-0.6,0.2
	c0.8,0.1,0.8,1.1-0.2,1.1c-1.8,0-1.5-2,1.1-2c0.9,0,1.8,0.5,2.1,1c0.4,0.6-0.1,1.5-0.9,1.9c-0.3,0.1-0.8,0.4-1.2,0.4v0.1
	c0.6,0.1,1.4,0.5,1.7,0.8c0.3,0.3,0.4,0.5,0.5,0.9c0.1,0.7-0.4,1.2-1.3,1.4c-0.3,0.1-0.6,0.2-1,0.2c-1.4,0-2.8-0.9-1.9-1.7
	c0.7-0.6,2.2-0.1,1.5,0.6c-0.1,0.1-0.3,0.2-0.3,0.3c1.5,0.5,2.9-0.7,1.1-1.6c-1.3-0.6-3-0.4-4.3,0c-0.9,0.3-1.6,0.6-2.2,1
	c-0.1,0.1-0.2,0.2-0.3,0.3c-1.1,1.1-1.2,2.5-0.6,3.7c0.3,0.5,0.5,0.7,0.9,1.1c0.4,0.3,0.9,0.6,1.4,0.8c0.4,0.1,1.6,0.3,2.2,0.3
	c0.9,0,1.9-0.3,2.5-0.5c0.7-0.3,1.2-0.8,1.2-1.3c0-0.6-0.7-1.2-1.4-1.4c-0.7-0.2-1.4-0.3-2.1,0c-0.3,0.1-0.5,0.3-0.5,0.6
	c0.3-0.1,0.5-0.1,0.8-0.1c1.1,0,1.5,1.2,0.4,1.5c-0.8,0.2-1.8,0.1-2.3-0.4c-0.8-0.7-0.4-1.6,0.5-2.1c0.7-0.3,1.5-0.5,2.4-0.5
	c0.3,0,1.1,0.1,1.3,0.2c0.4,0.1,0.7,0.3,1,0.4c0.3,0.2,0.5,0.4,0.7,0.7c0.2,0.3,0.3,0.6,0.3,0.9v0.2c0,0.6-0.3,1.1-0.9,1.5
	c-0.8,0.6-2.3,1.1-3.8,1.1c-0.4,0-0.6,0-1,0c-0.3,0-0.7-0.1-0.9-0.1c0.3,0.3,1.9,1.2,2.5,1.6c1.7,1.2,4,2.9,4,4.5
	c0,0.5-0.1,1.1-0.4,1.5c-0.1,0.2-0.2,0.3-0.4,0.4c-0.1,0.1-0.1,0.1-0.2,0.2c-0.7,0.4-1.3,0.9-2.3,1l-0.7,0.1c0,0-0.2,0.1-0.2,0.1
	c-0.2,0-0.8,0-0.9-0.1c-1.3-0.3-2.3-0.5-2.9-1.4c-0.5-0.7-0.5-1.5,0.1-2.1c1.2-1.2,3.8-0.8,3.8,0.3c0,0.3-0.1,0.5-0.4,0.7
	c-0.5,0.3-1.1,0.3-1.7,0.2c-0.4-0.1-0.3-0.2-0.5-0.3c-0.6,0.7,0.5,1.7,2.1,1.7c1,0,1.6-0.2,2.3-0.6c0.3-0.2,0.5-0.4,0.6-0.6
	c0.6-0.9,0-2-0.8-2.7c-0.5-0.5-1.1-1-1.7-1.5l-4-2.6c0,1.3-0.6,2.4-2.3,2.9c-1.9,0.6-4.2,0.4-5.5-0.7c-1.2-1-1-2.5,0.7-3.1
	c0.8-0.3,2.3-0.4,3,0.1c0.7,0.5,0.7,1.6-0.7,1.6c-0.6,0-1.3-0.3-1.3-0.7c0-0.1,0.1-0.2,0.1-0.3c-0.2,0.1-0.3,0-0.6,0.1
	c-1,0.4-0.9,1.6,0.1,2.1c1.2,0.7,4.2,0.6,5-1c0.5-1,0.3-1.4-0.2-2.4c-0.2-0.4-0.4-0.9-0.6-1.3c-0.7-1.6-0.8-3.8,1.1-5.1
	c0.6-0.4,1-0.7,1.8-1c0.3-0.1,0.6-0.2,0.9-0.3c0.2,0,0.3-0.1,0.5-0.1c0.2,0,0.4-0.1,0.5-0.1c-0.5,0-1.4-0.4-1.9-0.5
	c-0.8-0.3-1.5-0.8-2.1-1.2c-0.4-0.3-0.7-0.7-0.9-1.1c-1.4-2.6,1.2-5.2,1.2-6.5c0-0.6-0.3-1.2-0.8-1.6c-1.1-1-4.3-1-5.1,0.3
	c-0.2,0.4-0.3,0.6,0,1c0.2,0.3,0.6,0.6,1.1,0.6c-0.1-0.1-0.1-0.1-0.1-0.2c0-0.7,1.5-1,2.2-0.5c0.7,0.5,0.2,1.4-0.7,1.6
	c-0.3,0.1-0.7,0.1-1,0.1c-2.8,0-3.6-2.2-2.1-3.4l0.5-0.3C458.7,99.7,459.6,99.4,460.8,99.4"/>
<path class="st0" d="M454.4,110.5c1.3,0,1.6,0.1,2.8,0.4c0.4,0.1,0.7,0.2,1.1,0.3c1.2,0.3,2.3,0.4,3.7,0.5l2.7,0.2
	c-0.1,0.1-0.1,0.1-0.6,0.1c-0.3,0-0.4,0-0.7,0.1c-1.2,0.1-2.8,0.3-4,0.5c-0.8,0.1-1.7,0.3-2.5,0.4c-1.9,0.4-3.8,0.7-5.2-0.4
	c-0.3-0.2-0.3-0.5-0.3-0.7v0C451.4,111,453,110.5,454.4,110.5"/>
<path class="st0" d="M463.4,113c-0.1,0.1-0.1,0.1-0.2,0.1c-0.1,0.1-0.1,0.1-0.2,0.1c-0.4,0.2-1,0.5-1.3,0.8
	c-2.1,1.6-1.4,1.7-2.4,2.7c-0.4,0.4-1,1-1.9,1c-0.8,0-1.3-0.5-1.3-0.8c0-0.6,0.1-0.9,0.7-1.3c1.3-1.1,3.4-1.7,5.4-2.2
	C462.4,113.1,463.1,113,463.4,113"/>
<path class="st0" d="M457.3,106.4c0.6,0,0.9,0.1,1.2,0.3c0.7,0.4,0.9,0.8,1.3,1.3c0.1,0.1,0.1,0.2,0.2,0.4c0.1,0.1,0.2,0.2,0.3,0.4
	c0.2,0.4,0.6,0.7,1,1l0.4,0.3c0.1,0.1,0.3,0.2,0.4,0.3l1.1,0.6c0.1,0.1,0.1,0,0.2,0.2c-0.4-0.1-0.9-0.2-1.2-0.3
	c-1.3-0.3-2.1-0.5-3.3-1c-1-0.4-2.9-1.4-2.9-2.3C456,107,456.3,106.4,457.3,106.4"/>
<path class="st0" d="M432.8,97c0-0.7,0.2-1.5,0.3-1.9c0.1-0.3,0.2-0.5,0.3-0.7c0.7-1.3,1.5-1.7,2.7-1.7c-0.1-0.3-1.9-3.1-2.2-3.5
	l-1.4-1.8c-1.1-1.3-2.6-2.2-3.8-0.6c-0.4,0.5-0.6,1.4-0.6,2.2c0,1.2,0.3,2.1,1,2.3c0.3,0.1,0.4,0,0.6-0.1c0,0,0,0,0,0c0,0,0,0,0,0
	c-0.1-0.2-0.2-0.3-0.3-0.5c-0.2-0.9,0.2-2,0.8-2c0.3,0,0.7,0.1,0.9,0.5c0.4,0.8,0.4,1.7,0.1,2.5c-0.4,1.1-1.3,1.4-2.1,1
	c-0.8-0.4-1.2-1-1.6-2.2c-0.1-0.4-0.2-0.9-0.2-1.4v-0.4c0-0.6,0.1-1.2,0.3-1.7c0-0.1,0.1-0.2,0.1-0.3c0.3-0.7,0.9-1.5,1.3-1.8
	c1.1-0.7,2.5-0.4,3.5,0.5c0.8,0.7,1.5,1.6,2.2,2.6c0.1,0.1,0.1,0.1,0.2,0.2l0.3,0.5c0,0,0,0,0,0l0.1,0.1c0.3,0.4,0.5,0.9,0.8,1.3
	l0.3,0.4c0.1,0.2,0.2,0.3,0.3,0.5c0-0.9-0.1-0.7-0.1-2.1c0-2.2,1.1-4.6,2.6-4.6c0.8,0,1.4,0.2,1.9,1c0.4,0.6,0.6,1.7,0.6,2.5
	c0,1.1-0.4,2.4-0.9,2.9c-0.6,0.5-1.2,0.5-1.8-0.2c-0.5-0.7-0.6-2.9,0.5-2.9c0.2,0,0.4,0.1,0.5,0.3c0.2,0.2,0.3,0.5,0.3,1
	c0,0.3-0.1,0.4-0.1,0.6c0.6-0.1,0.8-0.8,0.8-1.7c0-0.6-0.3-1.2-0.5-1.6c-0.1-0.2-0.3-0.4-0.4-0.5c-0.5-0.3-0.9-0.3-1.4,0.1
	c-0.5,0.5-0.7,1-0.9,1.9c-0.6,2.7,0.3,5.1,2,6c0.4,0.2,0.8,0.4,1.4,0.4c2,0,3.1-1.5,3.7-3.8c0.1-0.3,0.1-0.5,0.2-0.8
	c0.3-1.5,0.2-2.9-0.7-3.8c-0.3-0.3-0.8-0.3-1.1,0.1c-0.2,0.4-0.2,0.6-0.2,1.1c0,0.3,0.1,0.5,0.2,0.6c0.1-0.8,1.1-0.8,1.1,0.2
	c0,1.8-2,1.5-2-1.1c0-0.9,0.5-1.8,1-2.1c0.6-0.4,1.5,0.1,1.9,0.9c0.1,0.3,0.4,0.8,0.4,1.2h0.1c0.1-0.6,0.5-1.4,0.8-1.7
	c0.3-0.3,0.5-0.4,0.9-0.5c0.7-0.1,1.2,0.4,1.4,1.3c0.1,0.3,0.2,0.6,0.2,1c0,1.4-0.9,2.8-1.7,1.9c-0.6-0.7-0.1-2.2,0.6-1.5
	c0.1,0.1,0.2,0.3,0.3,0.3c0.5-1.5-0.7-2.9-1.6-1.1c-0.6,1.3-0.4,3,0,4.3c0.3,0.9,0.6,1.6,1,2.2c0.1,0.1,0.2,0.2,0.3,0.3
	c1.1,1.1,2.5,1.2,3.7,0.6c0.5-0.3,0.7-0.5,1.1-0.9c0.3-0.4,0.6-0.9,0.8-1.4c0.1-0.4,0.3-1.6,0.3-2.2c0-0.9-0.3-1.9-0.5-2.5
	c-0.3-0.7-0.8-1.2-1.3-1.2c-0.6,0-1.2,0.7-1.4,1.4c-0.2,0.7-0.3,1.4,0,2.1c0.1,0.3,0.3,0.5,0.6,0.5c-0.1-0.3-0.1-0.5-0.1-0.8
	c0-1.1,1.2-1.5,1.5-0.4c0.2,0.8,0.1,1.8-0.4,2.3c-0.7,0.8-1.6,0.4-2.1-0.5c-0.3-0.7-0.5-1.5-0.5-2.4c0-0.3,0.1-1.1,0.2-1.3
	c0.1-0.4,0.3-0.7,0.4-1c0.2-0.3,0.4-0.5,0.7-0.7c0.3-0.2,0.6-0.3,0.9-0.3h0.2c0.6,0,1.1,0.3,1.5,0.9c0.6,0.8,1.1,2.3,1.1,3.8
	c0,0.4,0,0.6,0,1c0,0.3-0.1,0.7-0.1,0.9c0.3-0.3,1.2-1.9,1.6-2.5c1.2-1.7,2.9-4,4.5-4c0.5,0,1.1,0.1,1.5,0.4
	c0.2,0.1,0.3,0.2,0.4,0.4c0.1,0.1,0.1,0.1,0.2,0.2c0.4,0.7,0.9,1.3,1,2.3l0.1,0.7c0,0,0.1,0.2,0.1,0.2c0,0.2,0,0.8-0.1,0.9
	c-0.3,1.3-0.5,2.3-1.4,2.9c-0.7,0.5-1.5,0.5-2.1-0.1c-1.2-1.2-0.8-3.8,0.3-3.8c0.3,0,0.5,0.1,0.7,0.4c0.3,0.5,0.3,1.1,0.2,1.7
	c-0.1,0.4-0.2,0.3-0.3,0.5c0.7,0.6,1.7-0.5,1.7-2.1c0-1-0.2-1.6-0.6-2.3c-0.2-0.3-0.4-0.5-0.6-0.6c-0.9-0.6-2,0-2.7,0.8
	c-0.5,0.5-1,1.1-1.5,1.7l-2.6,4c1.3,0,2.4,0.6,2.9,2.3c0.6,1.9,0.4,4.2-0.7,5.5c-1,1.2-2.5,1-3.1-0.7c-0.3-0.8-0.4-2.3,0.1-3
	c0.5-0.7,1.6-0.7,1.6,0.7c0,0.6-0.3,1.3-0.7,1.3c-0.1,0-0.2-0.1-0.3-0.1c0.1,0.2,0,0.3,0.1,0.6c0.4,1,1.6,0.9,2.1-0.1
	c0.7-1.2,0.6-4.2-1-5c-1-0.5-1.4-0.3-2.4,0.2c-0.4,0.2-0.9,0.4-1.3,0.6c-1.6,0.7-3.8,0.8-5.1-1.1c-0.4-0.6-0.7-1-1-1.8
	c-0.1-0.3-0.2-0.6-0.3-0.9c0-0.2-0.1-0.3-0.1-0.5c0-0.2-0.1-0.4-0.1-0.5c0,0.5-0.4,1.4-0.5,1.9c-0.3,0.8-0.8,1.5-1.2,2.1
	c-0.3,0.4-0.7,0.7-1.1,0.9c-2.6,1.4-5.2-1.2-6.5-1.2c-0.6,0-1.2,0.3-1.6,0.8c-1,1.1-1,4.3,0.3,5.1c0.4,0.2,0.6,0.3,1,0
	c0.3-0.2,0.6-0.6,0.6-1.1c-0.1,0.1-0.1,0.1-0.2,0.1c-0.7,0-1-1.5-0.5-2.2c0.5-0.7,1.4-0.2,1.6,0.7c0.1,0.3,0.1,0.7,0.1,1
	c0,2.8-2.2,3.6-3.4,2.1l-0.3-0.5C433.1,99.2,432.8,98.3,432.8,97"/>
<path class="st0" d="M443.8,103.5c0-1.3,0.1-1.6,0.4-2.8c0.1-0.4,0.2-0.7,0.3-1.1c0.3-1.2,0.4-2.3,0.5-3.7l0.2-2.7
	c0.1,0.1,0.1,0.1,0.1,0.6c0,0.3,0,0.4,0.1,0.7c0.1,1.2,0.3,2.8,0.5,4c0.1,0.8,0.3,1.7,0.4,2.5c0.4,1.9,0.7,3.8-0.4,5.2
	c-0.2,0.3-0.5,0.3-0.7,0.3h0C444.4,106.4,443.8,104.8,443.8,103.5"/>
<path class="st0" d="M446.3,94.5c0.1,0.1,0.1,0.1,0.1,0.2c0.1,0.1,0.1,0.1,0.1,0.2c0.2,0.4,0.5,1,0.8,1.3c1.6,2.1,1.7,1.4,2.7,2.4
	c0.4,0.4,1,1,1,1.9c0,0.8-0.5,1.3-0.8,1.3c-0.6,0-0.9-0.1-1.3-0.7c-1.1-1.3-1.7-3.4-2.2-5.4C446.5,95.5,446.4,94.7,446.3,94.5"/>
<path class="st0" d="M439.8,100.6c0-0.6,0.1-0.9,0.3-1.2c0.4-0.7,0.8-0.9,1.3-1.3c0.1-0.1,0.2-0.1,0.4-0.2c0.1-0.1,0.2-0.2,0.4-0.3
	c0.4-0.2,0.7-0.6,1-1l0.3-0.4c0.1-0.1,0.2-0.3,0.3-0.4l0.6-1.1c0.1-0.1,0-0.1,0.2-0.2c-0.1,0.4-0.2,0.9-0.3,1.2
	c-0.3,1.3-0.5,2.1-1,3.3c-0.4,1-1.4,2.9-2.3,2.9C440.4,101.8,439.8,101.5,439.8,100.6"/>
<path class="st0" d="M460.8,661.5c0.7,0,1.5-0.2,1.9-0.3c0.3-0.1,0.5-0.2,0.7-0.3c1.3-0.7,1.7-1.5,1.7-2.7c0.3,0.1,3.1,1.9,3.5,2.2
	l1.8,1.4c1.3,1.1,2.2,2.6,0.6,3.8c-0.5,0.4-1.4,0.6-2.2,0.6c-1.2,0-2.1-0.3-2.3-1c-0.1-0.3,0-0.4,0.1-0.6c0,0,0,0,0,0c0,0,0,0,0,0
	c0.2,0.1,0.3,0.2,0.5,0.3c0.9,0.2,2-0.2,2-0.8c0-0.3-0.1-0.7-0.5-0.9c-0.8-0.4-1.7-0.4-2.5-0.1c-1.1,0.4-1.4,1.3-1,2.1
	c0.4,0.8,1,1.2,2.2,1.6c0.4,0.1,0.9,0.2,1.4,0.2h0.4c0.6,0,1.2-0.1,1.7-0.3c0.1,0,0.2-0.1,0.3-0.1c0.7-0.3,1.5-0.9,1.8-1.3
	c0.7-1.1,0.4-2.5-0.5-3.5c-0.7-0.8-1.6-1.5-2.6-2.2c-0.1-0.1-0.1-0.1-0.2-0.2l-0.5-0.3c0,0,0,0,0,0l-0.1-0.1
	c-0.4-0.3-0.9-0.5-1.3-0.8l-0.4-0.3c-0.2-0.1-0.3-0.2-0.5-0.3c0.9,0,0.7,0.1,2.1,0.1c2.2,0,4.6-1.1,4.6-2.6c0-0.8-0.2-1.4-1-1.9
	c-0.6-0.4-1.7-0.6-2.5-0.6c-1.1,0-2.4,0.4-2.9,0.9c-0.5,0.6-0.5,1.2,0.2,1.8c0.7,0.5,2.9,0.6,2.9-0.5c0-0.2-0.1-0.4-0.3-0.5
	c-0.2-0.2-0.5-0.3-1-0.3c-0.3,0-0.4,0.1-0.6,0.1c0.1-0.6,0.8-0.8,1.7-0.8c0.6,0,1.2,0.3,1.6,0.5c0.2,0.1,0.4,0.3,0.5,0.4
	c0.3,0.5,0.3,0.9-0.1,1.4c-0.5,0.5-1,0.7-1.9,0.9c-2.7,0.6-5.1-0.3-6-2c-0.2-0.4-0.4-0.8-0.4-1.4c0-2,1.5-3.1,3.8-3.7
	c0.3-0.1,0.5-0.1,0.8-0.2c1.5-0.3,2.9-0.2,3.8,0.7c0.3,0.3,0.3,0.8-0.1,1.1c-0.4,0.2-0.6,0.2-1.1,0.2c-0.3,0-0.5-0.1-0.6-0.2
	c0.8-0.1,0.8-1.1-0.2-1.1c-1.8,0-1.5,2,1.1,2c0.9,0,1.8-0.5,2.1-1c0.4-0.6-0.1-1.5-0.9-1.9c-0.3-0.1-0.8-0.4-1.2-0.4V649
	c0.6-0.1,1.4-0.5,1.7-0.8c0.3-0.3,0.4-0.5,0.5-0.9c0.1-0.7-0.4-1.2-1.3-1.4c-0.3-0.1-0.6-0.2-1-0.2c-1.4,0-2.8,0.9-1.9,1.7
	c0.7,0.6,2.2,0.1,1.5-0.6c-0.1-0.1-0.3-0.2-0.3-0.3c1.5-0.5,2.9,0.7,1.1,1.6c-1.3,0.6-3,0.4-4.3,0c-0.9-0.3-1.6-0.6-2.2-1
	c-0.1-0.1-0.2-0.2-0.3-0.3c-1.1-1.1-1.2-2.5-0.6-3.7c0.3-0.5,0.5-0.7,0.9-1.1c0.4-0.3,0.9-0.6,1.4-0.8c0.4-0.1,1.6-0.3,2.2-0.3
	c0.9,0,1.9,0.3,2.5,0.5c0.7,0.3,1.2,0.8,1.2,1.3c0,0.6-0.7,1.2-1.4,1.4c-0.7,0.2-1.4,0.3-2.1,0c-0.3-0.1-0.5-0.3-0.5-0.6
	c0.3,0.1,0.5,0.1,0.8,0.1c1.1,0,1.5-1.2,0.4-1.5c-0.8-0.2-1.8-0.1-2.3,0.4c-0.8,0.7-0.4,1.6,0.5,2.1c0.7,0.3,1.5,0.5,2.4,0.5
	c0.3,0,1.1-0.1,1.3-0.2c0.4-0.1,0.7-0.3,1-0.4c0.3-0.2,0.5-0.4,0.7-0.7c0.2-0.3,0.3-0.6,0.3-0.9v-0.2c0-0.6-0.3-1.1-0.9-1.5
	c-0.8-0.6-2.3-1.1-3.8-1.1c-0.4,0-0.6,0-1,0c-0.3,0-0.7,0.1-0.9,0.1c0.3-0.3,1.9-1.2,2.5-1.6c1.7-1.2,4-2.9,4-4.5
	c0-0.5-0.1-1.1-0.4-1.5c-0.1-0.2-0.2-0.3-0.4-0.4c-0.1-0.1-0.1-0.1-0.2-0.2c-0.7-0.4-1.3-0.9-2.3-1l-0.7-0.1c0,0-0.2-0.1-0.2-0.1
	c-0.2,0-0.8,0-0.9,0.1c-1.3,0.3-2.3,0.5-2.9,1.4c-0.5,0.7-0.5,1.5,0.1,2.1c1.2,1.2,3.8,0.8,3.8-0.3c0-0.3-0.1-0.5-0.4-0.7
	c-0.5-0.3-1.1-0.3-1.7-0.2c-0.4,0.1-0.3,0.2-0.5,0.3c-0.6-0.7,0.5-1.7,2.1-1.7c1,0,1.6,0.2,2.3,0.6c0.3,0.2,0.5,0.4,0.6,0.6
	c0.6,0.9,0,2-0.8,2.7c-0.5,0.5-1.1,1-1.7,1.5l-4,2.6c0-1.3-0.6-2.4-2.3-2.9c-1.9-0.6-4.2-0.4-5.5,0.7c-1.2,1-1,2.5,0.7,3.1
	c0.8,0.3,2.3,0.4,3-0.1c0.7-0.5,0.7-1.6-0.7-1.6c-0.6,0-1.3,0.3-1.3,0.7c0,0.1,0.1,0.2,0.1,0.3c-0.2-0.1-0.3,0-0.6-0.1
	c-1-0.4-0.9-1.6,0.1-2.1c1.2-0.7,4.2-0.6,5,1c0.5,1,0.3,1.4-0.2,2.4c-0.2,0.4-0.4,0.9-0.6,1.3c-0.7,1.6-0.8,3.8,1.1,5.1
	c0.6,0.4,1,0.7,1.8,1c0.3,0.1,0.6,0.2,0.9,0.3c0.2,0,0.3,0.1,0.5,0.1c0.2,0,0.4,0.1,0.5,0.1c-0.5,0-1.4,0.4-1.9,0.5
	c-0.8,0.3-1.5,0.8-2.1,1.2c-0.4,0.3-0.7,0.7-0.9,1.1c-1.4,2.6,1.2,5.2,1.2,6.5c0,0.6-0.3,1.2-0.8,1.6c-1.1,1-4.3,1-5.1-0.3
	c-0.2-0.4-0.3-0.6,0-1c0.2-0.3,0.6-0.6,1.1-0.6c-0.1,0.1-0.1,0.1-0.1,0.2c0,0.7,1.5,1,2.2,0.5c0.7-0.5,0.2-1.4-0.7-1.6
	c-0.3-0.1-0.7-0.1-1-0.1c-2.8,0-3.6,2.2-2.1,3.4l0.5,0.3C458.6,661.2,459.5,661.5,460.8,661.5"/>
<path class="st0" d="M454.3,650.5c1.3,0,1.6-0.1,2.8-0.4c0.4-0.1,0.7-0.2,1.1-0.3c1.2-0.3,2.3-0.4,3.7-0.5l2.7-0.2
	c-0.1-0.1-0.1-0.1-0.6-0.1c-0.3,0-0.4,0-0.7-0.1c-1.2-0.1-2.8-0.3-4-0.5c-0.8-0.1-1.7-0.3-2.5-0.4c-1.9-0.4-3.8-0.7-5.2,0.4
	c-0.3,0.2-0.3,0.5-0.3,0.7v0C451.4,649.9,453,650.5,454.3,650.5"/>
<path class="st0" d="M463.3,648c-0.1-0.1-0.1-0.1-0.2-0.1c-0.1-0.1-0.1-0.1-0.2-0.1c-0.4-0.2-1-0.5-1.3-0.8
	c-2.1-1.6-1.4-1.7-2.4-2.7c-0.4-0.4-1-1-1.9-1c-0.8,0-1.3,0.5-1.3,0.8c0,0.6,0.1,0.9,0.7,1.3c1.3,1.1,3.4,1.7,5.4,2.2
	C462.3,647.8,463,648,463.3,648"/>
<path class="st0" d="M457.2,654.5c0.6,0,0.9-0.1,1.2-0.3c0.7-0.4,0.9-0.8,1.3-1.3c0.1-0.1,0.1-0.2,0.2-0.4c0.1-0.1,0.2-0.2,0.3-0.4
	c0.2-0.4,0.6-0.7,1-1l0.4-0.3c0.1-0.1,0.3-0.2,0.4-0.3l1.1-0.6c0.1-0.1,0.1,0,0.2-0.2c-0.4,0.1-0.9,0.2-1.2,0.3
	c-1.3,0.3-2.1,0.5-3.3,1c-1,0.4-2.9,1.4-2.9,2.3C455.9,654,456.3,654.5,457.2,654.5"/>
<path class="st0" d="M432.7,663.9c0,0.7,0.2,1.5,0.3,1.9c0.1,0.3,0.2,0.5,0.3,0.7c0.7,1.3,1.5,1.7,2.7,1.7c-0.1,0.3-1.9,3.1-2.2,3.5
	l-1.4,1.8c-1.1,1.3-2.6,2.2-3.8,0.6c-0.4-0.5-0.6-1.4-0.6-2.2c0-1.2,0.3-2.1,1-2.3c0.3-0.1,0.4,0,0.6,0.1c0,0,0,0,0,0c0,0,0,0,0,0
	c-0.1,0.2-0.2,0.3-0.3,0.5c-0.2,0.9,0.2,2,0.8,2c0.3,0,0.7-0.1,0.9-0.5c0.4-0.8,0.4-1.7,0.1-2.5c-0.4-1.1-1.3-1.4-2.1-1
	c-0.8,0.4-1.2,1-1.6,2.2c-0.1,0.4-0.2,0.9-0.2,1.4v0.4c0,0.6,0.1,1.2,0.3,1.7c0,0.1,0.1,0.2,0.1,0.3c0.3,0.7,0.9,1.5,1.3,1.8
	c1.1,0.7,2.5,0.4,3.5-0.5c0.8-0.7,1.5-1.6,2.2-2.6c0.1-0.1,0.1-0.1,0.2-0.2l0.3-0.5c0,0,0,0,0,0l0.1-0.1c0.3-0.4,0.5-0.9,0.8-1.3
	l0.3-0.4c0.1-0.2,0.2-0.3,0.3-0.5c0,0.9-0.1,0.7-0.1,2.1c0,2.2,1.1,4.6,2.6,4.6c0.8,0,1.4-0.2,1.9-1c0.4-0.6,0.6-1.7,0.6-2.5
	c0-1.1-0.4-2.4-0.9-2.9c-0.6-0.5-1.2-0.5-1.8,0.2c-0.5,0.7-0.6,2.9,0.5,2.9c0.2,0,0.4-0.1,0.5-0.3c0.2-0.2,0.3-0.5,0.3-1
	c0-0.3-0.1-0.4-0.1-0.6c0.6,0.1,0.8,0.8,0.8,1.7c0,0.6-0.3,1.2-0.5,1.6c-0.1,0.2-0.3,0.4-0.4,0.5c-0.5,0.3-0.9,0.3-1.4-0.1
	c-0.5-0.5-0.7-1-0.9-1.9c-0.6-2.7,0.3-5.1,2-6c0.4-0.2,0.8-0.4,1.4-0.4c2,0,3.1,1.5,3.7,3.8c0.1,0.3,0.1,0.5,0.2,0.8
	c0.3,1.5,0.2,2.9-0.7,3.8c-0.3,0.3-0.8,0.3-1.1-0.1c-0.2-0.4-0.2-0.6-0.2-1.1c0-0.3,0.1-0.5,0.2-0.6c0.1,0.8,1.1,0.8,1.1-0.2
	c0-1.8-2-1.5-2,1.1c0,0.9,0.5,1.8,1,2.1c0.6,0.4,1.5-0.1,1.9-0.9c0.1-0.3,0.4-0.8,0.4-1.2h0.1c0.1,0.6,0.5,1.4,0.8,1.7
	c0.3,0.3,0.5,0.4,0.9,0.5c0.7,0.1,1.2-0.4,1.4-1.3c0.1-0.3,0.2-0.6,0.2-1c0-1.4-0.9-2.8-1.7-1.9c-0.6,0.7-0.1,2.2,0.6,1.5
	c0.1-0.1,0.2-0.3,0.3-0.3c0.5,1.5-0.7,2.9-1.6,1.1c-0.6-1.3-0.4-3,0-4.3c0.3-0.9,0.6-1.6,1-2.2c0.1-0.1,0.2-0.2,0.3-0.3
	c1.1-1.1,2.5-1.2,3.7-0.6c0.5,0.3,0.7,0.5,1.1,0.9c0.3,0.4,0.6,0.9,0.8,1.4c0.1,0.4,0.3,1.6,0.3,2.2c0,0.9-0.3,1.9-0.5,2.5
	c-0.3,0.7-0.8,1.2-1.3,1.2c-0.6,0-1.2-0.7-1.4-1.4c-0.2-0.7-0.3-1.4,0-2.1c0.1-0.3,0.3-0.5,0.6-0.5c-0.1,0.3-0.1,0.5-0.1,0.8
	c0,1.1,1.2,1.5,1.5,0.4c0.2-0.8,0.1-1.8-0.4-2.3c-0.7-0.8-1.6-0.4-2.1,0.5c-0.3,0.7-0.5,1.5-0.5,2.4c0,0.3,0.1,1.1,0.2,1.3
	c0.1,0.4,0.3,0.7,0.4,1c0.2,0.3,0.4,0.5,0.7,0.7c0.3,0.2,0.6,0.3,0.9,0.3h0.2c0.6,0,1.1-0.3,1.5-0.9c0.6-0.8,1.1-2.3,1.1-3.8
	c0-0.4,0-0.6,0-1c0-0.3-0.1-0.7-0.1-0.9c0.3,0.3,1.2,1.9,1.6,2.5c1.2,1.7,2.9,4,4.5,4c0.5,0,1.1-0.1,1.5-0.4
	c0.2-0.1,0.3-0.2,0.4-0.4c0.1-0.1,0.1-0.1,0.2-0.2c0.4-0.7,0.9-1.3,1-2.3l0.1-0.7c0,0,0.1-0.2,0.1-0.2c0-0.2,0-0.8-0.1-0.9
	c-0.3-1.2-0.5-2.3-1.4-2.9c-0.7-0.5-1.5-0.5-2.1,0.1c-1.2,1.2-0.8,3.8,0.3,3.8c0.3,0,0.5-0.1,0.7-0.4c0.3-0.5,0.3-1.1,0.2-1.7
	c-0.1-0.4-0.2-0.3-0.3-0.5c0.7-0.6,1.7,0.5,1.7,2.1c0,1-0.2,1.6-0.6,2.3c-0.2,0.3-0.4,0.5-0.6,0.6c-0.9,0.6-2,0-2.7-0.8
	c-0.5-0.5-1-1.1-1.5-1.7l-2.6-4c1.3,0,2.4-0.6,2.9-2.3c0.6-1.9,0.4-4.2-0.7-5.5c-1-1.2-2.5-1-3.1,0.7c-0.3,0.8-0.4,2.3,0.1,3
	c0.5,0.7,1.6,0.7,1.6-0.7c0-0.6-0.3-1.3-0.7-1.3c-0.1,0-0.2,0.1-0.3,0.1c0.1-0.2,0-0.3,0.1-0.6c0.4-1,1.6-0.9,2.1,0.1
	c0.7,1.2,0.6,4.2-1,5c-1,0.5-1.4,0.3-2.4-0.2c-0.4-0.2-0.9-0.4-1.3-0.6c-1.6-0.7-3.8-0.8-5.1,1.1c-0.4,0.6-0.7,1-1,1.8
	c-0.1,0.3-0.2,0.6-0.3,0.9c0,0.2-0.1,0.3-0.1,0.5c0,0.2-0.1,0.4-0.1,0.5c0-0.5-0.4-1.4-0.5-1.9c-0.3-0.8-0.8-1.5-1.2-2.1
	c-0.3-0.4-0.7-0.7-1.1-0.9c-2.6-1.4-5.2,1.2-6.5,1.2c-0.6,0-1.2-0.3-1.6-0.8c-1-1.1-1-4.3,0.3-5.1c0.4-0.2,0.6-0.3,1,0
	c0.3,0.2,0.6,0.6,0.6,1.1c-0.1-0.1-0.1-0.1-0.2-0.1c-0.7,0-1,1.5-0.5,2.2c0.5,0.7,1.4,0.2,1.6-0.7c0.1-0.3,0.1-0.7,0.1-1
	c0-2.8-2.2-3.6-3.4-2.1l-0.3,0.5C433,661.7,432.7,662.7,432.7,663.9"/>
<path class="st0" d="M443.8,657.5c0,1.3,0.1,1.6,0.4,2.8c0.1,0.4,0.2,0.7,0.3,1.1c0.3,1.2,0.4,2.3,0.5,3.7l0.2,2.7
	c0.1-0.1,0.1-0.1,0.1-0.6c0-0.3,0-0.4,0.1-0.7c0.1-1.2,0.3-2.8,0.5-3.9c0.1-0.8,0.3-1.7,0.4-2.5c0.4-1.9,0.7-3.8-0.4-5.2
	c-0.2-0.3-0.5-0.3-0.7-0.3h0C444.3,654.5,443.8,656.1,443.8,657.5"/>
<path class="st0" d="M446.3,666.5c0.1-0.1,0.1-0.1,0.1-0.2c0.1-0.1,0.1-0.1,0.1-0.2c0.2-0.4,0.5-1,0.8-1.3c1.6-2.1,1.7-1.4,2.7-2.4
	c0.4-0.4,1-1,1-1.9c0-0.8-0.5-1.3-0.8-1.3c-0.6,0-0.9,0.1-1.3,0.7c-1.1,1.3-1.7,3.4-2.2,5.4C446.5,665.5,446.3,666.2,446.3,666.5"/>
<path class="st0" d="M439.7,660.3c0,0.6,0.1,0.9,0.3,1.2c0.4,0.7,0.8,0.9,1.3,1.3c0.1,0.1,0.2,0.1,0.4,0.2c0.1,0.1,0.2,0.2,0.4,0.3
	c0.4,0.2,0.7,0.6,1,1l0.3,0.4c0.1,0.1,0.2,0.3,0.3,0.4l0.6,1.1c0.1,0.1,0,0.1,0.2,0.2c-0.1-0.4-0.2-0.9-0.3-1.2
	c-0.3-1.3-0.5-2.1-1-3.3c-0.4-1-1.4-2.9-2.3-2.9C440.3,659.1,439.7,659.4,439.7,660.3"/>
<line class="st1" x1="139.1" y1="152.2" x2="139.1" y2="357.9"/>
<line class="st1" x1="139.2" y1="613.5" x2="139.2" y2="403"/>
<path class="st2" d="M139.6,141c0.3,0.1,0.5,0.4,0.6,0.6l1-0.4h1c-0.3-0.9-0.9-1.5-1.8-2.1L140,139v1L139.6,141z M138,141.7
	c0.1-0.3,0.4-0.5,0.6-0.6l-0.4-1v-1c-1.1,0.4-1.8,1.1-2.2,2.2h1L138,141.7z M137.1,143h-1c0.3,1.1,1.1,1.8,2.2,2.2v-1l0.4-1
	c-0.3-0.1-0.5-0.4-0.6-0.6L137.1,143z M134.3,143h-1.8v-1.8h1.8c0.5-2.1,1.8-3.5,4-4v-1c0-0.6,0.3-0.8,0.7-0.8h0.4
	c0.3,0,0.6,0.2,0.6,0.8v1c2.1,0.5,3.5,1.9,4,4h1.8v1.8H144c-0.5,2.1-1.8,3.4-4,4v5.9h-1.7v-5.9C136.1,146.4,134.8,145.1,134.3,143z
	 M140,145.2c1.1-0.4,1.8-1.1,2.2-2.2h-1l-1-0.4c-0.1,0.3-0.4,0.5-0.6,0.6l0.4,1V145.2z"/>
<path class="st2" d="M139.6,619.7c0.3-0.1,0.5-0.4,0.6-0.6l1,0.4h1c-0.3,0.9-0.9,1.5-1.8,2.1l-0.4,0.1v-1L139.6,619.7z M138.1,619
	c0.1,0.3,0.4,0.5,0.6,0.6l-0.4,1v1c-1.1-0.4-1.8-1.1-2.2-2.2h1L138.1,619z M137.2,617.7h-1c0.3-1.1,1.1-1.8,2.2-2.2v1l0.4,1
	c-0.3,0.1-0.5,0.4-0.6,0.6L137.2,617.7z M134.3,617.7h-1.8v1.8h1.8c0.5,2.1,1.8,3.5,4,4v1c0,0.6,0.3,0.8,0.7,0.8h0.4
	c0.3,0,0.6-0.2,0.6-0.8v-1c2.1-0.5,3.5-1.9,4-4h1.8v-1.8H144c-0.5-2.1-1.8-3.4-4-4v-5.9h-1.7v5.9
	C136.2,614.3,134.9,615.6,134.3,617.7z M140,615.5c1.1,0.4,1.8,1.1,2.2,2.2h-1l-1,0.4c-0.1-0.3-0.4-0.5-0.6-0.6l0.4-1V615.5z"/>
<path class="st3" d="M139.1,355c1.6,0,2.9,1.3,2.9,2.9c0,1.6-1.3,2.9-2.9,2.9c-1.6,0-2.9-1.3-2.9-2.9
	C136.2,356.3,137.5,355,139.1,355"/>
<path class="st3" d="M139.2,406c1.6,0,2.9-1.3,2.9-2.9c0-1.6-1.3-2.9-2.9-2.9c-1.6,0-2.9,1.3-2.9,2.9
	C136.2,404.7,137.6,406,139.2,406"/>
<text transform="matrix(1 0 0 1.4848 132.311 394.0684)" class="st2 st4 st5">8</text>
<line class="st1" x1="467.9" y1="152.2" x2="468" y2="357.9"/>
<line class="st1" x1="467.9" y1="613.5" x2="467.9" y2="403"/>
<path class="st2" d="M468.4,141c0.3,0.1,0.5,0.4,0.6,0.6l1-0.4h1c-0.3-0.9-0.9-1.5-1.8-2.1l-0.4-0.1v1L468.4,141z M466.8,141.7
	c0.1-0.3,0.4-0.5,0.6-0.6l-0.4-1v-1c-1.1,0.4-1.8,1.1-2.2,2.2h1L466.8,141.7z M465.9,143h-1c0.3,1.1,1.1,1.8,2.2,2.2v-1l0.4-1
	c-0.3-0.1-0.5-0.4-0.6-0.6L465.9,143z M463.1,143h-1.8v-1.8h1.8c0.5-2.1,1.8-3.5,4-4v-1c0-0.6,0.3-0.8,0.7-0.8h0.4
	c0.3,0,0.6,0.2,0.6,0.8v1c2.1,0.5,3.5,1.9,4,4h1.8v1.8h-1.8c-0.5,2.1-1.8,3.4-4,4v5.9H467V147C464.9,146.4,463.6,145.1,463.1,143z
	 M468.8,145.2c1.1-0.4,1.8-1.1,2.2-2.2h-1l-1-0.4c-0.1,0.3-0.4,0.5-0.6,0.6l0.4,1V145.2z"/>
<path class="st2" d="M468.4,619.7c0.3-0.1,0.5-0.4,0.6-0.6l1,0.4h1c-0.3,0.9-0.9,1.5-1.8,2.1l-0.4,0.1v-1L468.4,619.7z M466.8,619.1
	c0.1,0.3,0.4,0.5,0.6,0.6l-0.4,1v1c-1.1-0.4-1.8-1.1-2.2-2.2h1L466.8,619.1z M465.9,617.7h-1c0.3-1.1,1.1-1.8,2.2-2.2v1l0.4,1
	c-0.3,0.1-0.5,0.4-0.6,0.6L465.9,617.7z M463.1,617.7h-1.8v1.8h1.8c0.5,2.1,1.8,3.5,4,4v1c0,0.6,0.3,0.8,0.7,0.8h0.4
	c0.3,0,0.6-0.2,0.6-0.8v-1c2.1-0.5,3.5-1.9,4-4h1.8v-1.8h-1.8c-0.5-2.1-1.8-3.4-4-4v-5.9H467v5.9
	C464.9,614.3,463.6,615.6,463.1,617.7z M468.8,615.5c1.1,0.4,1.8,1.1,2.2,2.2h-1l-1,0.4c-0.1-0.3-0.4-0.5-0.6-0.6l0.4-1V615.5z"/>
<path class="st3" d="M468,355c1.6,0,2.9,1.3,2.9,2.9c0,1.6-1.3,2.9-2.9,2.9c-1.6,0-2.9-1.3-2.9-2.9C465,356.3,466.4,355,468,355"/>
<path class="st3" d="M467.9,406c1.6,0,2.9-1.3,2.9-2.9c0-1.6-1.3-2.9-2.9-2.9c-1.6,0-2.9,1.3-2.9,2.9C465,404.7,466.3,406,467.9,406
	"/>
<text transform="matrix(1 0 0 1.4848 461.1797 394.0684)" class="st2 st4 st5">8</text>
<line class="st1" x1="411.3" y1="89.9" x2="317.7" y2="89.8"/>
<line class="st1" x1="195.5" y1="89.6" x2="289.5" y2="89.7"/>
<path class="st2" d="M416.3,90.3c-0.1,0.2-0.3,0.4-0.6,0.6l0.4,0.9l0,0.9c0.8-0.3,1.4-0.8,1.9-1.7l0.1-0.3l-0.9,0L416.3,90.3z
	 M415.7,88.9c0.2,0.1,0.4,0.3,0.6,0.6l0.9-0.4l0.9,0c-0.3-1-1-1.7-2-2l0,0.9L415.7,88.9z M414.5,88.1l0-0.9c-1,0.3-1.7,1-2,2l0.9,0
	l0.9,0.4c0.1-0.2,0.3-0.4,0.6-0.6L414.5,88.1z M414.5,85.5l0-1.6l1.6,0l0,1.6c1.9,0.5,3.1,1.7,3.6,3.6l0.9,0c0.5,0,0.7,0.2,0.7,0.6
	l0,0.3c0,0.3-0.2,0.6-0.7,0.6l-0.9,0c-0.5,1.9-1.7,3.1-3.6,3.6l0,1.6l-1.6,0l0-1.6c-1.9-0.5-3.1-1.7-3.6-3.6l-5.3,0l0-1.6l5.3,0
	C411.4,87.2,412.6,86,414.5,85.5z M412.5,90.7c0.3,1,1,1.7,2,2l0-0.9l0.4-0.9c-0.2-0.1-0.4-0.3-0.6-0.6l-0.9,0.4L412.5,90.7z"/>
<path class="st2" d="M191,90c0.1,0.2,0.3,0.4,0.6,0.6l-0.4,0.9l0,1c-0.8-0.3-1.4-0.8-1.9-1.7l-0.1-0.3l1,0L191,90z M191.5,88.6
	c-0.2,0.1-0.4,0.3-0.6,0.6l-0.9-0.4l-1,0c0.3-1.1,1-1.7,2.1-2.1l0,1L191.5,88.6z M192.8,87.7l0-1c1,0.3,1.7,1,2.1,2.1l-1,0l-0.9,0.4
	c-0.1-0.3-0.3-0.5-0.6-0.6L192.8,87.7z M192.8,85l0-1.7l-1.6,0l0,1.7c-2,0.5-3.3,1.7-3.7,3.7l-1,0c-0.6,0-0.7,0.2-0.7,0.7l0,0.4
	c0,0.3,0.2,0.6,0.8,0.6l1,0c0.5,2,1.7,3.3,3.7,3.7l0,1.7l1.6,0l0-1.7c2-0.5,3.2-1.7,3.7-3.7l5.5,0l0-1.6l-5.5,0
	C196,86.8,194.8,85.5,192.8,85z M194.9,90.4c-0.3,1-1,1.7-2.1,2.1l0-1l-0.4-0.9c0.3-0.1,0.5-0.3,0.6-0.6l0.9,0.4L194.9,90.4z"/>
<path class="st3" d="M318.8,89.8c0,0.8-0.6,1.4-1.4,1.4c-0.8,0-1.4-0.6-1.4-1.4c0-0.8,0.6-1.4,1.4-1.4
	C318.1,88.3,318.8,89,318.8,89.8"/>
<path class="st3" d="M288.3,89.7c0,0.8,0.6,1.4,1.4,1.4c0.8,0,1.4-0.6,1.4-1.4c0-0.8-0.6-1.4-1.4-1.4
	C289,88.3,288.3,88.9,288.3,89.7"/>
<text transform="matrix(-1.539440e-03 1 -1.4849 -2.155218e-03 296.8022 86.4548)" class="st2 st4 st6">8</text>
<line class="st1" x1="411.6" y1="671.2" x2="317.8" y2="671.2"/>
<line class="st1" x1="196.1" y1="671.2" x2="289.6" y2="671.2"/>
<path class="st2" d="M416.3,671.6c-0.1,0.2-0.3,0.4-0.6,0.6l0.4,0.9l0,0.9c0.8-0.3,1.4-0.8,1.9-1.7l0.1-0.3l-0.9,0L416.3,671.6z
	 M415.8,670.2c0.2,0.1,0.4,0.3,0.6,0.6l0.9-0.4l0.9,0c-0.3-1-1-1.7-2-2l0,0.9L415.8,670.2z M414.6,669.4l0-0.9c-1,0.3-1.7,1-2,2
	l0.9,0l0.9,0.4c0.1-0.2,0.3-0.4,0.6-0.6L414.6,669.4z M414.6,666.8l0-1.6l1.6,0l0,1.6c1.9,0.5,3.1,1.7,3.6,3.6l0.9,0
	c0.5,0,0.7,0.2,0.7,0.6l0,0.3c0,0.3-0.2,0.6-0.7,0.6l-0.9,0c-0.5,1.9-1.7,3.1-3.6,3.6l0,1.6l-1.6,0l0-1.6c-1.9-0.5-3.1-1.7-3.6-3.6
	l-5.3,0l0-1.6l5.3,0C411.4,668.5,412.6,667.3,414.6,666.8z M412.6,672c0.3,1,1,1.7,2,2l0-0.9l0.4-0.9c-0.2-0.1-0.4-0.3-0.6-0.6
	l-0.9,0.4L412.6,672z"/>
<path class="st2" d="M191,671.6c0.1,0.2,0.3,0.4,0.6,0.6l-0.4,0.9l0,1c-0.8-0.3-1.4-0.8-1.9-1.7l-0.1-0.3l1,0L191,671.6z
	 M191.6,670.1c-0.2,0.1-0.4,0.3-0.6,0.6l-0.9-0.4l-1,0c0.3-1.1,1-1.7,2.1-2.1l0,1L191.6,670.1z M192.8,669.2l0-1
	c1,0.3,1.7,1,2.1,2.1l-1,0l-0.9,0.4c-0.1-0.3-0.3-0.5-0.6-0.6L192.8,669.2z M192.8,666.6l0-1.7l-1.6,0l0,1.7c-2,0.5-3.3,1.7-3.7,3.7
	l-1,0c-0.6,0-0.7,0.2-0.7,0.7l0,0.4c0,0.3,0.2,0.6,0.8,0.6l1,0c0.5,2,1.7,3.3,3.7,3.7l0,1.7l1.6,0l0-1.7c2-0.5,3.2-1.7,3.7-3.7
	l5.5,0l0-1.6l-5.5,0C196.1,668.3,194.8,667.1,192.8,666.6z M194.9,672c-0.3,1-1,1.7-2.1,2.1l0-1l-0.4-0.9c0.3-0.1,0.5-0.3,0.6-0.6
	l0.9,0.4L194.9,672z"/>
<path class="st3" d="M319,671.2c0,0.8-0.6,1.4-1.4,1.4c-0.8,0-1.4-0.6-1.4-1.4c0-0.8,0.6-1.4,1.4-1.4
	C318.4,669.7,319,670.4,319,671.2"/>
<path class="st3" d="M288.3,671.3c0,0.8,0.6,1.4,1.4,1.4c0.8,0,1.4-0.6,1.4-1.4c0-0.8-0.6-1.4-1.4-1.4
	C289,669.9,288.3,670.5,288.3,671.3"/>
<text transform="matrix(-1.539440e-03 1 -1.4849 -2.155218e-03 297.1011 668.0215)" class="st2 st4 st6">8</text>
</svg>
