<?xml version="1.0" encoding="utf-8"?>
<!-- Generator: Adobe Illustrator 24.1.3, SVG Export Plug-In . SVG Version: 6.00 Build 0)  -->
<svg version="1.1" id="Capa_1" xmlns="http://www.w3.org/2000/svg" xmlns:xlink="http://www.w3.org/1999/xlink" x="0px" y="0px"
	 viewBox="0 0 500 500" style="enable-background:new 0 0 500 500;" xml:space="preserve">
<style type="text/css">
	.st0{fill:none;stroke:#000000;stroke-width:5;stroke-miterlimit:10;}
</style>
<path class="st0" d="M250.1,70.4c-62.9,0-119.9,51-119.9,113.9s52,138,119.9,245.7C318,322.4,370,247.2,370,184.3
	S313,70.4,250.1,70.4z M250.1,235.3c-24.8,0-45-20.1-45-45s20.1-45,45-45s45,20.1,45,45S274.9,235.3,250.1,235.3z"/>
<path class="st0" d="M301.7,348.2c0,0,116.7,18.5,114.4,61.2S279.6,469.6,250,469.6S79.2,451.1,79.2,408.9s119.2-60.7,119.2-60.7
	l51.6,81.8L301.7,348.2z"/>
</svg>
