<?xml version="1.0" encoding="utf-8"?>
<!-- Generator: Adobe Illustrator 24.1.3, SVG Export Plug-In . SVG Version: 6.00 Build 0)  -->
<svg version="1.1" id="Capa_1" xmlns="http://www.w3.org/2000/svg" xmlns:xlink="http://www.w3.org/1999/xlink" x="0px" y="0px"
	 viewBox="0 0 463.9 792" style="enable-background:new 0 0 463.9 792;" xml:space="preserve">
<style type="text/css">
	.st0{fill-rule:evenodd;clip-rule:evenodd;}
	.st1{fill:none;stroke:#201E1E;stroke-width:1.7008;stroke-miterlimit:22.9256;}
	.st2{fill:#201E1E;}
	.st3{fill-rule:evenodd;clip-rule:evenodd;fill:#201E1E;}
	.st4{font-family:'BaskOldFace';}
	.st5{font-size:54.8052px;}
	.st6{font-size:26.432px;}
</style>
<path class="st0" d="M18.9,21.4c-0.9,0-2,0.3-2.5,0.4c-0.4,0.1-0.7,0.3-0.9,0.4c-1.7,0.9-2.3,2-2.3,3.6c-0.4-0.1-4.1-2.5-4.7-2.9
	L6.1,21c-1.7-1.5-2.9-3.5-0.8-5.1c0.7-0.5,1.9-0.8,2.9-0.8c1.6,0,2.8,0.4,3.1,1.3c0.1,0.4,0,0.5-0.1,0.8l0,0l0,0
	c-0.3-0.1-0.4-0.3-0.7-0.4c-1.2-0.3-2.7,0.3-2.7,1.1c0,0.4,0.1,0.9,0.7,1.2c1.1,0.5,2.3,0.5,3.3,0.1c1.5-0.5,1.9-1.7,1.3-2.8
	c-0.5-1.1-1.3-1.6-2.9-2.1c-0.5-0.1-1.2-0.3-1.9-0.3H7.9c-0.8,0-1.6,0.1-2.3,0.4c-0.1,0-0.3,0.1-0.4,0.1c-0.9,0.4-2,1.2-2.4,1.7
	c-0.9,1.5-0.5,3.3,0.7,4.7c0.9,1.1,2.1,2,3.5,2.9c0.1,0.1,0.1,0.1,0.3,0.3l0.7,0.4l0,0L8,24.8c0.5,0.4,1.2,0.7,1.7,1.1l0.5,0.4
	c0.3,0.1,0.4,0.3,0.7,0.4c-1.2,0-0.9-0.1-2.8-0.1C5.2,26.5,2,28,2,30c0,1.1,0.3,1.9,1.3,2.5c0.8,0.5,2.3,0.8,3.3,0.8
	c1.5,0,3.2-0.5,3.9-1.2c0.7-0.8,0.7-1.6-0.3-2.4c-0.9-0.7-3.9-0.8-3.9,0.7c0,0.3,0.1,0.5,0.4,0.7c0.3,0.3,0.7,0.4,1.3,0.4
	c0.4,0,0.5-0.1,0.8-0.1c-0.1,0.8-1.1,1.1-2.3,1.1c-0.8,0-1.6-0.4-2.1-0.7c-0.3-0.1-0.5-0.4-0.7-0.5C3.5,30.5,3.5,30,4,29.3
	c0.7-0.7,1.3-0.9,2.5-1.2c3.6-0.8,6.8,0.4,8,2.7c0.3,0.5,0.5,1.1,0.5,1.9c0,2.7-2,4.1-5.1,4.9c-0.4,0.1-0.7,0.1-1.1,0.3
	c-2,0.4-3.9,0.3-5.1-0.9c-0.4-0.4-0.4-1.1,0.1-1.5c0.5-0.3,0.8-0.3,1.5-0.3c0.4,0,0.7,0.1,0.8,0.3c-1.1,0.1-1.1,1.5,0.3,1.5
	c2.4,0,2-2.7-1.5-2.7c-1.2,0-2.4,0.7-2.8,1.3c-0.5,0.8,0.1,2,1.2,2.5c0.4,0.1,1.1,0.5,1.6,0.5v0.1c-0.8,0.1-1.9,0.7-2.3,1.1
	c-0.4,0.4-0.5,0.7-0.7,1.2c-0.1,0.9,0.5,1.6,1.7,1.9c0.4,0.1,0.8,0.3,1.3,0.3c1.9,0,3.7-1.2,2.5-2.3c-0.9-0.8-2.9-0.1-2,0.8
	c0.1,0.1,0.4,0.3,0.4,0.4c-2,0.7-3.9-0.9-1.5-2.1c1.7-0.8,4-0.5,5.7,0c1.2,0.4,2.1,0.8,2.9,1.3c0.1,0.1,0.3,0.3,0.4,0.4
	c1.5,1.5,1.6,3.3,0.8,4.9c-0.4,0.7-0.7,0.9-1.2,1.5c-0.5,0.4-1.2,0.8-1.9,1.1c-0.5,0.1-2.1,0.4-2.9,0.4c-1.2,0-2.5-0.4-3.3-0.7
	c-0.9-0.4-1.6-1.1-1.6-1.7c0-0.8,0.9-1.6,1.9-1.9c0.9-0.3,1.9-0.4,2.8,0c0.4,0.1,0.7,0.4,0.7,0.8c-0.4-0.1-0.7-0.1-1.1-0.1
	c-1.5,0-2,1.6-0.5,2c1.1,0.3,2.4,0.1,3.1-0.5c1.1-0.9,0.5-2.1-0.7-2.8c-0.9-0.4-2-0.7-3.2-0.7c-0.4,0-1.5,0.1-1.7,0.3
	c-0.5,0.1-0.9,0.4-1.3,0.5c-0.4,0.3-0.7,0.5-0.9,0.9c-0.3,0.4-0.4,0.8-0.4,1.2v0.3c0,0.8,0.4,1.5,1.2,2c1.1,0.8,3.1,1.5,5.1,1.5
	c0.5,0,0.8,0,1.3,0c0.4,0,0.9-0.1,1.2-0.1c-0.4,0.4-2.5,1.6-3.3,2.1c-2.3,1.6-5.3,3.9-5.3,6c0,0.7,0.1,1.5,0.5,2
	c0.1,0.3,0.3,0.4,0.5,0.5c0.1,0.1,0.1,0.1,0.3,0.3c0.9,0.5,1.7,1.2,3.1,1.3l0.9,0.1L7.9,63c0.3,0,1.1,0,1.2-0.1
	c1.6-0.4,3.1-0.7,3.9-1.9c0.7-0.9,0.7-2-0.1-2.8c-1.6-1.6-5.1-1.1-5.1,0.4c0,0.4,0.1,0.7,0.5,0.9c0.7,0.4,1.5,0.4,2.3,0.3
	c0.5-0.1,0.4-0.3,0.7-0.4c0.8,0.9-0.7,2.3-2.8,2.3c-1.3,0-2.1-0.3-3.1-0.8c-0.4-0.3-0.7-0.5-0.8-0.8c-0.8-1.2,0-2.7,1.1-3.6
	c0.7-0.7,1.5-1.3,2.3-2l5.3-3.5c0,1.7,0.8,3.2,3.1,3.9c2.5,0.8,5.6,0.5,7.3-0.9c1.6-1.3,1.3-3.3-0.9-4.1c-1.1-0.4-3.1-0.5-4,0.1
	c-0.9,0.7-0.9,2.1,0.9,2.1c0.8,0,1.7-0.4,1.7-0.9c0-0.1-0.1-0.3-0.1-0.4c0.3,0.1,0.4,0,0.8,0.1c1.3,0.5,1.2,2.1-0.1,2.8
	c-1.6,0.9-5.6,0.8-6.7-1.3c-0.7-1.3-0.4-1.9,0.3-3.2c0.3-0.5,0.5-1.2,0.8-1.7c0.9-2.1,1.1-5.1-1.5-6.8c-0.8-0.5-1.3-0.9-2.4-1.3
	c-0.4-0.1-0.8-0.3-1.2-0.4c-0.3,0-0.4-0.1-0.7-0.1s-0.5-0.1-0.7-0.1c0.7,0,1.9-0.5,2.5-0.7c1.1-0.4,2-1.1,2.8-1.6
	c0.5-0.4,0.9-0.9,1.2-1.5c1.9-3.5-1.6-6.9-1.6-8.7c0-0.8,0.4-1.6,1.1-2.1c1.5-1.3,5.7-1.3,6.8,0.4c0.3,0.5,0.4,0.8,0,1.3
	c-0.3,0.4-0.8,0.8-1.5,0.8c0.1-0.1,0.1-0.1,0.1-0.3c0-0.9-2-1.3-2.9-0.7s-0.3,1.9,0.9,2.1c0.4,0.1,0.9,0.1,1.3,0.1
	c3.7,0,4.8-2.9,2.8-4.5L22.8,23C21.7,21.8,20.5,21.4,18.9,21.4"/>
<path class="st0" d="M27.4,36.2c-1.7,0-2.1,0.1-3.7,0.5c-0.5,0.1-0.9,0.3-1.5,0.4c-1.6,0.4-3.1,0.5-4.9,0.7l-3.6,0.3
	c0.1,0.1,0.1,0.1,0.8,0.1c0.4,0,0.5,0,0.9,0.1c1.6,0.1,3.7,0.4,5.3,0.7c1.1,0.1,2.3,0.4,3.3,0.5c2.5,0.5,5.1,0.9,6.9-0.5
	c0.4-0.3,0.4-0.7,0.4-0.9l0,0C31.4,36.9,29.3,36.2,27.4,36.2"/>
<path class="st0" d="M15.4,39.5c0.1,0.1,0.1,0.1,0.3,0.1c0.1,0.1,0.1,0.1,0.3,0.1c0.5,0.3,1.3,0.7,1.7,1.1c2.8,2.1,1.9,2.3,3.2,3.6
	c0.5,0.5,1.3,1.3,2.5,1.3c1.1,0,1.7-0.7,1.7-1.1c0-0.8-0.1-1.2-0.9-1.7c-1.7-1.5-4.5-2.3-7.2-2.9C16.8,39.8,15.8,39.5,15.4,39.5"/>
<path class="st0" d="M23.6,30.8c-0.8,0-1.2,0.1-1.6,0.4c-0.9,0.5-1.2,1.1-1.7,1.7c-0.1,0.1-0.1,0.3-0.3,0.5
	c-0.1,0.1-0.3,0.3-0.4,0.5c-0.3,0.5-0.8,0.9-1.3,1.3l-0.5,0.4c-0.1,0.1-0.4,0.3-0.5,0.4l-1.5,0.8c-0.1,0.1-0.1,0-0.3,0.3
	c0.5-0.1,1.2-0.3,1.6-0.4c1.7-0.4,2.8-0.7,4.4-1.3c1.3-0.5,3.9-1.9,3.9-3.1C25.3,31.5,24.9,30.8,23.6,30.8"/>
<path class="st0" d="M56.2,18.2c0-0.9-0.3-2-0.4-2.5c-0.1-0.4-0.3-0.7-0.4-0.9c-0.9-1.7-2-2.3-3.6-2.3c0.1-0.4,2.5-4.1,2.9-4.7
	l1.9-2.4c1.5-1.7,3.5-2.9,5.1-0.8c0.5,0.7,0.8,1.9,0.8,2.9c0,1.6-0.4,2.8-1.3,3.1c-0.4,0.1-0.5,0-0.8-0.1l0,0l0,0
	c0.1-0.3,0.3-0.4,0.4-0.7c0.3-1.2-0.3-2.7-1.1-2.7c-0.4,0-0.9,0.1-1.2,0.7c-0.5,1.1-0.5,2.3-0.1,3.3c0.5,1.5,1.7,1.9,2.8,1.3
	c1.1-0.5,1.6-1.3,2.1-2.9c0.1-0.5,0.3-1.2,0.3-1.9V7.2c0-0.8-0.1-1.6-0.4-2.3c0-0.1-0.1-0.3-0.1-0.4c-0.4-0.9-1.2-2-1.7-2.4
	c-1.5-0.9-3.3-0.5-4.7,0.7c-1.1,0.9-2,2.1-2.9,3.5c-0.1,0.1-0.1,0.1-0.3,0.3L53,7.2l0,0l-0.1,0.1c-0.4,0.5-0.7,1.2-1.1,1.7l-0.4,0.5
	c-0.1,0.3-0.3,0.4-0.4,0.7c0-1.2,0.1-0.9,0.1-2.8c0-2.9-1.5-6.1-3.5-6.1c-1.1,0-1.9,0.3-2.5,1.3c-0.5,0.8-0.8,2.3-0.8,3.3
	c0,1.5,0.5,3.2,1.2,3.9c0.8,0.7,1.6,0.7,2.4-0.3c0.7-0.9,0.8-3.9-0.7-3.9c-0.3,0-0.5,0.1-0.7,0.4c-0.3,0.3-0.4,0.7-0.4,1.3
	c0,0.4,0.1,0.5,0.1,0.8c-0.8-0.1-1.1-1.1-1.1-2.3c0-0.8,0.4-1.6,0.7-2.1c0.1-0.3,0.4-0.5,0.5-0.7c0.7-0.4,1.2-0.4,1.9,0.1
	C49,4,49.3,4.6,49.6,5.8c0.8,3.6-0.4,6.8-2.7,8c-0.5,0.3-1.1,0.5-1.9,0.5c-2.7,0-4.1-2-4.9-5.1C40,8.9,40,8.6,39.8,8.2
	c-0.4-2-0.3-3.9,0.9-5.1c0.4-0.4,1.1-0.4,1.5,0.1c0.3,0.5,0.3,0.8,0.3,1.5c0,0.4-0.1,0.7-0.3,0.8c-0.1-1.1-1.5-1.1-1.5,0.3
	c0,2.4,2.7,2,2.7-1.5c0-1.2-0.7-2.4-1.3-2.8c-0.8-0.5-2,0.1-2.5,1.2C39.4,3.2,39,3.8,39,4.4h0.5c-0.1-0.8-0.7-1.9-1.1-2.3
	c-0.4-0.4-0.7-0.5-1.2-0.7c-0.9-0.1-1.6,0.5-1.9,1.7c-0.1,0.4-0.3,0.8-0.3,1.3c0,1.9,1.2,3.7,2.3,2.5c0.8-0.9,0.1-2.9-0.8-2
	c-0.1,0.1-0.3,0.4-0.4,0.4c-0.7-2,0.9-3.9,2.1-1.5c0.8,1.7,0.5,4,0,5.7c-0.4,1.2-0.8,2.1-1.3,2.9c-0.1,0.1-0.3,0.3-0.4,0.4
	c-1.5,1.5-3.3,1.6-4.9,0.8c-0.7-0.4-0.9-0.7-1.5-1.2c-0.4-0.5-0.8-1.2-1.1-1.9c-0.1-0.5-0.4-2.1-0.4-2.9c0-1.2,0.4-2.5,0.7-3.3
	c0.4-0.9,1.1-1.6,1.7-1.6c0.8,0,1.6,0.9,1.9,1.9c0.3,0.9,0.4,1.9,0,2.8c-0.1,0.4-0.4,0.7-0.8,0.7c0.1-0.4,0.1-0.7,0.1-1.1
	c0-1.5-1.6-2-2-0.5c-0.3,1.1-0.1,2.4,0.5,3.1c0.9,1.1,2.1,0.5,2.8-0.7c0.4-0.9,0.7-2,0.7-3.2c0-0.4-0.1-1.5-0.3-1.7
	c-0.1-0.5-0.4-0.9-0.5-1.3c-0.3-0.4-0.5-0.7-0.9-0.9s-0.8-0.4-1.2-0.4h-0.3c-0.8,0-1.5,0.4-2,1.2c-0.8,1.1-1.5,3.1-1.5,5.1
	c0,0.5,0,0.8,0,1.3c0,0.4,0.1,0.9,0.1,1.2c-0.4-0.4-1.6-2.7-2.1-3.3c-1.6-2.3-3.9-5.3-6-5.3c-0.7,0-1.5,0.1-2,0.5
	c-0.3,0.1-0.4,0.3-0.5,0.5C17,2.8,17,2.8,16.9,2.9c-0.5,0.9-1.2,1.7-1.3,3.1l-0.1,0.9l-0.1,0.3c0,0.3,0,1.1,0.1,1.2
	c0.4,1.7,0.7,3.1,1.9,3.9c0.9,0.7,2,0.7,2.8-0.1c1.6-1.6,1.1-5.1-0.4-5.1c-0.4,0-0.7,0.1-0.9,0.5c-0.4,0.7-0.4,1.5-0.3,2.3
	c0.1,0.5,0.3,0.4,0.4,0.7c-0.9,0.8-2.3-0.7-2.3-2.8c0-1.3,0.3-2.1,0.8-3.1C17.7,4.2,18,4,18.2,3.8c1.2-0.8,2.7,0,3.6,1.1
	c0.7,0.7,1.3,1.5,2,2.3l3.5,5.3c-1.7,0-3.2,0.8-3.9,3.1c-0.8,2.5-0.5,5.6,0.9,7.3c1.3,1.6,3.3,1.3,4.1-0.9c0.4-1.1,0.5-3.1-0.1-4
	c-0.7-0.9-2.1-0.9-2.1,0.9c0,0.8,0.4,1.7,0.9,1.7c0.1,0,0.3-0.1,0.4-0.1c-0.1,0.3,0,0.4-0.1,0.8c-0.5,1.3-2.1,1.2-2.8-0.1
	c-0.9-1.6-0.8-5.6,1.3-6.7c1.3-0.7,1.9-0.4,3.2,0.3c0.5,0.3,1.2,0.5,1.7,0.8c2.1,0.9,5.1,1.1,6.8-1.5c0.5-0.8,0.9-1.3,1.3-2.4
	c0.1-0.4,0.3-0.8,0.4-1.2c0-0.3,0.1-0.4,0.1-0.7c0-0.3,0.1-0.5,0.1-0.7c0,0.7,0.5,1.9,0.7,2.5c0.4,1.1,1.1,2,1.6,2.8
	c0.4,0.5,0.9,0.9,1.5,1.2c3.5,1.9,6.9-1.6,8.7-1.6c0.8,0,1.6,0.4,2.1,1.1c1.3,1.5,1.3,5.7-0.4,6.8c-0.5,0.3-0.8,0.4-1.3,0
	c-0.4-0.3-0.8-0.8-0.8-1.5c0.1,0.1,0.1,0.1,0.3,0.1c0.9,0,1.3-2,0.7-2.9s-1.9-0.3-2.1,0.9c-0.1,0.4-0.1,0.9-0.1,1.3
	c0,3.7,2.9,4.8,4.5,2.8l0.4-0.7C55.8,21.2,56.2,20,56.2,18.2"/>
<path class="st0" d="M41.6,26.9c0-1.7-0.1-2.1-0.5-3.7c-0.1-0.5-0.3-0.9-0.4-1.5c-0.4-1.6-0.5-3.1-0.7-4.9l-0.3-3.6
	c-0.1,0.1-0.1,0.1-0.1,0.8c0,0.4,0,0.5-0.1,0.9c-0.1,1.6-0.4,3.7-0.7,5.3c-0.1,1.1-0.4,2.3-0.5,3.3c-0.5,2.5-0.9,5.1,0.5,6.9
	c0.3,0.4,0.7,0.4,0.9,0.4l0,0C40.8,30.8,41.6,28.6,41.6,26.9"/>
<path class="st0" d="M38.2,14.9c-0.1,0.1-0.1,0.1-0.1,0.3C38,15.3,38,15.3,38,15.4c-0.3,0.5-0.7,1.3-1.1,1.7
	c-2.1,2.8-2.3,1.9-3.6,3.2c-0.5,0.5-1.3,1.3-1.3,2.5c0,1.1,0.7,1.7,1.1,1.7c0.8,0,1.2-0.1,1.7-0.9c1.5-1.7,2.3-4.5,2.9-7.2
	C38,16.2,38.2,15.3,38.2,14.9"/>
<path class="st0" d="M46.9,23c0-0.8-0.1-1.2-0.4-1.6c-0.5-0.9-1.1-1.2-1.7-1.7c-0.1-0.1-0.3-0.1-0.5-0.3c-0.1-0.1-0.3-0.3-0.5-0.4
	c-0.5-0.3-0.9-0.8-1.3-1.3L42,17.2c-0.1-0.1-0.3-0.4-0.4-0.5l-0.8-1.5c-0.1-0.1,0-0.1-0.3-0.3c0.1,0.5,0.3,1.2,0.4,1.6
	c0.4,1.7,0.7,2.8,1.3,4.4c0.5,1.3,1.9,3.9,3.1,3.9C46.1,24.8,46.9,24.2,46.9,23"/>
<path class="st0" d="M18.8,770.9c-0.9,0-2-0.3-2.5-0.4c-0.4-0.1-0.7-0.3-0.9-0.4c-1.7-0.9-2.3-2-2.3-3.6c-0.4,0.1-4.1,2.5-4.7,2.9
	L6,771.3c-1.7,1.5-2.9,3.5-0.8,5.1c0.7,0.5,1.9,0.8,2.9,0.8c1.6,0,2.8-0.4,3.1-1.3c0.1-0.4,0-0.5-0.1-0.8l0,0l0,0
	c-0.3,0.1-0.4,0.3-0.7,0.4c-1.2,0.3-2.7-0.3-2.7-1.1c0-0.4,0.1-0.9,0.7-1.2c1.1-0.5,2.3-0.5,3.3-0.1c1.5,0.5,1.9,1.7,1.3,2.8
	c-0.5,1.1-1.3,1.6-2.9,2.1c-0.5,0.1-1.2,0.3-1.9,0.3H7.6c-0.8,0-1.6-0.1-2.3-0.4c-0.1,0-0.3-0.1-0.4-0.1c-0.9-0.4-2-1.2-2.4-1.7
	c-0.9-1.5-0.5-3.3,0.7-4.7c0.9-1.1,2.1-2,3.5-2.9c0.1-0.1,0.1-0.1,0.3-0.3l0.7-0.4l0,0l0.1-0.1c0.5-0.4,1.2-0.7,1.7-1.1l0.5-0.4
	c0.3-0.1,0.4-0.3,0.7-0.4c-1.2,0-0.9,0.1-2.8,0.1c-2.9,0-6.1-1.5-6.1-3.5c0-1.1,0.3-1.9,1.3-2.5c0.8-0.5,2.3-0.8,3.3-0.8
	c1.5,0,3.2,0.5,3.9,1.2c0.7,0.8,0.7,1.6-0.3,2.4c-0.9,0.7-3.9,0.8-3.9-0.7c0-0.3,0.1-0.5,0.4-0.7c0.3-0.3,0.7-0.4,1.3-0.4
	c0.4,0,0.5,0.1,0.8,0.1c-0.1-0.8-1.1-1.1-2.3-1.1c-0.8,0-1.6,0.4-2.1,0.7c-0.3,0.1-0.5,0.4-0.7,0.5c-0.4,0.7-0.4,1.2,0.1,1.9
	c0.7,0.7,1.3,0.9,2.5,1.2c3.6,0.8,6.8-0.4,8-2.7c0.3-0.5,0.5-1.1,0.5-1.9c0-2.7-2-4.1-5.1-4.9c-0.4-0.1-0.7-0.1-1.1-0.3
	c-2-0.4-3.9-0.3-5.1,0.9c-0.4,0.4-0.4,1.1,0.1,1.5c0.5,0.3,0.8,0.3,1.5,0.3c0.4,0,0.7-0.1,0.8-0.3c-1.1-0.1-1.1-1.5,0.3-1.5
	c2.4,0,2,2.7-1.5,2.7c-1.2,0-2.4-0.7-2.8-1.3c-0.5-0.8,0.1-2,1.2-2.5c0.4-0.1,1.1-0.5,1.6-0.5v0.4c-0.8-0.1-1.9-0.7-2.3-1.1
	c-0.4-0.4-0.5-0.7-0.7-1.2c-0.1-0.9,0.5-1.6,1.7-1.9c0.4-0.1,0.8-0.3,1.3-0.3c1.9,0,3.7,1.2,2.5,2.3c-0.9,0.8-2.9,0.1-2-0.8
	c0.1-0.1,0.4-0.3,0.4-0.4c-2-0.7-3.9,0.9-1.5,2.1c1.7,0.8,4,0.5,5.7,0c1.2-0.4,2.1-0.8,2.9-1.3c0.1-0.1,0.3-0.3,0.4-0.4
	c1.5-1.5,1.6-3.3,0.8-4.9c-0.4-0.7-0.7-0.9-1.2-1.5c-0.5-0.4-1.2-0.8-1.9-1.1c-0.5-0.1-2.1-0.4-2.9-0.4c-1.2,0-2.5,0.4-3.3,0.7
	c-0.9,0.4-1.6,1.1-1.6,1.7c0,0.8,0.9,1.6,1.9,1.9s1.9,0.4,2.8,0c0.4-0.1,0.7-0.4,0.7-0.8c-0.4,0.1-0.7,0.1-1.1,0.1
	c-1.5,0-2-1.6-0.5-2c1.1-0.3,2.4-0.1,3.1,0.5c1.1,0.9,0.5,2.1-0.7,2.8c-0.9,0.4-2,0.7-3.2,0.7c-0.4,0-1.5-0.1-1.7-0.3
	c-0.5-0.1-0.9-0.4-1.3-0.5c-0.4-0.3-0.7-0.5-0.9-0.9s-0.4-0.8-0.4-1.2v-0.3c0-0.8,0.4-1.5,1.2-2c1.1-0.8,3.1-1.5,5.1-1.5
	c0.5,0,0.8,0,1.3,0c0.4,0,0.9,0.1,1.2,0.1c-0.4-0.4-2.5-1.6-3.3-2.1c-2.3-1.6-5.3-3.9-5.3-6c0-0.7,0.1-1.5,0.5-2
	c0.1-0.3,0.3-0.4,0.5-0.5c0.1-0.1,0.1-0.1,0.3-0.3c0.9-0.5,1.7-1.2,3.1-1.3l0.9-0.1l0.3-0.1c0.3,0,1.1,0,1.2,0.1
	c1.6,0.4,3.1,0.7,3.9,1.9c0.7,0.9,0.7,2-0.1,2.8c-1.6,1.6-5.1,1.1-5.1-0.4c0-0.4,0.1-0.7,0.5-0.9c0.7-0.4,1.5-0.4,2.3-0.3
	c0.5,0.1,0.4,0.3,0.7,0.4c0.8-0.9-0.7-2.3-2.8-2.3c-1.3,0-2.1,0.3-3.1,0.8c-0.4,0.3-0.7,0.5-0.8,0.8c-0.8,1.2,0,2.7,1.1,3.6
	c0.7,0.7,1.5,1.3,2.3,2l5.3,3.5c0-1.7,0.8-3.2,3.1-3.9c2.5-0.8,5.6-0.5,7.3,0.9c1.6,1.3,1.3,3.3-0.9,4.1c-1.1,0.4-3.1,0.5-4-0.1
	c-0.9-0.7-0.9-2.1,0.9-2.1c0.8,0,1.7,0.4,1.7,0.9c0,0.1-0.1,0.3-0.1,0.4c0.3-0.1,0.4,0,0.8-0.1c1.3-0.5,1.2-2.1-0.1-2.8
	c-1.6-0.9-5.6-0.8-6.7,1.3c-0.7,1.3-0.4,1.9,0.3,3.2c0.3,0.5,0.5,1.2,0.8,1.7c0.9,2.1,1.1,5.1-1.5,6.8c-0.8,0.5-1.3,0.9-2.4,1.3
	c-0.4,0.1-0.8,0.3-1.2,0.4c-0.3,0-0.4,0.1-0.7,0.1c-0.3,0-0.5,0.1-0.7,0.1c0.7,0,1.9,0.5,2.5,0.7c1.1,0.4,2,1.1,2.8,1.6
	c0.5,0.4,0.9,0.9,1.2,1.5c1.9,3.5-1.6,6.9-1.6,8.7c0,0.8,0.4,1.6,1.1,2.1c1.5,1.3,5.7,1.3,6.8-0.4c0.3-0.5,0.4-0.8,0-1.3
	c-0.3-0.4-0.8-0.8-1.5-0.8c0.1,0.1,0.1,0.1,0.1,0.3c0,0.9-2,1.3-2.9,0.7c-0.9-0.7-0.3-1.9,0.9-2.1c0.4-0.1,0.9-0.1,1.3-0.1
	c3.7,0,4.8,2.9,2.8,4.5l-0.7,0.4C21.7,770.5,20.4,770.9,18.8,770.9"/>
<path class="st0" d="M27.4,756.3c-1.7,0-2.1-0.1-3.7-0.5c-0.5-0.1-0.9-0.3-1.5-0.4c-1.6-0.4-3.1-0.5-4.9-0.7l-3.6-0.3
	c0.1-0.1,0.1-0.1,0.8-0.1c0.4,0,0.5,0,0.9-0.1c1.6-0.1,3.7-0.4,5.2-0.7c1.1-0.1,2.3-0.4,3.3-0.5c2.5-0.5,5.1-0.9,6.9,0.5
	c0.4,0.3,0.4,0.7,0.4,0.9l0,0C31.3,755.5,29.2,756.3,27.4,756.3"/>
<path class="st0" d="M15.3,752.9c0.1-0.1,0.1-0.1,0.3-0.1c0.1-0.1,0.1-0.1,0.3-0.1c0.5-0.3,1.3-0.7,1.7-1.1c2.8-2.1,1.9-2.3,3.2-3.6
	c0.5-0.5,1.3-1.3,2.5-1.3c1.1,0,1.7,0.7,1.7,1.1c0,0.8-0.1,1.2-0.9,1.7c-1.7,1.5-4.5,2.3-7.2,2.9C16.6,752.7,15.7,752.8,15.3,752.9"
	/>
<path class="st0" d="M23.6,761.6c-0.8,0-1.2-0.1-1.6-0.4c-0.9-0.5-1.2-1.1-1.7-1.7c-0.1-0.1-0.1-0.3-0.3-0.5
	c-0.1-0.1-0.3-0.3-0.4-0.5c-0.3-0.5-0.8-0.9-1.3-1.3l-0.5-0.4c-0.1-0.1-0.4-0.3-0.5-0.4l-1.5-0.8c-0.1-0.1-0.1,0-0.3-0.3
	c0.5,0.1,1.2,0.3,1.6,0.4c1.7,0.4,2.8,0.7,4.4,1.3c1.3,0.5,3.9,1.9,3.9,3.1C25.2,760.8,24.8,761.6,23.6,761.6"/>
<path class="st0" d="M56.1,774.1c0,0.9-0.3,2-0.4,2.5c-0.1,0.4-0.3,0.7-0.4,0.9c-0.9,1.7-2,2.3-3.6,2.3c0.1,0.4,2.5,4.1,2.9,4.7
	l1.9,2.4c1.5,1.7,3.5,2.9,5.1,0.8c0.5-0.7,0.8-1.9,0.8-2.9c0-1.6-0.4-2.8-1.3-3.1c-0.4-0.1-0.5,0-0.8,0.1l0,0l0,0
	c0.1,0.3,0.3,0.4,0.4,0.7c0.3,1.2-0.3,2.7-1.1,2.7c-0.4,0-0.9-0.1-1.2-0.7c-0.5-1.1-0.5-2.3-0.1-3.3c0.5-1.5,1.7-1.9,2.8-1.3
	c1.1,0.5,1.6,1.3,2.1,2.9c0.1,0.5,0.3,1.2,0.3,1.9v0.5c0,0.8-0.1,1.6-0.4,2.3c0,0.1-0.1,0.3-0.1,0.4c-0.4,0.9-1.2,2-1.7,2.4
	c-1.5,0.9-3.3,0.5-4.7-0.7c-1.1-0.9-2-2.1-2.9-3.5c-0.1-0.1-0.1-0.1-0.3-0.3l-0.4-0.7l0,0l-0.1-0.1c-0.4-0.5-0.7-1.2-1.1-1.7
	l-0.4-0.5c-0.1-0.3-0.3-0.4-0.4-0.7c0,1.2,0.1,0.9,0.1,2.8c0,2.9-1.5,6.1-3.5,6.1c-1.1,0-1.9-0.3-2.5-1.3c-0.5-0.8-0.8-2.3-0.8-3.3
	c0-1.5,0.5-3.2,1.2-3.9c0.8-0.7,1.6-0.7,2.4,0.3c0.7,0.9,0.8,3.9-0.7,3.9c-0.3,0-0.5-0.1-0.7-0.4c-0.3-0.3-0.4-0.7-0.4-1.3
	c0-0.4,0.1-0.5,0.1-0.8c-0.8,0.1-1.1,1.1-1.1,2.3c0,0.8,0.4,1.6,0.7,2.1c0.1,0.3,0.4,0.5,0.5,0.7c0.7,0.4,1.2,0.4,1.9-0.1
	c0.7-0.7,0.9-1.3,1.2-2.5c0.8-3.6-0.4-6.8-2.7-8c-0.5-0.3-1.1-0.5-1.9-0.5c-2.7,0-4.1,2-4.9,5.1c-0.1,0.4-0.1,0.7-0.3,1.1
	c-0.4,2-0.3,3.9,0.9,5.1c0.4,0.4,1.1,0.4,1.5-0.1c0.3-0.5,0.3-0.8,0.3-1.5c0-0.4-0.1-0.7-0.3-0.8c-0.1,1.1-1.5,1.1-1.5-0.3
	c0-2.4,2.7-2,2.7,1.5c0,1.2-0.7,2.4-1.3,2.8c-0.8,0.5-2-0.1-2.5-1.2c-0.1-0.4-0.5-1.1-0.5-1.6h-0.1c-0.1,0.8-0.7,1.9-1.1,2.3
	c-0.4,0.4-0.7,0.5-1.2,0.7c-0.9,0.1-1.6-0.5-1.9-1.7c-0.1-0.4-0.3-0.8-0.3-1.3c0-1.9,1.2-3.7,2.3-2.5c0.8,0.9,0.1,2.9-0.8,2
	c-0.1-0.1-0.3-0.4-0.4-0.4c-0.7,2,0.9,3.9,2.1,1.5c0.8-1.7,0.5-4,0-5.7c-0.4-1.2-0.8-2.1-1.3-2.9c-0.1-0.1-0.3-0.3-0.4-0.4
	c-1.5-1.5-3.3-1.6-4.9-0.8c-0.7,0.4-0.9,0.7-1.5,1.2c-0.4,0.5-0.8,1.2-1.1,1.9c-0.1,0.5-0.4,2.1-0.4,2.9c0,1.2,0.4,2.5,0.7,3.3
	c0.4,0.9,1.1,1.6,1.7,1.6c0.8,0,1.6-0.9,1.9-1.9c0.3-0.9,0.4-1.9,0-2.8c-0.1-0.4-0.4-0.7-0.8-0.7c0.1,0.4,0.1,0.7,0.1,1.1
	c0,1.5-1.6,2-2,0.5c-0.3-1.1-0.1-2.4,0.5-3.1c0.9-1.1,2.1-0.5,2.8,0.7c0.4,0.9,0.7,2,0.7,3.2c0,0.4-0.1,1.5-0.3,1.7
	c-0.1,0.5-0.4,0.9-0.5,1.3c-0.3,0.4-0.5,0.7-0.9,0.9s-0.8,0.4-1.2,0.4h-0.3c-0.8,0-1.5-0.4-2-1.2c-0.8-1.1-1.5-3.1-1.5-5.1
	c0-0.5,0-0.8,0-1.3c0-0.4,0.1-0.9,0.1-1.2c-0.4,0.4-1.6,2.5-2.1,3.3c-1.6,2.3-3.9,5.3-6,5.3c-0.7,0-1.5-0.1-2-0.5
	c-0.3-0.1-0.4-0.3-0.5-0.5c-0.1-0.1-0.1-0.1-0.3-0.3c-0.5-0.9-1.2-1.7-1.3-3.1l-0.1-0.9l-0.1-0.3c0-0.3,0-1.1,0.1-1.2
	c0.4-1.7,0.7-3.1,1.9-3.9c0.9-0.7,2-0.7,2.8,0.1c1.6,1.6,1.1,5.1-0.4,5.1c-0.4,0-0.7-0.1-0.9-0.5c-0.4-0.7-0.4-1.5-0.3-2.3
	c0.1-0.5,0.3-0.4,0.4-0.7c-0.9-0.8-2.3,0.7-2.3,2.8c0,1.3,0.3,2.1,0.8,3.1c0.3,0.4,0.5,0.7,0.8,0.8c1.2,0.8,2.7,0,3.6-1.1
	c0.7-0.7,1.3-1.5,2-2.3l3.5-5.3c-1.7,0-3.2-0.8-3.9-3.1c-0.8-2.5-0.5-5.6,0.9-7.3c1.3-1.6,3.3-1.3,4.1,0.9c0.4,1.1,0.5,3.1-0.1,4
	c-0.7,0.9-2.1,0.9-2.1-0.9c0-0.8,0.4-1.7,0.9-1.7c0.1,0,0.3,0.1,0.4,0.1c-0.1-0.3,0-0.4-0.1-0.8c-0.5-1.3-2.1-1.2-2.8,0.1
	c-0.9,1.6-0.8,5.6,1.3,6.7c1.3,0.7,1.9,0.4,3.2-0.3c0.5-0.3,1.2-0.5,1.7-0.8c2.1-0.9,5.1-1.1,6.8,1.5c0.5,0.8,0.9,1.3,1.3,2.4
	c0.1,0.4,0.3,0.8,0.4,1.2c0,0.3,0.1,0.4,0.1,0.7c0,0.3,0.1,0.5,0.1,0.7c0-0.7,0.5-1.9,0.7-2.5c0.4-1.1,1.1-2,1.6-2.8
	c0.4-0.5,0.9-0.9,1.5-1.2c3.5-1.9,6.9,1.6,8.7,1.6c0.8,0,1.6-0.4,2.1-1.1c1.3-1.5,1.3-5.7-0.4-6.8c-0.5-0.3-0.8-0.4-1.3,0
	c-0.4,0.3-0.8,0.8-0.8,1.5c0.1-0.1,0.1-0.1,0.3-0.1c0.9,0,1.3,2,0.7,2.9c-0.7,0.9-1.9,0.3-2.1-0.9c-0.1-0.4-0.1-0.9-0.1-1.3
	c0-3.7,2.9-4.8,4.5-2.8l0.4,0.7C55.7,771.2,56.1,772.4,56.1,774.1"/>
<path class="st0" d="M41.4,765.5c0,1.7-0.1,2.1-0.5,3.7c-0.1,0.5-0.3,0.9-0.4,1.5c-0.4,1.6-0.5,3.1-0.7,4.9l-0.3,3.6
	c-0.1-0.1-0.1-0.1-0.1-0.8c0-0.4,0-0.5-0.1-0.9c-0.1-1.6-0.4-3.7-0.7-5.3c-0.1-1.1-0.4-2.3-0.5-3.3c-0.5-2.5-0.9-5.1,0.5-6.9
	c0.3-0.4,0.7-0.4,0.9-0.4l0,0C40.8,761.6,41.4,763.7,41.4,765.5"/>
<path class="st0" d="M38.1,777.6c-0.1-0.1-0.1-0.1-0.1-0.3c-0.1-0.1-0.1-0.1-0.1-0.3c-0.3-0.5-0.7-1.3-1.1-1.7
	c-2.1-2.8-2.3-1.9-3.6-3.2c-0.5-0.5-1.3-1.3-1.3-2.5c0-1.1,0.7-1.7,1.1-1.7c0.8,0,1.2,0.1,1.7,0.9c1.5,1.7,2.3,4.5,2.9,7.2
	C37.8,776.1,38.1,777.2,38.1,777.6"/>
<path class="st0" d="M46.8,769.3c0,0.8-0.1,1.2-0.4,1.6c-0.5,0.9-1.1,1.2-1.7,1.7c-0.1,0.1-0.3,0.1-0.5,0.3
	c-0.1,0.1-0.3,0.3-0.5,0.4c-0.5,0.3-0.9,0.8-1.3,1.3l-0.4,0.5c-0.1,0.1-0.3,0.4-0.4,0.5l-0.8,1.5c-0.1,0.1,0,0.1-0.3,0.3
	c0.1-0.5,0.3-1.2,0.4-1.6c0.4-1.7,0.7-2.8,1.3-4.4c0.5-1.3,1.9-3.9,3.1-3.9C46.1,767.7,46.8,768.1,46.8,769.3"/>
<path class="st0" d="M437.9,21.6c0.9,0,2,0.3,2.5,0.4c0.4,0.1,0.7,0.3,0.9,0.4c1.7,0.9,2.3,2,2.3,3.6c0.4-0.1,4.1-2.5,4.7-2.9
	l2.4-1.9c1.7-1.5,2.9-3.5,0.8-5.1c-0.7-0.5-1.9-0.8-2.9-0.8c-1.6,0-2.8,0.4-3.1,1.3c-0.1,0.4,0,0.5,0.1,0.8l0,0l0,0
	c0.3-0.1,0.4-0.3,0.7-0.4c1.2-0.3,2.7,0.3,2.7,1.1c0,0.4-0.1,0.9-0.7,1.2c-1.1,0.5-2.3,0.5-3.3,0.1c-1.5-0.5-1.9-1.7-1.3-2.8
	c0.5-1.1,1.3-1.6,2.9-2.1c0.5-0.1,1.2-0.3,1.9-0.3h0.5c0.8,0,1.6,0.1,2.3,0.4c0.1,0,0.3,0.1,0.4,0.1c0.9,0.4,2,1.2,2.4,1.7
	c0.9,1.5,0.5,3.3-0.7,4.7c-0.9,1.1-2.1,2-3.5,2.9c-0.1,0.1-0.1,0.1-0.3,0.3l-0.7,0.4l0,0l-0.1,0.1c-0.5,0.4-1.2,0.7-1.7,1.1
	l-0.5,0.4c-0.3,0.1-0.4,0.3-0.7,0.4c1.2,0,0.9-0.1,2.8-0.1c2.9,0,6.1,1.5,6.1,3.5c0,1.1-0.3,1.9-1.3,2.5c-0.8,0.5-2.3,0.8-3.3,0.8
	c-1.5,0-3.2-0.5-3.9-1.2c-0.7-0.8-0.7-1.6,0.3-2.4c0.9-0.7,3.9-0.8,3.9,0.7c0,0.3-0.1,0.5-0.4,0.7c-0.3,0.3-0.7,0.4-1.3,0.4
	c-0.4,0-0.5-0.1-0.8-0.1c0.1,0.8,1.1,1.1,2.3,1.1c0.8,0,1.6-0.4,2.1-0.7c0.3-0.1,0.5-0.4,0.7-0.5c0.4-0.7,0.4-1.2-0.1-1.9
	c-0.7-0.7-1.3-0.9-2.5-1.2c-3.6-0.8-6.8,0.4-8,2.7c-0.3,0.5-0.5,1.1-0.5,1.9c0,2.7,2,4.1,5.1,4.9c0.4,0.1,0.7,0.1,1.1,0.3
	c2,0.4,3.9,0.3,5.1-0.9c0.4-0.4,0.4-1.1-0.1-1.5c-0.5-0.3-0.8-0.3-1.5-0.3c-0.4,0-0.7,0.1-0.8,0.3c1.1,0.1,1.1,1.5-0.3,1.5
	c-2.4,0-2-2.7,1.5-2.7c1.2,0,2.4,0.7,2.8,1.3c0.5,0.8-0.1,2-1.2,2.5c-0.4,0.1-1.1,0.5-1.6,0.5v0.1c0.8,0.1,1.9,0.7,2.3,1.1
	c0.4,0.4,0.5,0.7,0.7,1.2c0.1,0.9-0.5,1.6-1.7,1.9c-0.4,0.1-0.8,0.3-1.3,0.3c-1.9,0-3.7-1.2-2.5-2.3c0.9-0.8,2.9-0.1,2,0.8
	c-0.1,0.1-0.4,0.3-0.4,0.4c2,0.7,3.9-0.9,1.5-2.1c-1.7-0.8-4-0.5-5.7,0c-1.2,0.4-2.1,0.8-2.9,1.3c-0.1,0.1-0.3,0.3-0.4,0.4
	c-1.5,1.5-1.6,3.3-0.8,4.9c0.4,0.7,0.7,0.9,1.2,1.5c0.5,0.4,1.2,0.8,1.9,1.1c0.5,0.1,2.1,0.4,2.9,0.4c1.2,0,2.5-0.4,3.3-0.7
	c0.9-0.4,1.6-1.1,1.6-1.7c0-0.8-0.9-1.6-1.9-1.9c-0.9-0.3-1.9-0.4-2.8,0c-0.4,0.1-0.7,0.4-0.7,0.8c0.4-0.1,0.7-0.1,1.1-0.1
	c1.5,0,2,1.6,0.5,2c-1.1,0.3-2.4,0.1-3.1-0.5c-1.1-0.9-0.5-2.1,0.7-2.8c0.9-0.4,2-0.7,3.2-0.7c0.4,0,1.5,0.1,1.7,0.3
	c0.5,0.1,0.9,0.4,1.3,0.5c0.4,0.3,0.7,0.5,0.9,0.9c0.3,0.4,0.4,0.8,0.4,1.2v0.3c0,0.8-0.4,1.5-1.2,2c-1.1,0.8-3.1,1.5-5.1,1.5
	c-0.5,0-0.8,0-1.3,0c-0.4,0-0.9-0.1-1.2-0.1c0.4,0.4,2.5,1.6,3.3,2.1c2.3,1.6,5.3,3.9,5.3,6c0,0.7-0.1,1.5-0.5,2
	c-0.1,0.3-0.3,0.4-0.5,0.5c-0.1,0.1-0.1,0.1-0.3,0.3c-0.9,0.5-1.7,1.2-3.1,1.3l-0.9,0.1l-0.3,0.1c-0.3,0-1.1,0-1.2-0.1
	c-1.7-0.4-3.1-0.7-3.9-1.9c-0.7-0.9-0.7-2,0.1-2.8c1.6-1.6,5.1-1.1,5.1,0.4c0,0.4-0.1,0.7-0.5,0.9c-0.7,0.4-1.5,0.4-2.3,0.3
	c-0.5-0.1-0.4-0.3-0.7-0.4c-0.8,0.9,0.7,2.3,2.8,2.3c1.3,0,2.1-0.3,3.1-0.8c0.4-0.3,0.7-0.5,0.8-0.8c0.8-1.2,0-2.7-1.1-3.6
	c-0.7-0.7-1.5-1.3-2.3-2l-5.3-3.5c0,1.7-0.8,3.2-3.1,3.9c-2.5,0.8-5.6,0.5-7.3-0.9c-1.6-1.3-1.3-3.3,0.9-4.1c1.1-0.4,3.1-0.5,4,0.1
	c0.9,0.7,0.9,2.1-0.9,2.1c-0.8,0-1.7-0.4-1.7-0.9c0-0.1,0.1-0.3,0.1-0.4c-0.3,0.1-0.4,0-0.8,0.1c-1.3,0.5-1.2,2.1,0.1,2.8
	c1.6,0.9,5.6,0.8,6.7-1.3c0.7-1.3,0.4-1.9-0.3-3.2c-0.3-0.5-0.5-1.2-0.8-1.7c-0.9-2.1-1.1-5.1,1.5-6.8c0.8-0.5,1.3-0.9,2.4-1.3
	c0.4-0.1,0.8-0.3,1.2-0.4c0.3,0,0.4-0.1,0.7-0.1s0.5-0.1,0.7-0.1c-0.7,0-1.9-0.5-2.5-0.7c-1.1-0.4-2-1.1-2.8-1.6
	c-0.5-0.4-0.9-0.9-1.2-1.5c-1.9-3.5,1.6-6.9,1.6-8.7c0-0.8-0.4-1.6-1.1-2.1c-1.5-1.3-5.7-1.3-6.8,0.4c-0.3,0.5-0.4,0.8,0,1.3
	c0.3,0.4,0.8,0.8,1.5,0.8c-0.1-0.1-0.1-0.1-0.1-0.3c0-0.9,2-1.3,2.9-0.7c0.9,0.7,0.3,1.9-0.9,2.1c-0.4,0.1-0.9,0.1-1.3,0.1
	c-3.7,0-4.8-2.9-2.8-4.5l0.7-0.4C435.1,22,436.3,21.6,437.9,21.6"/>
<path class="st0" d="M429.3,36.3c1.7,0,2.1,0.1,3.7,0.5c0.5,0.1,0.9,0.3,1.5,0.4c1.6,0.4,3.1,0.5,4.9,0.7l3.6,0.3
	c-0.1,0.1-0.1,0.1-0.8,0.1c-0.4,0-0.5,0-0.9,0.1c-1.6,0.1-3.7,0.4-5.3,0.7c-1.1,0.1-2.3,0.4-3.3,0.5c-2.5,0.5-5.1,0.9-6.9-0.5
	c-0.4-0.3-0.4-0.7-0.4-0.9l0,0C425.3,37,427.5,36.3,429.3,36.3"/>
<path class="st0" d="M441.3,39.7c-0.1,0.1-0.1,0.1-0.3,0.1c-0.1,0.1-0.1,0.1-0.3,0.1c-0.5,0.3-1.3,0.7-1.7,1.1
	c-2.8,2.1-1.9,2.3-3.2,3.6c-0.5,0.5-1.3,1.3-2.5,1.3c-1.1,0-1.7-0.7-1.7-1.1c0-0.8,0.1-1.2,0.9-1.7c1.7-1.5,4.5-2.3,7.2-2.9
	C440,39.8,440.9,39.7,441.3,39.7"/>
<path class="st0" d="M433.2,30.9c0.8,0,1.2,0.1,1.6,0.4c0.9,0.5,1.2,1.1,1.7,1.7c0.1,0.1,0.1,0.3,0.3,0.5c0.1,0.1,0.3,0.3,0.4,0.5
	c0.3,0.5,0.8,0.9,1.3,1.3l0.5,0.4c0.1,0.1,0.4,0.3,0.5,0.4l1.5,0.8c0.1,0.1,0.1,0,0.3,0.3c-0.5-0.1-1.2-0.3-1.6-0.4
	c-1.7-0.4-2.8-0.7-4.4-1.3c-1.3-0.5-3.9-1.9-3.9-3.1C431.5,31.7,431.9,30.9,433.2,30.9"/>
<path class="st0" d="M400.5,18.4c0-0.9,0.3-2,0.4-2.5c0.1-0.4,0.3-0.7,0.4-0.9c0.9-1.7,2-2.3,3.6-2.3c-0.1-0.4-2.5-4.1-2.9-4.7
	l-1.9-2.4c-1.5-1.7-3.5-2.9-5.1-0.8c-0.5,0.7-0.8,1.9-0.8,2.9c0,1.6,0.4,2.8,1.3,3.1c0.4,0.1,0.5,0,0.8-0.1l0,0l0,0
	c-0.1-0.3-0.3-0.4-0.4-0.7c-0.3-1.2,0.3-2.7,1.1-2.7c0.4,0,0.9,0.1,1.2,0.7c0.5,1.1,0.5,2.3,0.1,3.3c-0.5,1.5-1.7,1.9-2.8,1.3
	c-1.1-0.5-1.6-1.3-2.1-2.9c-0.1-0.5-0.3-1.2-0.3-1.9V7.3c0-0.8,0.1-1.6,0.4-2.3c0-0.1,0.1-0.3,0.1-0.4c0.4-0.9,1.2-2,1.7-2.4
	c1.5-0.9,3.3-0.5,4.7,0.7c1.1,0.9,2,2.1,2.9,3.5c0.1,0.1,0.1,0.1,0.3,0.3l0.4,0.7l0,0l0.1,0.1c0.4,0.5,0.7,1.2,1.1,1.7l0.4,0.5
	c0.1,0.3,0.3,0.4,0.4,0.7c0-1.2-0.1-0.9-0.1-2.8c0-2.9,1.5-6.1,3.5-6.1c1.1,0,1.9,0.3,2.5,1.3c0.5,0.8,0.8,2.3,0.8,3.3
	c0,1.5-0.5,3.2-1.2,3.9c-0.8,0.7-1.6,0.7-2.4-0.3c-0.7-0.9-0.8-3.9,0.7-3.9c0.3,0,0.5,0.1,0.7,0.4c0.3,0.3,0.4,0.7,0.4,1.3
	c0,0.4-0.1,0.5-0.1,0.8c0.8-0.1,1.1-1.1,1.1-2.3c0-0.8-0.4-1.6-0.7-2.1c-0.1-0.3-0.4-0.5-0.5-0.7c-0.7-0.4-1.2-0.4-1.9,0.1
	c-0.7,0.7-0.9,1.3-1.2,2.5c-0.8,3.6,0.4,6.8,2.7,8c0.5,0.3,1.1,0.5,1.9,0.5c2.7,0,4.1-2,4.9-5.1c0.1-0.4,0.1-0.7,0.3-1.1
	c0.4-2,0.3-3.9-0.9-5.1c-0.4-0.4-1.1-0.4-1.5,0.1c-0.3,0.5-0.3,0.8-0.3,1.5c0,0.4,0.1,0.7,0.3,0.8c0.1-1.1,1.5-1.1,1.5,0.3
	c0,2.4-2.7,2-2.7-1.5c0-1.2,0.7-2.4,1.3-2.8c0.8-0.5,2,0.1,2.5,1.2c0.1,0.4,0.5,1.1,0.5,1.6h0.1c0.1-0.8,0.7-1.9,1.1-2.3
	c0.4-0.4,0.7-0.5,1.2-0.7c0.9-0.1,1.6,0.5,1.9,1.7c0.1,0.4,0.3,0.8,0.3,1.3c0,1.9-1.2,3.7-2.3,2.5c-0.8-0.9-0.1-2.9,0.8-2
	c0.1,0.1,0.3,0.4,0.4,0.4c0.7-2-0.9-3.9-2.1-1.5c-0.8,1.7-0.5,4,0,5.7c0.4,1.2,0.8,2.1,1.3,2.9c0.1,0.1,0.3,0.3,0.4,0.4
	c1.5,1.5,3.3,1.6,4.9,0.8c0.7-0.4,0.9-0.7,1.5-1.2c0.4-0.5,0.8-1.2,1.1-1.9c0.1-0.5,0.4-2.1,0.4-2.9c0-1.2-0.4-2.5-0.7-3.3
	c-0.4-0.9-1.1-1.6-1.7-1.6c-0.8,0-1.6,0.9-1.9,1.9c-0.3,0.9-0.4,1.9,0,2.8c0.1,0.4,0.4,0.7,0.8,0.7c-0.1-0.4-0.1-0.7-0.1-1.1
	c0-1.5,1.6-2,2-0.5c0.3,1.1,0.1,2.4-0.5,3.1c-0.9,1.1-2.1,0.5-2.8-0.7c-0.4-0.9-0.7-2-0.7-3.2c0-0.4,0.1-1.5,0.3-1.7
	c0.1-0.5,0.4-0.9,0.5-1.3c0.3-0.4,0.5-0.7,0.9-0.9c0.4-0.3,0.8-0.4,1.2-0.4h0.3c0.8,0,1.5,0.4,2,1.2c0.8,1.1,1.5,3.1,1.5,5.1
	c0,0.5,0,0.8,0,1.3c0,0.4-0.1,0.9-0.1,1.2c0.4-0.4,1.6-2.5,2.1-3.3c1.6-2.3,3.9-5.3,6-5.3c0.7,0,1.5,0.1,2,0.5
	c0.3,0.1,0.4,0.3,0.5,0.5c0.1,0.1,0.1,0.1,0.3,0.3c0.5,0.9,1.2,1.7,1.3,3.1L442,7l0.1,0.3c0,0.3,0,1.1-0.1,1.2
	c-0.4,1.7-0.7,3.1-1.9,3.9c-0.9,0.7-2,0.7-2.8-0.1c-1.6-1.6-1.1-5.1,0.4-5.1c0.4,0,0.7,0.1,0.9,0.5c0.4,0.7,0.4,1.5,0.3,2.3
	c-0.1,0.5-0.3,0.4-0.4,0.7c0.9,0.8,2.3-0.7,2.3-2.8c0-1.3-0.3-2.1-0.8-3.1c-0.3-0.4-0.5-0.7-0.8-0.8c-1.2-0.8-2.7,0-3.6,1.1
	c-0.7,0.7-1.3,1.5-2,2.3l-3.5,5.3c1.7,0,3.2,0.8,3.9,3.1c0.8,2.5,0.5,5.6-0.9,7.3c-1.3,1.6-3.3,1.3-4.1-0.9c-0.4-1.1-0.5-3.1,0.1-4
	s2.1-0.9,2.1,0.9c0,0.8-0.4,1.7-0.9,1.7c-0.1,0-0.3-0.1-0.4-0.1c0.1,0.3,0,0.4,0.1,0.8c0.5,1.3,2.1,1.2,2.8-0.1
	c0.9-1.6,0.8-5.6-1.3-6.7c-1.3-0.7-1.9-0.4-3.2,0.3c-0.5,0.3-1.2,0.5-1.7,0.8c-2.1,0.9-5.1,1.1-6.8-1.5c-0.5-0.8-0.9-1.3-1.3-2.4
	c-0.1-0.4-0.3-0.8-0.4-1.2c0-0.3-0.1-0.4-0.1-0.7c0-0.3-0.1-0.5-0.1-0.7c0,0.7-0.5,1.9-0.7,2.5c-0.4,1.1-1.1,2-1.6,2.8
	c-0.4,0.5-0.9,0.9-1.5,1.2c-3.5,1.9-6.9-1.6-8.7-1.6c-0.8,0-1.6,0.4-2.1,1.1c-1.3,1.5-1.3,5.7,0.4,6.8c0.5,0.3,0.8,0.4,1.3,0
	c0.4-0.3,0.8-0.8,0.8-1.5c-0.1,0.1-0.1,0.1-0.3,0.1c-0.9,0-1.3-2-0.7-2.9c0.7-0.9,1.9-0.3,2.1,0.9c0.1,0.4,0.1,0.9,0.1,1.3
	c0,3.7-2.9,4.8-4.5,2.8l-0.4-0.7C400.9,21.3,400.5,20.1,400.5,18.4"/>
<path class="st0" d="M415.2,27c0-1.7,0.1-2.1,0.5-3.7c0.1-0.5,0.3-0.9,0.4-1.5c0.4-1.6,0.5-3.1,0.7-4.9l0.3-3.6
	c0.1,0.1,0.1,0.1,0.1,0.8c0,0.4,0,0.5,0.1,0.9c0.1,1.6,0.4,3.7,0.7,5.3c0.1,1.1,0.4,2.3,0.5,3.3c0.5,2.5,0.9,5.1-0.5,6.9
	c-0.3,0.4-0.7,0.4-0.9,0.4l0,0C416,30.9,415.2,28.8,415.2,27"/>
<path class="st0" d="M418.5,15c0.1,0.1,0.1,0.1,0.1,0.3c0.1,0.1,0.1,0.1,0.1,0.3c0.3,0.5,0.7,1.3,1.1,1.7c2.1,2.8,2.3,1.9,3.6,3.2
	c0.5,0.5,1.3,1.3,1.3,2.5c0,1.1-0.7,1.7-1.1,1.7c-0.8,0-1.2-0.1-1.7-0.9c-1.5-1.7-2.3-4.5-2.9-7.2C418.8,16.4,418.7,15.3,418.5,15"
	/>
<path class="st0" d="M409.9,23.2c0-0.8,0.1-1.2,0.4-1.6c0.5-0.9,1.1-1.2,1.7-1.7c0.1-0.1,0.3-0.1,0.5-0.3c0.1-0.1,0.3-0.3,0.5-0.4
	c0.5-0.3,0.9-0.8,1.3-1.3l0.4-0.5c0.1-0.1,0.3-0.4,0.4-0.5l0.8-1.5c0.1-0.1,0-0.1,0.3-0.3c-0.1,0.5-0.3,1.2-0.4,1.6
	c-0.4,1.7-0.7,2.8-1.3,4.4c-0.5,1.3-1.9,3.9-3.1,3.9C410.7,24.8,409.9,24.4,409.9,23.2"/>
<path class="st0" d="M437.9,770.8c0.9,0,2-0.3,2.5-0.4c0.4-0.1,0.7-0.3,0.9-0.4c1.7-0.9,2.3-2,2.3-3.6c0.4,0.1,4.1,2.5,4.7,2.9
	l2.4,1.9c1.7,1.5,2.9,3.5,0.8,5.1c-0.7,0.5-1.9,0.8-2.9,0.8c-1.6,0-2.8-0.4-3.1-1.3c-0.1-0.4,0-0.5,0.1-0.8l0,0l0,0
	c0.3,0.1,0.4,0.3,0.7,0.4c1.2,0.3,2.7-0.3,2.7-1.1c0-0.4-0.1-0.9-0.7-1.2c-1.1-0.5-2.3-0.5-3.3-0.1c-1.5,0.5-1.9,1.7-1.3,2.8
	s1.3,1.6,2.9,2.1c0.5,0.1,1.2,0.3,1.9,0.3h0.5c0.8,0,1.6-0.1,2.3-0.4c0.1,0,0.3-0.1,0.4-0.1c0.9-0.4,2-1.2,2.4-1.7
	c0.9-1.5,0.5-3.3-0.7-4.7c-0.9-1.1-2.1-2-3.5-2.9c-0.1-0.1-0.1-0.1-0.3-0.3l-0.7-0.4l0,0l-0.1-0.1c-0.5-0.4-1.2-0.7-1.7-1.1
	l-0.5-0.4c-0.3-0.1-0.4-0.3-0.7-0.4c1.2,0,0.9,0.1,2.8,0.1c2.9,0,6.1-1.5,6.1-3.5c0-1.1-0.3-1.9-1.3-2.5c-0.8-0.5-2.3-0.8-3.3-0.8
	c-1.5,0-3.2,0.5-3.9,1.2c-0.7,0.8-0.7,1.6,0.3,2.4c0.9,0.7,3.9,0.8,3.9-0.7c0-0.3-0.1-0.5-0.4-0.7c-0.3-0.3-0.7-0.4-1.3-0.4
	c-0.4,0-0.5,0.1-0.8,0.1c0.1-0.8,1.1-1.1,2.3-1.1c0.8,0,1.6,0.4,2.1,0.7c0.3,0.1,0.5,0.4,0.7,0.5c0.4,0.7,0.4,1.2-0.1,1.9
	c-0.7,0.7-1.3,0.9-2.5,1.2c-3.6,0.8-6.8-0.4-8-2.7c-0.3-0.5-0.5-1.1-0.5-1.9c0-2.7,2-4.1,5.1-4.9c0.4-0.1,0.7-0.1,1.1-0.3
	c2-0.4,3.9-0.3,5.1,0.9c0.4,0.4,0.4,1.1-0.1,1.5c-0.5,0.3-0.8,0.3-1.5,0.3c-0.4,0-0.7-0.1-0.8-0.3c1.1-0.1,1.1-1.5-0.3-1.5
	c-2.4,0-2,2.7,1.5,2.7c1.2,0,2.4-0.7,2.8-1.3c0.5-0.8-0.1-2-1.2-2.5c-0.4-0.1-1.1-0.5-1.6-0.5v0.5c0.8-0.1,1.9-0.7,2.3-1.1
	c0.4-0.4,0.5-0.7,0.7-1.2c0.1-0.9-0.5-1.6-1.7-1.9c-0.4-0.1-0.8-0.3-1.3-0.3c-1.9,0-3.7,1.2-2.5,2.3c0.9,0.8,2.9,0.1,2-0.8
	c-0.1-0.1-0.4-0.3-0.4-0.4c2-0.7,3.9,0.9,1.5,2.1c-1.7,0.8-4,0.5-5.7,0c-1.2-0.4-2.1-0.8-2.9-1.3c-0.1-0.1-0.3-0.3-0.4-0.4
	c-1.5-1.5-1.6-3.3-0.8-4.9c0.4-0.7,0.7-0.9,1.2-1.5c0.5-0.4,1.2-0.8,1.9-1.1c0.5-0.1,2.1-0.4,2.9-0.4c1.2,0,2.5,0.4,3.3,0.7
	c0.9,0.4,1.6,1.1,1.6,1.7c0,0.8-0.9,1.6-1.9,1.9c-0.9,0.3-1.9,0.4-2.8,0c-0.4-0.1-0.7-0.4-0.7-0.8c0.4,0.1,0.7,0.1,1.1,0.1
	c1.5,0,2-1.6,0.5-2c-1.1-0.3-2.4-0.1-3.1,0.5c-1.1,0.9-0.5,2.1,0.7,2.8c0.9,0.4,2,0.7,3.2,0.7c0.4,0,1.5-0.1,1.7-0.3
	c0.5-0.1,0.9-0.4,1.3-0.5c0.4-0.3,0.7-0.5,0.9-0.9s0.4-0.8,0.4-1.2v-0.3c0-0.8-0.4-1.5-1.2-2c-1.1-0.8-3.1-1.5-5.1-1.5
	c-0.5,0-0.8,0-1.3,0c-0.4,0-0.9,0.1-1.2,0.1c0.4-0.4,2.5-1.6,3.3-2.1c2.3-1.6,5.3-3.9,5.3-6c0-0.7-0.1-1.5-0.5-2
	c-0.1-0.3-0.3-0.4-0.5-0.5c-0.1-0.1-0.1-0.1-0.3-0.3c-0.9-0.5-1.7-1.2-3.1-1.3l-0.9-0.1l-0.3-0.1c-0.3,0-1.1,0-1.2,0.1
	c-1.7,0.4-3.1,0.7-3.9,1.9c-0.7,0.9-0.7,2,0.1,2.8c1.6,1.6,5.1,1.1,5.1-0.4c0-0.4-0.1-0.7-0.5-0.9c-0.7-0.4-1.5-0.4-2.3-0.3
	c-0.5,0.1-0.4,0.3-0.7,0.4c-0.8-0.9,0.7-2.3,2.8-2.3c1.3,0,2.1,0.3,3.1,0.8c0.4,0.3,0.7,0.5,0.8,0.8c0.8,1.2,0,2.7-1.1,3.6
	c-0.7,0.7-1.5,1.3-2.3,2l-5.3,3.5c0-1.7-0.8-3.2-3.1-3.9c-2.5-0.8-5.6-0.5-7.3,0.9c-1.6,1.3-1.3,3.3,0.9,4.1c1.1,0.4,3.1,0.5,4-0.1
	c0.9-0.7,0.9-2.1-0.9-2.1c-0.8,0-1.7,0.4-1.7,0.9c0,0.1,0.1,0.3,0.1,0.4c-0.3-0.1-0.4,0-0.8-0.1c-1.3-0.5-1.2-2.1,0.1-2.8
	c1.6-0.9,5.6-0.8,6.7,1.3c0.7,1.3,0.4,1.9-0.3,3.2c-0.3,0.5-0.5,1.2-0.8,1.7c-0.9,2.1-1.1,5.1,1.5,6.8c0.8,0.5,1.3,0.9,2.4,1.3
	c0.4,0.1,0.8,0.3,1.2,0.4c0.3,0,0.4,0.1,0.7,0.1s0.5,0.1,0.7,0.1c-0.7,0-1.9,0.5-2.5,0.7c-1.1,0.4-2,1.1-2.8,1.6
	c-0.5,0.4-0.9,0.9-1.2,1.5c-1.9,3.5,1.6,6.9,1.6,8.7c0,0.8-0.4,1.6-1.1,2.1c-1.5,1.3-5.7,1.3-6.8-0.4c-0.3-0.5-0.4-0.8,0-1.3
	c0.3-0.4,0.8-0.8,1.5-0.8c-0.1,0.1-0.1,0.1-0.1,0.3c0,0.9,2,1.3,2.9,0.7s0.3-1.9-0.9-2.1c-0.4-0.1-0.9-0.1-1.3-0.1
	c-3.7,0-4.8,2.9-2.8,4.5l0.7,0.4C434.9,770.4,436.1,770.8,437.9,770.8"/>
<path class="st0" d="M429.2,756.1c1.7,0,2.1-0.1,3.7-0.5c0.5-0.1,0.9-0.3,1.5-0.4c1.6-0.4,3.1-0.5,4.9-0.7l3.6-0.3
	c-0.1-0.1-0.1-0.1-0.8-0.1c-0.4,0-0.5,0-0.9-0.1c-1.6-0.1-3.7-0.4-5.3-0.7c-1.1-0.1-2.3-0.4-3.3-0.5c-2.5-0.5-5.1-0.9-6.9,0.5
	c-0.4,0.3-0.4,0.7-0.4,0.9l0,0C425.3,755.3,427.5,756.1,429.2,756.1"/>
<path class="st0" d="M441.2,752.8c-0.1-0.1-0.1-0.1-0.3-0.1c-0.1-0.1-0.1-0.1-0.3-0.1c-0.5-0.3-1.3-0.7-1.7-1.1
	c-2.8-2.1-1.9-2.3-3.2-3.6c-0.5-0.5-1.3-1.3-2.5-1.3c-1.1,0-1.7,0.7-1.7,1.1c0,0.8,0.1,1.2,0.9,1.7c1.7,1.5,4.5,2.3,7.2,2.9
	C439.9,752.5,440.8,752.8,441.2,752.8"/>
<path class="st0" d="M433.1,761.5c0.8,0,1.2-0.1,1.6-0.4c0.9-0.5,1.2-1.1,1.7-1.7c0.1-0.1,0.1-0.3,0.3-0.5c0.1-0.1,0.3-0.3,0.4-0.5
	c0.3-0.5,0.8-0.9,1.3-1.3l0.5-0.4c0.1-0.1,0.4-0.3,0.5-0.4l1.5-0.8c0.1-0.1,0.1,0,0.3-0.3c-0.5,0.1-1.2,0.3-1.6,0.4
	c-1.7,0.4-2.8,0.7-4.4,1.3c-1.3,0.5-3.9,1.9-3.9,3.1C431.3,760.8,431.9,761.5,433.1,761.5"/>
<path class="st0" d="M400.4,774c0,0.9,0.3,2,0.4,2.5c0.1,0.4,0.3,0.7,0.4,0.9c0.9,1.7,2,2.3,3.6,2.3c-0.1,0.4-2.5,4.1-2.9,4.7
	l-1.9,2.4c-1.5,1.7-3.5,2.9-5.1,0.8c-0.5-0.7-0.8-1.9-0.8-2.9c0-1.6,0.4-2.8,1.3-3.1c0.4-0.1,0.5,0,0.8,0.1l0,0l0,0
	c-0.1,0.3-0.3,0.4-0.4,0.7c-0.3,1.2,0.3,2.7,1.1,2.7c0.4,0,0.9-0.1,1.2-0.7c0.5-1.1,0.5-2.3,0.1-3.3c-0.5-1.5-1.7-1.9-2.8-1.3
	c-1.1,0.5-1.6,1.3-2.1,2.9c-0.1,0.5-0.3,1.2-0.3,1.9v0.5c0,0.8,0.1,1.6,0.4,2.3c0,0.1,0.1,0.3,0.1,0.4c0.4,0.9,1.2,2,1.7,2.4
	c1.5,0.9,3.3,0.5,4.7-0.7c1.1-0.9,2-2.1,2.9-3.5c0.1-0.1,0.1-0.1,0.3-0.3l0.4-0.7l0,0l0.1-0.1c0.4-0.5,0.7-1.2,1.1-1.7l0.4-0.5
	c0.1-0.3,0.3-0.4,0.4-0.7c0,1.2-0.1,0.9-0.1,2.8c0,2.9,1.5,6.1,3.5,6.1c1.1,0,1.9-0.3,2.5-1.3c0.5-0.8,0.8-2.3,0.8-3.3
	c0-1.5-0.5-3.2-1.2-3.9c-0.8-0.7-1.6-0.7-2.4,0.3c-0.7,0.9-0.8,3.9,0.7,3.9c0.3,0,0.5-0.1,0.7-0.4c0.3-0.3,0.4-0.7,0.4-1.3
	c0-0.4-0.1-0.5-0.1-0.8c0.8,0.1,1.1,1.1,1.1,2.3c0,0.8-0.4,1.6-0.7,2.1c-0.1,0.3-0.4,0.5-0.5,0.7c-0.7,0.4-1.2,0.4-1.9-0.1
	c-0.7-0.7-0.9-1.3-1.2-2.5c-0.8-3.6,0.4-6.8,2.7-8c0.5-0.3,1.1-0.5,1.9-0.5c2.7,0,4.1,2,4.9,5.1c0.1,0.4,0.1,0.7,0.3,1.1
	c0.4,2,0.3,3.9-0.9,5.1c-0.4,0.4-1.1,0.4-1.5-0.1c-0.3-0.5-0.3-0.8-0.3-1.5c0-0.4,0.1-0.7,0.3-0.8c0.1,1.1,1.5,1.1,1.5-0.3
	c0-2.4-2.7-2-2.7,1.5c0,1.2,0.7,2.4,1.3,2.8c0.8,0.5,2-0.1,2.5-1.2c0.1-0.4,0.5-1.1,0.5-1.6h0.1c0.1,0.8,0.7,1.9,1.1,2.3
	c0.4,0.4,0.7,0.5,1.2,0.7c0.9,0.1,1.6-0.5,1.9-1.7c0.1-0.4,0.3-0.8,0.3-1.3c0-1.9-1.2-3.7-2.3-2.5c-0.8,0.9-0.1,2.9,0.8,2
	c0.1-0.1,0.3-0.4,0.4-0.4c0.7,2-0.9,3.9-2.1,1.5c-0.8-1.7-0.5-4,0-5.7c0.4-1.2,0.8-2.1,1.3-2.9c0.1-0.1,0.3-0.3,0.4-0.4
	c1.5-1.5,3.3-1.6,4.9-0.8c0.7,0.4,0.9,0.7,1.5,1.2c0.4,0.5,0.8,1.2,1.1,1.9c0.1,0.5,0.4,2.1,0.4,2.9c0,1.2-0.4,2.5-0.7,3.3
	c-0.4,0.9-1.1,1.6-1.7,1.6c-0.8,0-1.6-0.9-1.9-1.9c-0.3-0.9-0.4-1.9,0-2.8c0.1-0.4,0.4-0.7,0.8-0.7c-0.1,0.4-0.1,0.7-0.1,1.1
	c0,1.5,1.6,2,2,0.5c0.3-1.1,0.1-2.4-0.5-3.1c-0.9-1.1-2.1-0.5-2.8,0.7c-0.4,0.9-0.7,2-0.7,3.2c0,0.4,0.1,1.5,0.3,1.7
	c0.1,0.5,0.4,0.9,0.5,1.3c0.3,0.4,0.5,0.7,0.9,0.9c0.4,0.3,0.8,0.4,1.2,0.4h0.3c0.8,0,1.5-0.4,2-1.2c0.8-1.1,1.5-3.1,1.5-5.1
	c0-0.5,0-0.8,0-1.3c0-0.4-0.1-0.9-0.1-1.2c0.4,0.4,1.6,2.5,2.1,3.3c1.6,2.3,3.9,5.3,6,5.3c0.7,0,1.5-0.1,2-0.5
	c0.3-0.1,0.4-0.3,0.5-0.5c0.1-0.1,0.1-0.1,0.3-0.3c0.5-0.9,1.2-1.7,1.3-3.1l0.1-0.9l0.1-0.3c0-0.3,0-1.1-0.1-1.2
	c-0.4-1.6-0.7-3.1-1.9-3.9c-0.9-0.7-2-0.7-2.8,0.1c-1.6,1.6-1.1,5.1,0.4,5.1c0.4,0,0.7-0.1,0.9-0.5c0.4-0.7,0.4-1.5,0.3-2.3
	c-0.1-0.5-0.3-0.4-0.4-0.7c0.9-0.8,2.3,0.7,2.3,2.8c0,1.3-0.3,2.1-0.8,3.1c-0.3,0.4-0.5,0.7-0.8,0.8c-1.2,0.8-2.7,0-3.6-1.1
	c-0.7-0.7-1.3-1.5-2-2.3l-3.5-5.3c1.7,0,3.2-0.8,3.9-3.1c0.8-2.5,0.5-5.6-0.9-7.3c-1.3-1.6-3.3-1.3-4.1,0.9c-0.4,1.1-0.5,3.1,0.1,4
	s2.1,0.9,2.1-0.9c0-0.8-0.4-1.7-0.9-1.7c-0.1,0-0.3,0.1-0.4,0.1c0.1-0.3,0-0.4,0.1-0.8c0.5-1.3,2.1-1.2,2.8,0.1
	c0.9,1.6,0.8,5.6-1.3,6.7c-1.3,0.7-1.9,0.4-3.2-0.3c-0.5-0.3-1.2-0.5-1.7-0.8c-2.1-0.9-5.1-1.1-6.8,1.5c-0.5,0.8-0.9,1.3-1.3,2.4
	c-0.1,0.4-0.3,0.8-0.4,1.2c0,0.3-0.1,0.4-0.1,0.7s-0.1,0.5-0.1,0.7c0-0.7-0.5-1.9-0.7-2.5c-0.4-1.1-1.1-2-1.6-2.8
	c-0.4-0.5-0.9-0.9-1.5-1.2c-3.5-1.9-6.9,1.6-8.7,1.6c-0.8,0-1.6-0.4-2.1-1.1c-1.3-1.5-1.3-5.7,0.4-6.8c0.5-0.3,0.8-0.4,1.3,0
	c0.4,0.3,0.8,0.8,0.8,1.5c-0.1-0.1-0.1-0.1-0.3-0.1c-0.9,0-1.3,2-0.7,2.9c0.7,0.9,1.9,0.3,2.1-0.9c0.1-0.4,0.1-0.9,0.1-1.3
	c0-3.7-2.9-4.8-4.5-2.8l-0.4,0.7C400.8,771.1,400.4,772.4,400.4,774"/>
<path class="st0" d="M415.2,765.5c0,1.7,0.1,2.1,0.5,3.7c0.1,0.5,0.3,0.9,0.4,1.5c0.4,1.6,0.5,3.1,0.7,4.9l0.3,3.6
	c0.1-0.1,0.1-0.1,0.1-0.8c0-0.4,0-0.5,0.1-0.9c0.1-1.6,0.4-3.7,0.7-5.2c0.1-1.1,0.4-2.3,0.5-3.3c0.5-2.5,0.9-5.1-0.5-6.9
	c-0.3-0.4-0.7-0.4-0.9-0.4l0,0C415.9,761.5,415.2,763.6,415.2,765.5"/>
<path class="st0" d="M418.5,777.5c0.1-0.1,0.1-0.1,0.1-0.3c0.1-0.1,0.1-0.1,0.1-0.3c0.3-0.5,0.7-1.3,1.1-1.7
	c2.1-2.8,2.3-1.9,3.6-3.2c0.5-0.5,1.3-1.3,1.3-2.5c0-1.1-0.7-1.7-1.1-1.7c-0.8,0-1.2,0.1-1.7,0.9c-1.5,1.7-2.3,4.5-2.9,7.2
	C418.8,776.1,418.5,777.1,418.5,777.5"/>
<path class="st0" d="M409.7,769.2c0,0.8,0.1,1.2,0.4,1.6c0.5,0.9,1.1,1.2,1.7,1.7c0.1,0.1,0.3,0.1,0.5,0.3c0.1,0.1,0.3,0.3,0.5,0.4
	c0.5,0.3,0.9,0.8,1.3,1.3l0.4,0.5c0.1,0.1,0.3,0.4,0.4,0.5l0.8,1.5c0.1,0.1,0,0.1,0.3,0.3c-0.1-0.5-0.3-1.2-0.4-1.6
	c-0.4-1.7-0.7-2.8-1.3-4.4c-0.5-1.3-1.9-3.9-3.1-3.9C410.5,767.6,409.7,768,409.7,769.2"/>
<line class="st1" x1="9.1" y1="91.9" x2="9.1" y2="366.1"/>
<line class="st1" x1="9.2" y1="706.8" x2="9.2" y2="426.2"/>
<path class="st2" d="M9.7,77c0.4,0.1,0.7,0.5,0.8,0.8l1.3-0.5h1.3c-0.4-1.2-1.2-2-2.4-2.8l-0.5-0.1v1.3L9.7,77z M7.6,77.9
	c0.1-0.4,0.5-0.7,0.8-0.8l-0.5-1.3v-1.3c-1.5,0.5-2.4,1.5-2.9,2.9h1.3L7.6,77.9z M6.4,79.7H5.1c0.4,1.5,1.5,2.4,2.9,2.9v-1.3
	l0.5-1.3c-0.4-0.1-0.7-0.5-0.8-0.8L6.4,79.7z M2.7,79.7H0.3v-2.4h2.4c0.7-2.8,2.4-4.7,5.3-5.3v-1.3c0-0.8,0.4-1.1,0.9-1.1h0.5
	c0.4,0,0.8,0.3,0.8,1.1v1.3c2.8,0.7,4.7,2.5,5.3,5.3H18v2.4h-2.4c-0.7,2.8-2.4,4.5-5.3,5.3v7.9H8V85C5.1,84.2,3.3,82.5,2.7,79.7z
	 M10.3,82.6c1.5-0.5,2.4-1.5,2.9-2.9h-1.3l-1.3-0.5c-0.1,0.4-0.5,0.7-0.8,0.8l0.5,1.3L10.3,82.6L10.3,82.6z"/>
<path class="st2" d="M9.7,715.1c0.4-0.1,0.7-0.5,0.8-0.8l1.3,0.5h1.3c-0.4,1.2-1.2,2-2.4,2.8l-0.5,0.1v-1.3L9.7,715.1z M7.7,714.2
	c0.1,0.4,0.5,0.7,0.8,0.8L8,716.3v1.3c-1.5-0.5-2.4-1.5-2.9-2.9h1.3L7.7,714.2z M6.5,712.4H5.2c0.4-1.5,1.5-2.4,2.9-2.9v1.3l0.5,1.3
	c-0.4,0.1-0.7,0.5-0.8,0.8L6.5,712.4z M2.7,712.4H0.3v2.4h2.4c0.7,2.8,2.4,4.7,5.3,5.3v1.3c0,0.8,0.4,1.1,0.9,1.1h0.5
	c0.4,0,0.8-0.3,0.8-1.1v-1.3c2.8-0.7,4.7-2.5,5.3-5.3H18v-2.4h-2.4c-0.7-2.8-2.4-4.5-5.3-5.3v-7.9H8v7.9
	C5.2,707.9,3.5,709.6,2.7,712.4z M10.3,709.5c1.5,0.5,2.4,1.5,2.9,2.9h-1.3l-1.3,0.5c-0.1-0.4-0.5-0.7-0.8-0.8l0.5-1.3L10.3,709.5
	L10.3,709.5z"/>
<path class="st3" d="M9.1,362.3c2.1,0,3.9,1.7,3.9,3.9c0,2.1-1.7,3.9-3.9,3.9c-2.1,0-3.9-1.7-3.9-3.9C5.2,364,6.9,362.3,9.1,362.3"
	/>
<path class="st3" d="M9.2,430.2c2.1,0,3.9-1.7,3.9-3.9c0-2.1-1.7-3.9-3.9-3.9c-2.1,0-3.9,1.7-3.9,3.9C5.2,428.5,7.1,430.2,9.2,430.2
	"/>
<text transform="matrix(0.6735 0 0 1 0 414.3311)" class="st2 st4 st5">8</text>
<line class="st1" x1="447.3" y1="91.9" x2="447.5" y2="366.1"/>
<line class="st1" x1="447.3" y1="706.8" x2="447.3" y2="426.2"/>
<path class="st2" d="M448,77c0.4,0.1,0.7,0.5,0.8,0.8l1.3-0.5h1.3c-0.4-1.2-1.2-2-2.4-2.8l-0.5-0.1v1.3L448,77z M445.9,77.9
	c0.1-0.4,0.5-0.7,0.8-0.8l-0.5-1.3v-1.3c-1.5,0.5-2.4,1.5-2.9,2.9h1.3L445.9,77.9z M444.7,79.7h-1.3c0.4,1.5,1.5,2.4,2.9,2.9v-1.3
	l0.5-1.3c-0.4-0.1-0.7-0.5-0.8-0.8L444.7,79.7z M440.9,79.7h-2.4v-2.4h2.4c0.7-2.8,2.4-4.7,5.3-5.3v-1.3c0-0.8,0.4-1.1,0.9-1.1h0.5
	c0.4,0,0.8,0.3,0.8,1.1v1.3c2.8,0.7,4.7,2.5,5.3,5.3h2.4v2.4h-2.4c-0.7,2.8-2.4,4.5-5.3,5.3v7.9h-2.4V85
	C443.3,84.2,441.6,82.5,440.9,79.7z M448.5,82.6c1.5-0.5,2.4-1.5,2.9-2.9h-1.3l-1.3-0.5c-0.1,0.4-0.5,0.7-0.8,0.8l0.5,1.3V82.6z"/>
<path class="st2" d="M448,715.1c0.4-0.1,0.7-0.5,0.8-0.8l1.3,0.5h1.3c-0.4,1.2-1.2,2-2.4,2.8l-0.5,0.1v-1.3L448,715.1z M445.9,714.3
	c0.1,0.4,0.5,0.7,0.8,0.8l-0.5,1.3v1.3c-1.5-0.5-2.4-1.5-2.9-2.9h1.3L445.9,714.3z M444.7,712.4h-1.3c0.4-1.5,1.5-2.4,2.9-2.9v1.3
	l0.5,1.3c-0.4,0.1-0.7,0.5-0.8,0.8L444.7,712.4z M440.9,712.4h-2.4v2.4h2.4c0.7,2.8,2.4,4.7,5.3,5.3v1.3c0,0.8,0.4,1.1,0.9,1.1h0.5
	c0.4,0,0.8-0.3,0.8-1.1v-1.3c2.8-0.7,4.7-2.5,5.3-5.3h2.4v-2.4h-2.4c-0.7-2.8-2.4-4.5-5.3-5.3v-7.9h-2.4v7.9
	C443.3,707.9,441.6,709.6,440.9,712.4z M448.5,709.5c1.5,0.5,2.4,1.5,2.9,2.9h-1.3l-1.3,0.5c-0.1-0.4-0.5-0.7-0.8-0.8l0.5-1.3V709.5
	z"/>
<path class="st3" d="M447.5,362.3c2.1,0,3.9,1.7,3.9,3.9c0,2.1-1.7,3.9-3.9,3.9c-2.1,0-3.9-1.7-3.9-3.9
	C443.5,364,445.3,362.3,447.5,362.3"/>
<path class="st3" d="M447.3,430.2c2.1,0,3.9-1.7,3.9-3.9c0-2.1-1.7-3.9-3.9-3.9c-2.1,0-3.9,1.7-3.9,3.9
	C443.5,428.5,445.2,430.2,447.3,430.2"/>
<text transform="matrix(0.6735 0 0 1 438.3672 414.3311)" class="st2 st4 st5">8</text>
<line class="st1" x1="371.9" y1="8.9" x2="247.1" y2="8.8"/>
<line class="st1" x1="84.2" y1="8.5" x2="209.5" y2="8.6"/>
<path class="st2" d="M378.5,9.4c-0.1,0.3-0.4,0.5-0.8,0.8l0.5,1.2v1.2c1.1-0.4,1.9-1.1,2.5-2.3l0.1-0.4h-1.2L378.5,9.4z M377.7,7.6
	c0.3,0.1,0.5,0.4,0.8,0.8l1.2-0.5h1.2c-0.4-1.3-1.3-2.3-2.7-2.7v1.2L377.7,7.6z M376.1,6.5V5.3c-1.3,0.4-2.3,1.3-2.7,2.7h1.2
	l1.2,0.5c0.1-0.3,0.4-0.5,0.8-0.8L376.1,6.5z M376.1,3V0.9h2.1V3c2.5,0.7,4.1,2.3,4.8,4.8h1.2c0.7,0,0.9,0.3,0.9,0.8V9
	c0,0.4-0.3,0.8-0.9,0.8h-1.2c-0.7,2.5-2.3,4.1-4.8,4.8v2.1h-2.1v-2.1c-2.5-0.7-4.1-2.3-4.8-4.8h-7.1V7.7h7.1
	C372,5.3,373.6,3.7,376.1,3z M373.5,10c0.4,1.3,1.3,2.3,2.7,2.7v-1.2l0.5-1.2c-0.3-0.1-0.5-0.4-0.8-0.8l-1.2,0.5H373.5z"/>
<path class="st2" d="M78.2,9c0.1,0.3,0.4,0.5,0.8,0.8L78.5,11v1.3c-1.1-0.4-1.9-1.1-2.5-2.3l-0.1-0.4h1.3L78.2,9z M78.9,7.2
	c-0.3,0.1-0.5,0.4-0.8,0.8l-1.2-0.5h-1.3C76,6,76.9,5.2,78.4,4.6V6L78.9,7.2z M80.6,6V4.6C82,5,82.9,6,83.4,7.4h-1.3L80.9,8
	c-0.1-0.4-0.4-0.7-0.8-0.8L80.6,6z M80.6,2.4V0.1h-2.1v2.3c-2.7,0.7-4.4,2.3-4.9,4.9h-1.3c-0.8,0-0.9,0.3-0.9,0.9v0.5
	c0,0.4,0.3,0.8,1.1,0.8h1.3c0.7,2.7,2.3,4.4,4.9,4.9v2.3h2.1v-2.3c2.7-0.7,4.3-2.3,4.9-4.9H93V7.4h-7.3C84.9,4.8,83.3,3,80.6,2.4z
	 M83.4,9.6c-0.4,1.3-1.3,2.3-2.8,2.8V11l-0.5-1.2c0.4-0.1,0.7-0.4,0.8-0.8l1.2,0.5H83.4z"/>
<path class="st3" d="M248.6,8.8c0,1.1-0.8,1.9-1.9,1.9s-1.9-0.8-1.9-1.9s0.8-1.9,1.9-1.9C247.6,6.8,248.6,7.7,248.6,8.8"/>
<path class="st3" d="M207.9,8.6c0,1.1,0.8,1.9,1.9,1.9s1.9-0.8,1.9-1.9s-0.8-1.9-1.9-1.9C208.9,6.8,207.9,7.6,207.9,8.6"/>
<text transform="matrix(-1.036729e-03 0.6734 -1 -1.451422e-03 219.2603 4.2971)" class="st2 st4 st6">8</text>
<line class="st1" x1="372.3" y1="783.7" x2="247.2" y2="783.7"/>
<line class="st1" x1="85" y1="783.7" x2="209.7" y2="783.7"/>
<path class="st2" d="M378.5,784.3c-0.1,0.3-0.4,0.5-0.8,0.8l0.5,1.2v1.2c1.1-0.4,1.9-1.1,2.5-2.3l0.1-0.4h-1.2L378.5,784.3z
	 M377.9,782.4c0.3,0.1,0.5,0.4,0.8,0.8l1.2-0.5h1.2c-0.4-1.3-1.3-2.3-2.7-2.7v1.2L377.9,782.4z M376.3,781.3v-1.2
	c-1.3,0.4-2.3,1.3-2.7,2.7h1.2l1.2,0.5c0.1-0.3,0.4-0.5,0.8-0.8L376.3,781.3z M376.3,777.9v-2.1h2.1v2.1c2.5,0.7,4.1,2.3,4.8,4.8
	h1.2c0.7,0,0.9,0.3,0.9,0.8v0.4c0,0.4-0.3,0.8-0.9,0.8h-1.2c-0.7,2.5-2.3,4.1-4.8,4.8v2.1h-2.1v-2.1c-2.5-0.7-4.1-2.3-4.8-4.8h-7.1
	v-2.1h7.1C372,780.1,373.6,778.5,376.3,777.9z M373.6,784.8c0.4,1.3,1.3,2.3,2.7,2.7v-1.2l0.5-1.2c-0.3-0.1-0.5-0.4-0.8-0.8
	l-1.2,0.5H373.6z"/>
<path class="st2" d="M78.2,784.3c0.1,0.3,0.4,0.5,0.8,0.8l-0.5,1.2v1.3c-1.1-0.4-1.9-1.1-2.5-2.3l-0.1-0.4h1.3L78.2,784.3z
	 M79,782.3c-0.3,0.1-0.5,0.4-0.8,0.8l-1.2-0.5h-1.3c0.4-1.5,1.3-2.3,2.8-2.8v1.3L79,782.3z M80.6,781.1v-1.3
	c1.3,0.4,2.3,1.3,2.8,2.8h-1.3l-1.2,0.5c-0.1-0.4-0.4-0.7-0.8-0.8L80.6,781.1z M80.6,777.6v-2.3h-2.1v2.3c-2.7,0.7-4.4,2.3-4.9,4.9
	h-1.3c-0.8,0-0.9,0.3-0.9,0.9v0.5c0,0.4,0.3,0.8,1.1,0.8h1.3c0.7,2.7,2.3,4.4,4.9,4.9v2.3h2.1v-2.3c2.7-0.7,4.3-2.3,4.9-4.9H93v-2.1
	h-7.3C85,779.9,83.3,778.3,80.6,777.6z M83.4,784.8c-0.4,1.3-1.3,2.3-2.8,2.8v-1.3l-0.5-1.2c0.4-0.1,0.7-0.4,0.8-0.8l1.2,0.5H83.4z"
	/>
<path class="st3" d="M248.8,783.7c0,1.1-0.8,1.9-1.9,1.9s-1.9-0.8-1.9-1.9c0-1.1,0.8-1.9,1.9-1.9C248,781.7,248.8,782.7,248.8,783.7
	"/>
<path class="st3" d="M207.9,783.9c0,1.1,0.8,1.9,1.9,1.9s1.9-0.8,1.9-1.9c0-1.1-0.8-1.9-1.9-1.9C208.9,782,207.9,782.8,207.9,783.9"
	/>
<text transform="matrix(-1.036729e-03 0.6734 -1 -1.451422e-03 219.6577 779.4987)" class="st2 st4 st6">8</text>
</svg>
