<?xml version="1.0" encoding="utf-8"?>
<!-- Generator: Adobe Illustrator 24.1.3, SVG Export Plug-In . SVG Version: 6.00 Build 0)  -->
<svg version="1.1" id="Capa_1" xmlns="http://www.w3.org/2000/svg" xmlns:xlink="http://www.w3.org/1999/xlink" x="0px" y="0px"
	 viewBox="0 0 500 500" style="enable-background:new 0 0 500 500;" xml:space="preserve">
<style type="text/css">
	.st0{fill-rule:evenodd;clip-rule:evenodd;fill:#181818;}
	.st1{fill-rule:evenodd;clip-rule:evenodd;fill:#262626;}
	.st2{fill-rule:evenodd;clip-rule:evenodd;fill:#201E1E;}
	.st3{fill-rule:evenodd;clip-rule:evenodd;fill:#555555;}
	.st4{fill-rule:evenodd;clip-rule:evenodd;fill:#353535;}
	.st5{fill-rule:evenodd;clip-rule:evenodd;fill:#434343;}
	.st6{fill-rule:evenodd;clip-rule:evenodd;fill:#3B3B3B;}
	.st7{fill-rule:evenodd;clip-rule:evenodd;fill:#5B5B5B;}
	.st8{fill-rule:evenodd;clip-rule:evenodd;fill:#5D5D5D;}
	.st9{fill-rule:evenodd;clip-rule:evenodd;fill:#585858;}
	.st10{fill-rule:evenodd;clip-rule:evenodd;fill:#4E4E4E;}
	.st11{fill-rule:evenodd;clip-rule:evenodd;fill:#505050;}
	.st12{fill-rule:evenodd;clip-rule:evenodd;fill:#5F5F5F;}
	.st13{fill-rule:evenodd;clip-rule:evenodd;fill:#2E2E2E;}
	.st14{fill-rule:evenodd;clip-rule:evenodd;fill:#303030;}
	.st15{fill-rule:evenodd;clip-rule:evenodd;fill:#2C2C2C;}
	.st16{fill-rule:evenodd;clip-rule:evenodd;fill:#292929;}
	.st17{fill-rule:evenodd;clip-rule:evenodd;fill:#393939;}
	.st18{fill-rule:evenodd;clip-rule:evenodd;fill:#343434;}
	.st19{fill-rule:evenodd;clip-rule:evenodd;fill:#313131;}
	.st20{fill-rule:evenodd;clip-rule:evenodd;fill:#454545;}
	.st21{fill-rule:evenodd;clip-rule:evenodd;fill:#202020;}
	.st22{fill-rule:evenodd;clip-rule:evenodd;fill:#1D1D1D;}
	.st23{fill-rule:evenodd;clip-rule:evenodd;fill:#282828;}
	.st24{fill-rule:evenodd;clip-rule:evenodd;fill:#1E1E1E;}
	.st25{fill-rule:evenodd;clip-rule:evenodd;fill:#242424;}
	.st26{fill-rule:evenodd;clip-rule:evenodd;fill:#212121;}
	.st27{fill-rule:evenodd;clip-rule:evenodd;fill:#1C1C1C;}
	.st28{fill-rule:evenodd;clip-rule:evenodd;fill:#3E3E3E;}
	.st29{fill-rule:evenodd;clip-rule:evenodd;fill:#2F2F2F;}
	.st30{fill-rule:evenodd;clip-rule:evenodd;fill:#AEAEAE;}
	.st31{fill-rule:evenodd;clip-rule:evenodd;fill:#7E7E7E;}
	.st32{fill-rule:evenodd;clip-rule:evenodd;fill:#B6B6B6;}
	.st33{fill-rule:evenodd;clip-rule:evenodd;fill:#979797;}
</style>
<path class="st0" d="M198.6,55.8c0,6.9,0.7,4.9,3.8,9.6c6.5-4.8,1.2-3.8,7.7-13.4c26.5,6.2,0.5,40.3-26.4,11.1
	c-6.9-7.5-5.9-10.2-10-18.8c11.2,0,17.4-1.9,30.7-1.9C201.6,46.5,198.6,48.8,198.6,55.8 M225.4,46.2c16.7,0,23.7,4.7,36.4,7.7
	c-0.4,0.3-1.1,0-1.3,0.6c-0.2,0.6-1.1,0.4-1.3,0.6c-18.3,8.1-17.2,23.2-8.2,29c5.8,3.8,7.8,1.1,14.7,0.5v-3.8
	c-31.5-0.7,8.5-34.7,12.6-4.5c1.3,9.5-4.7,25.6-24.1,25.6c-10.5,0-26.8-15-26.8-24.9C227.4,58.4,235.6,61.4,225.4,46.2z M123.8,58.6
	c-3.3-2.8-5.4,3.2-2.6-3l4.5-1.5c14.5-2.1,23.9-8,40.3-8c-0.8,9.2-7.5,18.5-16.2,20.4C141.2,68.5,130.7,60.4,123.8,58.6z
	 M110.4,59.7c12.1,0.3,12.7,5.3,23,7.7c-0.1,0-2.4,6-11.4,2c-5.3-2.4-3-3.8-11.6-5.8V59.7z M311.7,77.5l3.6,2.2l-3.6,1.6
	c-24.5-2.3-30.1,37.8,3.8,37.8v-3.8c-25.6-2.1-4-34.5,16.9-16.9c12.8,10.8,6.6,34.7-16.5,42.2c-20.4,6.7-39-7-38.9-27.3
	c0.1-16.1,15.3-21.3,11.1-39.5c-1.9-8.1-3.5-6.9-7.1-12.3C294,64.6,301,72.9,311.7,77.5z M168.3,71.6c-2.1-3.9-1.9-2.8-2.3-8.1
	c5.9,0.5,3.6,0,7.7,1.9L168.3,71.6z M98.9,67.3h3.8c7.1,0,8.7,1.9,11.5,5.8l-21.1-1.3C95.4,67.9,93.4,67.3,98.9,67.3z M91.2,75v3.8
	H79.7C83.8,73.3,81.3,75,91.2,75z M68.2,86.5c4.3-5.9-1.2-3.1,7.7-3.8c-1.5,1.3-0.5,1.2-3.3,2.5C68.1,87.2,71.1,85.4,68.2,86.5z
	 M213.9,78.8h5.8v5.8h-5.8V78.8z M267.6,115.3c-5.1-1.3-1.6,0.2-5.8-1.9c1.1-2.9,0-6.3,5.2-4.5C271.6,110.5,268.7,112.9,267.6,115.3
	z M304.1,164.7l-1.8-3l5.6-1c14.2,1.3,34-14,42.7-23.9c4.9-5.6,4.7-7.7,11-12c6.5,9.8,2.1,15.3-16.7,29.3c-13,9.7-19.3,12.6-37,16.7
	L304.1,164.7z M479.6,157.5c7.6,16.8,7.5,25.3,1.2,42.5c-8.1,22.2-19.8,31.5-34.4,46.2c-6.2,6.3-5.6,8-13,13.8
	c-8,6.3-23.6,24.1-33.5,10.7l2.2-7.6c2,0,1.4-0.2,3.3,0.3l3,0.8c10,4.1-2.9,1,6.9,4.6c0-11.1-0.1-11.9-7.7-14.9l-5.8-0.2
	c-8.5,1.5-9.9,2.8-11.1,11.3l-0.2,3.8c0.4,8,2.1,3.2-0.1,7.2c-2.2,4.1-2.8,1.8-4.3-1.4l0.3-11.5c-0.7-10.5-10.8-18.8-19.8-22.3
	c-24.5-9.5-57.7,4.8-76.5,21.8c-5.2,4.8-5.8,8.2-12.9,10.1c34.5-51.5,129.5-86.5,144-57.6c5.1,10.2-0.1,24-9.8,24.3
	c-10.7,0.3-17.6-16.7-3.8-20.4c-0.5-5.2,0.3-3.8-2.3-5c-1.2-0.5-13.3,1.6-16.2,11.5c-4.1,14,5.1,22.6,14.7,23.6l11.5-0.1
	c15.3-1.4,17.3-14.3,17.3-26.3c25.1,0,41.8-18.6,45.9-40.5c2.6-14.1,0.2-11,0.2-22.8c-2.1-4.2-3.5,5.3-1.4-5.1L479.6,157.5z
	 M368.2,142.1c0.7-1,4.4-7.6,4.4-1.9l12.1,23c-25.5,0-15.8,19.8-11.5,23c3.8-8.2-5-15.8,13.4-11.5c0,13.8-0.4,9.3-5.8,17.3
	c-7.3,0-11.8,0.2-15.7-3.5C351.5,175.5,368.6,151.4,368.2,142.1z M434.5,186.2c18-15.7,19-7.2,33.8-35.2c0.1-0.3,0.4-0.8,0.7-1.2
	c2.1,8.9,4.6,10.6,4,23c-0.4,9.2-3.5,15.1-7.2,21.8c-17.2,31-46.4,23.8-31.3,1.3c13.7,1.2,7.7,5.2,5.8,13.4
	C459.4,207.6,458.6,186.2,434.5,186.2z M337.3,192l5.2-3.8c-6.1-3.7-14.1-3.1-15.6,5.9c-1.1,6.7-0.1,16.3,9.7,15.9l5.7,3.2l-5.7,2.9
	c-6.3,0.9-7.4,1.4-13.4,4.6c-1.2-14.6-8.4-29.1-11.5-42.2c10.1,0,23.7-1.1,30.8,1.8c11.2,4.5,12.4,8.6,9.4,21.2
	c-7.9,3.8-9.3,3.8-17.3,0C334.9,193,333.7,197.3,337.3,192z M434.5,186.2l-3.8,1.9L434.5,186.2z M409.5,199.5l-4.7-1.8
	c-0.7-3.4-1.2-2.3,2.8-2.3c8.4,0,14.8-5.4,23-7.3c-3.6,4.8-7,4.3-9.6,15.3C416.6,201.1,416,200.3,409.5,199.5z M392.3,193.9
	c1.2-4.7-0.9-2.6,3.8-3.8C394.8,195,396.8,192.2,392.3,193.9z M293,220.7l4.7-1.8l-3.2,3.1l-5.8,0.7L293,220.7z M275.3,234.2
	l-1.9,1.9L275.3,234.2z M363.5,299.4c3.5-2.6-5-4.4,5.2-1.6l0.3,14.4c-8.6-2-6.6-3.5-15.2,0.6c-6-1.7-6.3-1.8-7.2,5.8
	c-0.7,8.1-0.1,3.9,1.4,5.6c14.4-20.2,33.2,17.3-19.2,15.6c-13.6-0.4-34-5.7-46-11.6c-4.5-2.2-9-3.6-13.4-5.8l-0.7-7.7
	c2.4-7.2-0.2-3.1,4.5-6.3c13.6,1.5,20.1-3.9,21.1,8.2c-6.1-0.1-2.8,0.2-6.1-1.6c-17.2-8.9,5.1,0.1-5.4-4.2
	c-2.6,5.3-1.9,3.7-1.9,11.5c14.1,9.4,10.8,6.3,23-1.9V309c-13.5-9-6.3-7.7-28.8-7.7c8.4-11.5,38.8-19.4,48.9-10.6
	c11.2,9.9,0.8,27.5-10,17.6c-4.4-4.1-1.7-7.9-0.6-12.8c-12.4,8.3-9.5,24.5,4.1,26.8c27.8,4.8,33.6-42.9-6-42.3
	c-23.8,0.3-27.7,9.3-36.4,11.7c1.7-6.2,0.4-2.3,4.2-7.3c14.2-18.3,32.8-31.9,56.9-37.1c52.7-11.3,45.6,53,15.6,38.6
	c-3.6-7.5-1-11.4,1.6-17.3c-1.3-3.1,2.5-3.3-3.6-1.8c-5.7,3.5-12.9,10.4-8.7,21.8c1.1,3,5.4,8,8.2,9.3
	C354.2,300.2,357.6,299.4,363.5,299.4z M405.7,282.1c17.7,0,18.7-8.8,28.8-11.5c0,44.2-10,55.6-40.3,55.6
	c-24.5,0-26.4-38.4-5.8-38.4c10.7,0,13.4,9.1,13.4,17.3c-20.4,0-6.1-1.7-17.3-5.8c-5.8,24.9,25.3,21.4,28.1,3.2
	C413.9,294.4,409,287.1,405.7,282.1z M194.8,320.5c17.6-1.5,36.4-25.2,36.4,21.1C223.5,339.8,202.2,326.9,194.8,320.5z M388.4,331.7
	l4.2,1.6c1,9.5,0.8-0.1-2.3,3.7c-21,18.6-29.4,12.2-49.9,12.2v-1.9c8.8,0,15.4-2.1,21.5-5.4c8.1-4.3,9-8.2,13-15.7
	C379.7,328.7,382.7,330.7,388.4,331.7z M286.8,339.6c-5.2-0.4-5.2-0.9-9.6-1.9c2.7-1.7-4.2-3,5-0.9
	C289.2,338.4,284.9,338,286.8,339.6z M292.6,341.6c-9.1,0-3.6,0-5.8-1.9C295.9,339.6,290.4,339.6,292.6,341.6z M296.4,343.5
	l-3.8-1.9L296.4,343.5z M102.7,414.7l-6.5-1.9l2.6-4l1.5-4.3c1.4-7.9-1.3-14.3,2.7-22.2c6.7-13.1,31.1-18.1,41.2-39.4
	c2.6-5.5,2.1-8.1,4.4-12.8c15.5,7.5,9.2,7.4,17.3,9.6c-1,11.7-8.6,16.8-9.6,28.8c20,10.6,50,21.1,74.8,26.8l-25.7,12.6
	C150,429.3,108.1,412,102.7,414.7z M319.4,384.2c2.8,0,2,0.6,2-2.4c-12.9-18.8-34,1.2-20.7,18.8c8.8,11.6,16.2,1.9,14.9,11.9
	c-1.6,12.4-1.2,5.6,2,19.2c-15.2-10.2-42.2-53.3-44.1-76.7c3,1.6,5.6,2.5,8.8,4.6c3.8,2.6,4.8,4.3,8.5,7.2l0.8,5.2
	c-4.5,0.4-0.5,3.2-6.6-2l-3.8-2.6c-3.7,6.1,8.2,23.6,19.2,2.9c-12.9-24.3-19.9-13.6-28.8-26.8c13.9,3.2,27.7,8.8,38.3,15.4l10.4,8.7
	c8.3,8.2,10.7,12.2,10.7,25.7c-9.9,6.7-11.1,8.2-23,1.9C307.9,384,307.9,383.1,319.4,384.2z M306,346l1.6,1.3c2.9,0,2.3-0.8,2.3,1.9
	c15.5,3.6,39,21.3,46.9,33.7c5.1,7.9,7.8,20.7,8.6,31.6c2.7,37.7-0.7,8.2,5.8,36.3c-56.3,0-59.6-47.5-35-43.8
	c10.6,1.6,18.3,11.5,8.2,18.9c-7.2-1.9-8.9-4.9-9.6-13.4c-6.9,5-4.2,11.3,0.3,16.9c5.5,6.8,7.5,6.1,18.9,6.1
	c4.4-6.5,10-12.9,5.4-22.5c-3.9-8-11.6-12.2-22.7-11.7l-4.7,0.1l2.8-3.4c11.1-16.8-3-27.4-9.6-37.3c-6.8-3.6-8.5-6.1-15.3-9.5
	l-3.2-2l-10.2-5.8C304.8,343.7,300.7,342.5,306,346z M277.2,389.5l3,4.7l-8.8-0.8c-1.9,1.3-11.6,9.3-3.6,11.6
	c6.1,1.8-0.7-2.7,5.8-2.7c5.4,0,3-0.4,3.6,6.4c-10.3,4.9-16.3,0.2-25-5.7l-7.6-5.8c11.8,0,16.4,1.9,25.4-7.2l5.3-6.2
	C276.7,388.9,275.1,385.3,277.2,389.5z M47.1,399.1l-1.9-1.9L47.1,399.1z M47.1,399.1c4.7,1.2,2.6-0.8,3.8,3.8L47.1,399.1z
	 M227.4,406.8c6-1.4,5.6-2.4,11.5-3.8c13.3,11.6,17.3,24,17.3,44.1c0,6-3.4,5.4-7.7,7.7c0-9.1-2.8-22.8-5.7-28.8
	c-3.5-7.3-5.7-9-10.9-14.1C228.9,408.9,229.9,410.5,227.4,406.8z M64.3,412.5c13.1-3.1,20.3,7.3,38.4,7.7v3.8
	c-10.4,0-13.6,3-21.9,0.9c-10.3-2.6-8.5-6.4-16.5-8.6V412.5z M281.1,429.6c-2.9,1.6-2.7-2.9-2.1,4c3.4,5.6,3.1,3.8,11.7,3.8
	c-2.6,2.3-0.1,0.7-4.7,3c-2,1-5,2.1-6.8,2.8c-4,1.7-9.6,3.8-13.5,5.7c0-30.7,17.6-38.8,26.8-24.9
	C288.7,429.8,290.1,429.7,281.1,429.6z M133.4,424c-0.7,8.9,2.1,3.4-3.8,7.7C126.8,425.8,125.4,425.9,133.4,424z M173.7,422.1
	c5.9,4.3,3.1-1.2,3.8,7.7h-5.8C172.1,425.3,172.2,424.9,173.7,422.1z M91.2,434.5c-7.1-3.7-3.7-3.4-1.9-4.6
	c9.7-0.3,23.3-4.1,29.1-0.2c9.4,6.2-0.9,18.9-6.5,3.9l-1.5-1.7c-1.5,1.5-1.1,0-2.4,3.2c-2,4.6-0.9-0.2-1.4,6.2
	C96.6,436,97.3,434.7,91.2,434.5z M192.8,460.5c-11.6,0-15.4-1.9-24.9-1.9c14.4-12.6,3.8-36.4,40.3-36.4c24,0,19.5,36.4,0,36.4
	c-9.1,0-17.1-13.7,0-16.9c0.2,0,0.8-0.1,1-0.2c0.1,0,0.6,0,0.9-0.2C197.2,422.1,175.1,443.6,192.8,460.5z M143,447
	c0,4.4,0.6,2.2,1.9,7.7c-7.7-1.8-13-5.1-21.1-5.8c8.4-12.5,24.4-25.8,42.2-17.3c3.3,14,1.4,26.5-15.3,15.3c1.9-7.2,3.7-5.6,7.7-11.5
	C149.4,435.7,143,438.3,143,447z M492,168.4v15.7c-2.3,18.4-12.2,36.1-22.6,48.6c-36.3,44-15.7,15-29.5,66.3
	c-6.4,23.9-15.2,28.2-30.7,34.5c-10.4,4.3-2.4,4.4-17,15.6c-7.2,5.5-11,17.2-20.6,29.4c-8,10.2-5.3,4.6-1.5,21.6
	c3.2,14.3-2.1,43.3,12.9,50.4c1.4,0.7,4,1.3,5.5,2.2c4.3,2.6,1.7-1.1,3.8,3.9c-12.7,6.1-33.8,3.8-47.3-0.6
	c-15.6-5.2-23.4-12.6-35.2-20.5c-14.5,12.6-48.9,24.4-65.7,28.3c-45.5,10.7-103.4,4.7-143.7-16.5c-68.7-36.1-18.4-27.1-74.5-27.1
	c2-7.5,7.6-9.7,15.3-11.5c-2.5-9.2-30.3-36.1-32.6-46.5V360c0.4-1.1,1.4-1.8,3.3-1.9c4.4-0.3,7.7,6,11.7,10.7
	c4.4,5.2,31.5,27.2,36.8,26.5c8.1-4.3,25.4-18,30.7-24.9c25.5-33.2,35.2-59.7,42.6-68.6c13.6-16.3,23.9-1.4,36,1.5
	c-1.6-6.7-6.8-15.9-9.6-23c-11.1-28.1-12.6-30.5-29-29c-15.6,1.4-15.6-2.7-26.7-3.6v-3.8c10.6,0,11.4,1.9,21.1,1.9l-5.9-3.7
	c-1.7-2.6-3.9-1.2,2.2-3.3c3.2-1.1,14.7-1.9,16.4-1.6c18.5,3.5,44.5,47.3,52.5,62.4c34.2-18.1,25.7-13.9,53.7-32.6
	c0-9.7-1.3-9.9-1.9-17.3c-15.4-1.7-13.4-0.8-12.8-7.2c0.1-1.1-2.2-3.1-2.6-4.5c-0.4-1.4,0.4-4.2-0.5-4.7c-1.3-0.6-3-2.1-2.3-3
	c2.3-2.9,3.8-4.5,4.7-15.2c1.7-14-0.7-9.5-0.1-13.4c-1.9-9.4,10.3-9.3,16.7-9.2l6.2-0.9c7.1-3,4.2-5.3,13.9-1.8
	c4.2,1.5,7.2,4,11.7,6.6l4.1-4.2l1.1,3.6l1.9-1.7l2.1-1.1l1.7-2.8c6.7,0.1,4.7-1.4,8.1,1.9l-2,3.5c1.2,7.1,0.4,0.7,3.7,3.9l-0.7,0.3
	l2.5,8.5l4-5.9c0,2.5,0.6,10.4,0.6,11.6c-0.4,5.5-10.2,18.9-15.9,8.8c-5.8,4.2-4.7,8-10.9,14.1c-7.4,7.3-6.8,2.8-16,8.9
	c0.9,10.3,5.3,12.7,9.6,19.2c3.3-2.4,11.6-14,20.8-21.4c8.2-6.6,14.7-11.2,23.3-17c-5.5-65.9-64.6-132.7-132.8-145.2
	c-101.9-18.8-146.4,42-154.3,38.6c-6.4-2.7,4.9-12.9,10.4-18.5L57.1,85c66.4-58.2,180.4-68.8,258.5-13.9
	c32.9,23.2,63.9,56.3,78.9,93.7c2.9,7.1,6,18.4,9.3,25.2c9.3-0.8,51.8-18.9,56.8-37.2c3.7-13.6-2.3-16.5-3.1-26
	c13.9,3.3,28.3,19.6,32.5,32.7C490.9,162.4,491.6,165.4,492,168.4z M294.5,435.5l-3.8,1.9L294.5,435.5z"/>
<path class="st1" d="M39.4,226.5c3.5-15.1,10.3-21.2-3.8-30.7c-4.5,6.8-10.7,9.4-3.4,24.4C34.8,225.5,33.6,224.9,39.4,226.5
	 M31.7,207.3c0-2.8,2.4-2.8,3.8-3.8V215c-1.3-1.5-1.3-0.5-2.5-3.2C31.7,208.8,31.7,214.4,31.7,207.3z M37.5,205.4h1.9v9.6h-1.9
	V205.4z"/>
<path class="st2" d="M298.3,199.4c4.5-1.2,1.9-0.9-0.7,0.3l2.5,8.5l4-5.9c-1.1-5,0.6-2.6-2.1-6.2c-2.4-3.1-1.8-1.8-5.3-4.1l-2,3.5
	C295.8,202.6,295,196.2,298.3,199.4"/>
<path class="st2" d="M229.3,215c1.7-14-0.7-9.5-0.1-13.4c-6.2,4.7-0.7-1.8-3.9,3.6c-1.2,2.1-1.2,3.5-1.8,6L229.3,215z"/>
<path class="st3" d="M212,142.1c1.7,4.6-3.2,2.2,3.2,4.7c2.2,0.9,2.7,1.4,3.8-1.5C220.9,139.9,214.5,139.3,212,142.1"/>
<path class="st4" d="M187.1,111.4c3.5,1.7,2.4,1.5,7.7,1.9c-0.5-5.9,0-3.6-1.9-7.7C185.1,108.5,192.6,104.1,187.1,111.4"/>
<path class="st3" d="M164.1,86.5c-1.7-4.6,3.2-2.2-3.2-4.7c-2.2-0.9-2.7-1.4-3.8,1.5C154.8,89.8,161.5,87.7,164.1,86.5"/>
<path class="st5" d="M221.6,157.5c-1.7-4.6,3.2-2.2-3.2-4.7c-2.2-0.9-2.7-1.4-3.8,1.5C212.3,160.7,219,158.7,221.6,157.5"/>
<path class="st6" d="M254.2,147.9c-2.6-1.2-9.3-3.3-6.9,3.1c1.1,2.8,1.5,2.5,3.8,1.5C256.9,150,252.4,152.9,254.2,147.9"/>
<path class="st7" d="M254.2,140.2c1.2-2.6,3.2-9.3-3.1-6.9c-2.8,1.1-2.5,1.5-1.5,3.8C252.1,142.9,249.2,138.4,254.2,140.2"/>
<path class="st8" d="M123.8,121c-1.2,2.6-3.3,9.3,3.1,6.9c2.8-1.1,2.5-1.5,1.5-3.8C125.9,118.3,128.8,122.8,123.8,121"/>
<rect x="94" y="141" transform="matrix(0.7681 -0.6403 0.6403 0.7681 -69.7464 95.4757)" class="st9" width="6" height="6"/>
<rect x="44.1" y="135.3" transform="matrix(0.7683 -0.6401 0.6401 0.7683 -77.6009 62.1775)" class="st10" width="6" height="6"/>
<rect x="199.4" y="100.8" transform="matrix(0.7682 -0.6402 0.6402 0.7682 -19.5071 153.6516)" class="st11" width="6" height="6"/>
<rect x="57.5" y="141" transform="matrix(0.7682 -0.6402 0.6402 0.7682 -78.1842 72.1238)" class="st12" width="6" height="6"/>
<path class="st13" d="M254.2,128.7l6.2-5.3c-3.9-2.1-2.8-1.9-8.1-2.3C252.7,125.5,252.7,125.9,254.2,128.7"/>
<path class="st14" d="M106.5,138.3c3.5,1.7,2.4,1.5,7.7,1.9v-5.8C109.7,134.8,107.2,134.2,106.5,138.3"/>
<path class="st15" d="M150.6,94.2c3.5,1.7,2.4,1.5,7.7,1.9v-5.8C153.8,90.7,151.3,90.1,150.6,94.2"/>
<path class="st13" d="M33.7,174.7h5.8c-0.7-8.9,2.1-3.4-3.8-7.7C34.2,169.8,33.7,170.2,33.7,174.7"/>
<path class="st16" d="M212,132.5h5.8c-0.7-8.9,2.1-3.4-3.8-7.7C212.6,127.6,212,128,212,132.5"/>
<path class="st17" d="M229.3,176.6h5.8c-0.7-8.9,2.1-3.4-3.8-7.7C229.8,171.7,229.3,172.2,229.3,176.6"/>
<path class="st18" d="M37.5,161.3c1.7-3.5,1.5-2.4,1.9-7.7h-5.8C34.4,162.2,31.6,157.2,37.5,161.3"/>
<path class="st19" d="M242.7,163.2h7.7C247.8,153.6,242.9,156.5,242.7,163.2"/>
<path class="st6" d="M212,99.9v5.8c8.9-0.7,3.4,2.1,7.7-3.8C216.2,100.1,217.3,100.4,212,99.9"/>
<path class="st20" d="M141.1,111.4h-7.7C135.6,119.9,138.8,119.9,141.1,111.4"/>
<path class="st13" d="M225.4,170.9v-7.7C217,165.5,217,168.6,225.4,170.9"/>
<rect x="75.9" y="144" class="st21" width="5.8" height="5.8"/>
<rect x="33.7" y="124.9" class="st22" width="5.8" height="5.8"/>
<rect x="238.9" y="167" class="st23" width="5.8" height="5.8"/>
<rect x="33.7" y="182.4" class="st24" width="5.8" height="5.8"/>
<rect x="33.7" y="140.2" class="st25" width="5.8" height="5.8"/>
<rect x="212" y="113.4" class="st26" width="5.8" height="5.8"/>
<rect x="177.5" y="105.7" class="st27" width="5.8" height="5.8"/>
<path class="st25" d="M167.9,90.3c5.9-4.3,3.1,1.2,3.8-7.7C164.1,84.7,164.8,84,167.9,90.3"/>
<path class="st28" d="M148.7,107.6c-0.7-8.9,2.1-3.4-3.8-7.7C142,106.2,140.9,105.5,148.7,107.6"/>
<path class="st29" d="M212,99.9c3-6.6,0.8-8.8-5.8-5.8L212,99.9z"/>
<path class="st2" d="M281.7,192l1.1,3.6l1.9-1.7c1.3-1.9,0.1-2.5,2.1-1.1l1.7-2.8c-1.8-2.4,3.3-1.9-3.7-1.9L281.7,192z"/>
<path class="st0" d="M170.2,101.8c8.9-2.6,4.2-2.5,3.5-4.8l-4.7,0L170.2,101.8z"/>
<path class="st30" d="M304.1,164.7c5.2-3.9,1.2-0.8,3.8-4l-5.6,1L304.1,164.7z"/>
<path class="st31" d="M170.2,101.8L169,97l4.7,0l-5.7-1.1C167.9,106.8,167.5,98.5,170.2,101.8"/>
<path class="st32" d="M268.8,314.7c0.4-0.3,1-1.3,1.2-1c0.1,0.3,0.9-0.8,1.1-1.1c1.8-2.6,0.9-1.1,2.2-4.2
	C268.7,311.6,271.3,307.6,268.8,314.7"/>
<polygon class="st33" points="311.7,81.3 315.4,79.8 311.7,77.5 "/>
<polygon class="st33" points="294.5,222 297.7,218.9 293,220.7 "/>
</svg>
